<svg xmlns="http://www.w3.org/2000/svg" width="126.653" height="114.067" viewBox="0 0 126.653 114.067">
  <g id="FPO_ICONS_-01" transform="translate(0.163 0.164)">
    <g id="Group_3121" data-name="Group 3121" transform="translate(0 0)">
      <line id="Line_144" data-name="Line 144" x1="35.081" y1="54.956" transform="translate(45.869)" fill="none" stroke="#707070" stroke-miterlimit="10" stroke-width="0.61" opacity="0.8"/>
      <line id="Line_145" data-name="Line 145" x1="60.141" y1="10.221" transform="translate(8.287 66.677)" fill="none" stroke="#707070" stroke-miterlimit="10" stroke-width="0.61" opacity="0.8"/>
      <line id="Line_146" data-name="Line 146" x1="68.161" y1="42.851" transform="translate(0 22.609)" fill="none" stroke="#707070" stroke-miterlimit="10" stroke-width="0.61" opacity="0.8"/>
    </g>
    <g id="Group_3125" data-name="Group 3125" transform="translate(64.609 51.366)">
      <g id="Group_3122" data-name="Group 3122" transform="translate(4.585 5.056)">
        <path id="Path_7198" data-name="Path 7198" d="M64.117,38.1A26.127,26.127,0,1,0,90.195,64.277h0A26.009,26.009,0,0,0,64.117,38.1Zm0,50.42A24.285,24.285,0,1,1,88.36,64.194h0A24.166,24.166,0,0,1,64.117,88.52Z" transform="translate(-37.94 -38.1)" fill="#fff"/>
        <path id="Path_7199" data-name="Path 7199" d="M57.487,44.62h0A9.453,9.453,0,0,0,48,53.74a12.6,12.6,0,0,0,1.851,5.986c1.2,2.034,2.584,4.6,2.584,5.352V68.4l1.017,6.169a.9.9,0,0,0,.917.734h6.169a.888.888,0,0,0,.917-.734L62.473,68.4V65.078c0-.734,1.384-3.318,2.584-5.252a12.842,12.842,0,0,0,1.851-5.986,9.41,9.41,0,0,0-9.4-9.22ZM59.7,73.282H55.1l-.734-4.335h5.986l-.65,4.335ZM63.49,58.626c-.65,1.1-2.951,4.7-2.951,6.269v2.218h-2.3v-7.92l1.751-1.751a.886.886,0,0,0,0-1.284h0a.886.886,0,0,0-1.284,0L57.32,57.542l-1.467-1.384a.908.908,0,0,0-1.284,1.284l1.751,1.751v7.92h-2.3V64.895c0-1.567-2.118-5.169-2.851-6.269A10.629,10.629,0,0,1,49.6,53.657a7.659,7.659,0,0,1,15.29,0,8.392,8.392,0,0,1-1.384,4.969h0Z" transform="translate(-31.227 -33.749)" fill="#fff"/>
      </g>
      <g id="Group_3124" data-name="Group 3124">
        <path id="Path_7200" data-name="Path 7200" d="M74.952,64.99a24.3,24.3,0,0,1-30.062.867" transform="translate(-28.717 -15.099)" fill="none" stroke="#fff" stroke-miterlimit="10" stroke-width="0.89"/>
        <path id="Path_7201" data-name="Path 7201" d="M40.05,65.281A24.349,24.349,0,0,1,41.634,47.19" transform="translate(-32.647 -26.978)" fill="none" stroke="#fff" stroke-miterlimit="10" stroke-width="0.22"/>
        <path id="Path_7202" data-name="Path 7202" d="M51.363,79.085a31.669,31.669,0,0,1-7.6-5.586,30.978,30.978,0,0,1-8.57-16.14" transform="translate(-35.19 -20.191)" fill="none" stroke="#fff" stroke-miterlimit="10" stroke-width="0.22"/>
        <path id="Path_7203" data-name="Path 7203" d="M84.7,55.31A31.229,31.229,0,0,1,53.59,84" transform="translate(-22.911 -21.559)" fill="none" stroke="#fff" stroke-miterlimit="10" stroke-width="0.18"/>
        <path id="Path_7204" data-name="Path 7204" d="M36.91,62.227a27.3,27.3,0,0,1-.15-2.868A27.814,27.814,0,0,1,40.478,45.42" transform="translate(-34.142 -28.159)" fill="none" stroke="#59b935" stroke-miterlimit="10" stroke-width="0.33"/>
        <path id="Path_7205" data-name="Path 7205" d="M72.7,67.88A28.017,28.017,0,0,1,47.51,70.5" transform="translate(-26.968 -13.17)" fill="none" stroke="#59b935" stroke-miterlimit="10" stroke-width="0.33"/>
        <path id="Path_7206" data-name="Path 7206" d="M50.71,41.457a21.844,21.844,0,0,1,4.7-.517,21.446,21.446,0,0,1,9.137,2.034" transform="translate(-24.833 -31.149)" fill="none" stroke="#59b935" stroke-miterlimit="10" stroke-width="0.22"/>
        <path id="Path_7207" data-name="Path 7207" d="M47.143,73.12a21.409,21.409,0,0,1-3.952-25.36" transform="translate(-31.52 -26.597)" fill="none" stroke="#59b935" stroke-miterlimit="10" stroke-width="0.22"/>
        <g id="Group_3123" data-name="Group 3123" transform="translate(0.684)">
          <path id="Path_7208" data-name="Path 7208" d="M47.7,41.261A24.346,24.346,0,0,1,81.364,68.222" transform="translate(-27.525 -32.303)" fill="none" stroke="#fff" stroke-miterlimit="10" stroke-width="1.34"/>
          <path id="Path_7209" data-name="Path 7209" d="M35.6,57.514A31.255,31.255,0,0,1,87.671,44.209a31.277,31.277,0,0,1,5.969,8.337" transform="translate(-35.6 -35.067)" fill="none" stroke="#fff" stroke-miterlimit="10" stroke-width="0.22"/>
          <path id="Path_7210" data-name="Path 7210" d="M68.55,46.31a28,28,0,0,1,2.768,15.34" transform="translate(-13.611 -27.565)" fill="none" stroke="#59b935" stroke-miterlimit="10" stroke-width="0.33"/>
          <path id="Path_7211" data-name="Path 7211" d="M51.77,37.17a28.58,28.58,0,0,1,2.935-.15A27.881,27.881,0,0,1,73.8,44.556" transform="translate(-24.809 -33.765)" fill="none" stroke="#59b935" stroke-miterlimit="10" stroke-width="0.33"/>
          <path id="Path_7212" data-name="Path 7212" d="M73.889,47.13A21.405,21.405,0,0,1,50.48,79.01" transform="translate(-25.67 -27.018)" fill="none" stroke="#59b935" stroke-miterlimit="10" stroke-width="0.22"/>
        </g>
      </g>
    </g>
  </g>
</svg>
