<svg xmlns="http://www.w3.org/2000/svg" xmlns:xlink="http://www.w3.org/1999/xlink" width="156.598" height="209.949" viewBox="0 0 156.598 209.949">
  <defs>
    <radialGradient id="radial-gradient" cx="0.501" cy="0.501" r="0.462" gradientTransform="translate(-0.091) scale(1.181 1)" gradientUnits="objectBoundingBox">
      <stop offset="0" stop-color="#dcf9ad"/>
      <stop offset="0.13" stop-color="#d6f997"/>
      <stop offset="0.16" stop-color="#d5fa91"/>
      <stop offset="0.25" stop-color="#ccfa76"/>
      <stop offset="0.44" stop-color="#b6fb31"/>
      <stop offset="0.57" stop-color="#a7fc00"/>
      <stop offset="0.98" stop-color="#48e200"/>
      <stop offset="1" stop-color="#42e000"/>
    </radialGradient>
  </defs>
  <g id="FPO_ICONS_-04" transform="translate(0.147 0.164)">
    <g id="Group_3137" data-name="Group 3137" transform="translate(0 0)">
      <line id="Line_154" data-name="Line 154" x1="89.248" y1="80.086" fill="none" stroke="#707070" stroke-miterlimit="10" stroke-width="0.44" opacity="0.8"/>
      <line id="Line_155" data-name="Line 155" x2="34.461" y2="76.97" transform="translate(121.79 121.893)" fill="none" stroke="#707070" stroke-miterlimit="10" stroke-width="0.44" opacity="0.8"/>
      <line id="Line_156" data-name="Line 156" x2="9.822" y2="77.795" transform="translate(116.569 131.963)" fill="none" stroke="#707070" stroke-miterlimit="10" stroke-width="0.44" opacity="0.8"/>
    </g>
    <g id="Group_3139" data-name="Group 3139" transform="translate(73.524 56.774)">
      <path id="Path_7244" data-name="Path 7244" d="M46.993,81.685A29.794,29.794,0,0,1,45.961,44.83" transform="translate(-31.496 -24.469)" fill="none" stroke="#67c600" stroke-miterlimit="10" stroke-width="0.88"/>
      <path id="Path_7245" data-name="Path 7245" d="M50.26,40.279a29.989,29.989,0,0,1,22.183,1.94" transform="translate(-20.669 -30.669)" fill="none" stroke="#67c600" stroke-miterlimit="10" stroke-width="0.88"/>
      <path id="Path_7246" data-name="Path 7246" d="M37.653,75.9A38.414,38.414,0,0,1,42.461,43.05" transform="translate(-35.92 -26.362)" fill="none" stroke="#fff" stroke-miterlimit="10" stroke-width="0.18"/>
      <path id="Path_7247" data-name="Path 7247" d="M93.186,68.655a38.277,38.277,0,0,1-51.836-2.1" transform="translate(-30.145 -1.369)" fill="none" stroke="#fff" stroke-miterlimit="10" stroke-width="0.18"/>
      <path id="Path_7248" data-name="Path 7248" d="M38,65.744a33,33,0,0,1-.186-3.508A34.046,34.046,0,0,1,42.37,45.15" transform="translate(-33.91 -24.129)" fill="none" stroke="#05ad00" stroke-miterlimit="10" stroke-width="0.09"/>
      <path id="Path_7249" data-name="Path 7249" d="M79.33,67.38a34.341,34.341,0,0,1-30.87,3.2" transform="translate(-22.583 -0.487)" fill="none" stroke="#05ad00" stroke-miterlimit="10" stroke-width="0.09"/>
      <path id="Path_7250" data-name="Path 7250" d="M42.34,64.952a26.465,26.465,0,0,1-.64-5.757A25.975,25.975,0,0,1,44.2,48.01" transform="translate(-29.773 -21.087)" fill="none" stroke="#05ad00" stroke-miterlimit="10" stroke-width="0.09"/>
      <path id="Path_7251" data-name="Path 7251" d="M79.537,62.31A26.271,26.271,0,0,1,48.46,67.159" transform="translate(-22.583 -5.879)" fill="none" stroke="#05ad00" stroke-miterlimit="10" stroke-width="0.09"/>
      <g id="Group_3138" data-name="Group 3138" transform="translate(13.888)">
        <path id="Path_7252" data-name="Path 7252" d="M84.707,47.61A29.817,29.817,0,0,1,51.67,88.86" transform="translate(-33.057 -21.513)" fill="none" stroke="#67c600" stroke-miterlimit="10" stroke-width="1.32"/>
        <path id="Path_7253" data-name="Path 7253" d="M42.65,43.871A37.87,37.87,0,0,1,59.757,35.7a38.275,38.275,0,0,1,44.985,30.086,37.858,37.858,0,0,1,.392,12.546" transform="translate(-42.65 -34.963)" fill="none" stroke="#fff" stroke-miterlimit="10" stroke-width="0.18"/>
        <path id="Path_7254" data-name="Path 7254" d="M69.28,46.03A34.163,34.163,0,0,1,72.871,61.3a33.1,33.1,0,0,1-.186,3.529" transform="translate(-14.328 -23.193)" fill="none" stroke="#05ad00" stroke-miterlimit="10" stroke-width="0.09"/>
        <path id="Path_7255" data-name="Path 7255" d="M52.67,37.016a34.353,34.353,0,0,1,26.991,9.038" transform="translate(-31.993 -32.977)" fill="none" stroke="#05ad00" stroke-miterlimit="10" stroke-width="0.09"/>
        <path id="Path_7256" data-name="Path 7256" d="M47.83,44.507A26.249,26.249,0,0,1,87.677,66.958a27.149,27.149,0,0,1-.743,6.252" transform="translate(-37.141 -28.851)" fill="none" stroke="#05ad00" stroke-miterlimit="10" stroke-width="0.09"/>
      </g>
      <path id="Path_7257" data-name="Path 7257" d="M82.228,64.913l-2.249-3.322-.124-1.96-.083-3.859L78.7,52.718l-3.983-3.1-.66-2.167-2.064-1.135-.64-2.27-3.281-1.527-3.694,1.527v2.187h0l.083,22.142-.062.144h.062l.062,15.332,3.24,2.641,2.27-1.341,3.735-.97,2.683-1.465,2.1-2.93,2.229-2.5V74.756l.6-2.476,1.2-4.086-.371-3.281ZM68.382,43.225,70.673,44.3l-2.187,2.084Zm-.433,3.2-2.724-2.146,2.621-1.094Zm-.5.31-2.476-.578V44.773l2.476,1.96Zm.929,3.487-3.157.144,2.827-2.786Zm3.549-3.343,1.506.825-2.022,2.373-.8.041,1.3-3.24Zm2.724,3.364,1.135.867v1.61l-1.878.083.743-2.559Zm1.321,1.011,1.775,1.383-1.775.083V51.273ZM70.549,79.5l-.619,4.891-2.146-2.827,2.765-2.084Zm-3.054,1.61-.8-1.671,1.919-2.579,3.879.5-5.014,3.756ZM65.019,60.683l1.692-3.033,3.2.763.165.929-5.056,2.641V60.662Zm8.275-5.654,1.981,2.084-2.848,1.094.867-3.178Zm6.046,4.643.1,1.568-3.467-3.652v-.144l3.281-1.259ZM72.8,76.861,69,76.386l2.394-3.2,1.4,3.694Zm-1.837-6.438,1.4.206.6,5.1-2-5.283Zm.144-.537,1.052-1.094.144,1.259Zm1.238-1.052,1.362,1.4-1.217-.165Zm-.289-9.9,1.713.681-2.827,2.848-.083-.062-.475-2.579,1.692-.887Zm-1.8.31-.144-.8,1.156.268-1.011.516Zm.371,2.992-2.167-1.444,1.733-.908ZM74.3,65.759l-2.125,2.208-.351-1.444Zm-2.518.578-.764-3.178,3.508,2.352-2.745.846Zm-.433-3.632,3.054-.351.227,2.559-3.3-2.208Zm-.227-.165h-.021l2.868-2.889.206.083.227,2.435ZM79.113,61.1l-4.725-1.857,1.527-1.527L79.133,61.1Zm-4.375-1.135,4.251,1.671-4.065.475-.206-2.146Zm1.032-2.394-1.589,1.589L72.8,58.619l2.91-1.114Zm-5.757.268-.66-3.487L71.5,58.207l-1.506-.351ZM68.9,53.749l.1-.083.1.165.743,3.941-2.806-.681,1.878-3.364Zm-2.064,3.322L65.307,56.7l3.2-2.641-1.671,3.013Zm3.983,5.9.825,3.384h-.021l-2.022-1.2-.949-3.632,2.167,1.444Zm.557,3.467-1.341.413-.371-1.444Zm.31.1.371,1.548-1.341,1.4-.64-2.456ZM70.2,69.659l-4.787-1.2L69.558,67.2l.64,2.476Zm1.176,3.24-2.538,3.384-3.425-.433,5.056-5.3.887,2.373Zm-2.91,3.879-1.816,2.414-1.341-2.827Zm4.787-.433-.66-5.757,1.775.248.8.825-1.9,4.7h0Zm1.4-5.489.763.1-.186.5Zm-.619-.64-1.651-1.692L74.8,66.007l.681,4.416Zm.929-7.965,4.148-.475-3.9,3.116ZM76,56.783V54.492l2.827,1.2L76,56.762Zm-.186.062-.33.124-2.1-2.229.33-1.217,2.1.887ZM74.49,53.254l1.321-.062v.619Zm-2.5,4.519v-4.4l1.217-.062Zm-.186-.186-2.291-4.106,2.291-.1Zm-2.125-4.664,2.125-2.5v2.414l-2.125.1ZM71.271,50.2,69.95,51.768l.619-1.527Zm-2.084,1.96-.227-1.837.99-.041Zm-.454.764L65.019,50.53h0l3.384-.165.33,2.579Zm-3.756-2.187,3.756,2.414L65,56.226V50.737Zm1.527,6.83L65,60.27V57.2Zm1.238,3.57L66.69,63.469,65.1,62.519l2.641-1.383Zm.33.578.784,3.054-1.713-1.032Zm.846,3.3.516,2-4.4,1.341,2.022-4.437,1.857,1.114Zm1.011,5.159-4.911,2.043v-3.26L69.93,70.2ZM65.019,72.4l4.7-1.94-4.684,4.911V72.4ZM67,81.4l-1.96,1.671v-5.8L67,81.421Zm.1.619.31,3.446L65.184,83.65,67.1,82.02Zm.578.371L69.5,84.764l-1.506.867-.289-3.26Zm2.971-2.848,2.579,4.148-3.219.825Zm.8.268,4.272,2.579-1.981,1.094Zm-.351-.846,2.125-1.589h.1l3.9,3.219L76.2,82.04l-5.076-3.075Zm6.211,1.486L73.6,77.377h2.91l.784,3.075h0ZM73.541,76.84l1.733-4.292,1.114,4.292ZM75.4,72.259l.083-.186L80.1,76.84H76.6l-1.176-4.581Zm4.829,4.457-4.664-4.808.289-.7,4.416,3.549V76.7ZM75.192,65.7l5.922-.454-5.468,3.1.041.083-.062.083,1.816,1.259-1.548.619-.722-4.7Zm.681,2.744,5.675-3.219h.1l.31,2.745L77.668,69.7Zm5.53-3.756-5.654.433,3.859-3.075,1.8,2.641Zm-2.414-9.43-3.1-1.321v-.7l2.332-.1.743,2.125ZM74.16,49.767l-.887,3.054-1.362.062V50.262l1.775-2.084Zm-2.724-3.322L69.95,50.118l-1.094.062-.392-3.1,2.5-2.373.475,1.733Zm-3.714.516.041.041-2.848,2.827V46.321Zm-2.765,15.7,1.61.97-1.589,3.508V62.684ZM78.081,79.378l-.619.887L76.719,77.4h3.157L78.1,79.378Zm2.249-5.221-4.106-3.3L78,70.134l2.806,1.94h0Zm.537-2.27L78.2,70.051l3.632-1.465ZM60.892,82.432V69.123a.606.606,0,0,1-.371-.557.621.621,0,0,1,.619-.619.635.635,0,0,1,.619.619.621.621,0,0,1-.351.557V82.68l-2.229,1.775L53.215,82.02l-3.591-4.313h-.062a.621.621,0,0,1-.619-.619.619.619,0,0,1,1.238,0,.624.624,0,0,1-.1.33l3.487,4.21,5.489,2.208,1.8-1.424Zm-.681-34.626v-.062l-1.073-.371-6.6,8.275a1,1,0,0,1,.083.289.621.621,0,0,1-.619.619.619.619,0,1,1,0-1.238h.1l6.872-8.6,1.568.557a1,1,0,0,1,.289-.083.621.621,0,0,1,.619.619.619.619,0,0,1-1.238,0ZM51.379,57.835A.621.621,0,0,1,52,57.216a.635.635,0,0,1,.619.619.621.621,0,0,1-.351.557V59.63h8.275V49.911a.619.619,0,0,1,.268-1.176.635.635,0,0,1,.619.619.621.621,0,0,1-.351.557V60.188H51.709v-1.8a.621.621,0,0,1-.351-.557Zm-.289-3.487a.621.621,0,0,1-.619-.619.635.635,0,0,1,.619-.619.865.865,0,0,1,.31.083l6.108-7.676,1.878-.99.99.33a.639.639,0,0,1,.475-.248.621.621,0,0,1,.619.619.617.617,0,0,1-1.217.144l-.825-.289-1.61.846-6.108,7.7v.041a.621.621,0,0,1-.619.619Zm-.764,7.945L48.1,65.9a1.017,1.017,0,0,1,.1.33.621.621,0,0,1-.619.619.619.619,0,1,1,0-1.238h.062l2.146-3.467V57.876a.619.619,0,0,1,.268-1.176.635.635,0,0,1,.619.619.621.621,0,0,1-.351.557v4.437Zm13.1-15.229-.041,12.959a.607.607,0,0,1,.289.516.621.621,0,0,1-.619.619.635.635,0,0,1-.619-.619.6.6,0,0,1,.413-.578l.041-12.9a.619.619,0,0,1,.268-1.176.635.635,0,0,1,.619.619A.621.621,0,0,1,63.43,47.064Zm.124,16.1a.619.619,0,0,1-1.176.268H52.41c-.33.6-1.011,1.8-1.4,2.5a.556.556,0,0,1,.1.31.621.621,0,0,1-.619.619.619.619,0,1,1,0-1.238h.062c.5-.908,1.465-2.6,1.465-2.6l.083-.144H62.377a.619.619,0,0,1,1.176.268ZM47.6,60.477a.642.642,0,0,1,.31-.537l.165-4.333,1.073-2.992,7.429-8.729L59.757,42.4l2.868,1.2a.628.628,0,0,1,1.052.454.635.635,0,0,1-.619.619.626.626,0,0,1-.619-.557L59.757,43,56.868,44.36,49.6,52.924l-.99,2.806-.144,4.127a.632.632,0,0,1,.392.578.621.621,0,0,1-.619.619.635.635,0,0,1-.619-.619Zm.537,7.676,1.4,5.9a.351.351,0,1,1-.351.351.356.356,0,0,1,.186-.31l-1.383-5.9h0a.348.348,0,0,1-.351-.351.351.351,0,1,1,.7,0,.329.329,0,0,1-.165.289Zm1.341-.021,1.4,5.9a.351.351,0,1,1-.351.351.356.356,0,0,1,.186-.31l-1.383-5.9h0a.348.348,0,0,1-.351-.351.351.351,0,1,1,.7,0,.329.329,0,0,1-.165.289Zm1.341,0,1.4,5.9a.351.351,0,1,1-.351.351.356.356,0,0,1,.186-.31l-1.383-5.9h0a.348.348,0,0,1-.351-.351.351.351,0,1,1,.7,0,.329.329,0,0,1-.165.289Zm1.527,0,1.4,5.9a.351.351,0,1,1-.351.351.356.356,0,0,1,.186-.31l-1.383-5.9h0a.348.348,0,0,1-.351-.351.351.351,0,1,1,.7,0,.329.329,0,0,1-.165.289ZM54,56.618H57.59V53.461a.353.353,0,0,1-.268-.33.348.348,0,0,1,.351-.351.362.362,0,0,1,.351.351.353.353,0,0,1-.268.33V56.8H53.979a.353.353,0,0,1-.33.268.348.348,0,0,1-.351-.351.362.362,0,0,1,.351-.351.353.353,0,0,1,.33.268Zm-2.518,4.911a.348.348,0,0,1,.351-.351.353.353,0,0,1,.33.268h8.976a.353.353,0,0,1,.33-.268.348.348,0,0,1,.351.351.362.362,0,0,1-.351.351.353.353,0,0,1-.33-.268H52.163a.353.353,0,0,1-.33.268A.348.348,0,0,1,51.482,61.529Zm5.3,9.141h1.052v9.451L55.4,79.4l-1.4-2h0a.7.7,0,0,1-.1-.268.348.348,0,0,1,.351-.351.362.362,0,0,1,.351.351.348.348,0,0,1-.351.351l1.217,1.754,2.146.64V70.856h-.867a.353.353,0,0,1-.33.268.348.348,0,0,1-.351-.351.362.362,0,0,1,.351-.351.353.353,0,0,1,.33.268Zm.289-2.167a.619.619,0,0,1-1.176.268H54.618l1.63,7.222a.617.617,0,0,1-.144,1.217.635.635,0,0,1-.619-.619.653.653,0,0,1,.227-.475l-1.775-7.883H55.9a.619.619,0,0,1,1.176.268ZM54.1,65.2h9.265l-.062,18.592-3.2,2.621-7.924-2.724-4.725-5.943a.619.619,0,1,1,.619-.619.593.593,0,0,1-.144.371l4.56,5.737L59.984,85.8l2.765-2.27.062-17.788H54.226a.6.6,0,0,1-.6.5.621.621,0,0,1-.619-.619A.635.635,0,0,1,53.628,65a.591.591,0,0,1,.454.206Zm-7.408,9.245a.666.666,0,0,1,.165-.433l-.413-1.8-1.2-6.149,1.816-3.137a.593.593,0,0,1-.144-.371.621.621,0,0,1,.619-.619.635.635,0,0,1,.619.619.621.621,0,0,1-.619.619l-1.733,2.992,1.156,5.943.413,1.733a.621.621,0,0,1-.062,1.238.635.635,0,0,1-.619-.619Zm12.753,7.346V68.566a.353.353,0,0,1-.268-.33.348.348,0,0,1,.351-.351.362.362,0,0,1,.351.351.353.353,0,0,1-.268.33v13.31l-1.073.784-4.56-1.919-2.662-3.281a.34.34,0,0,1-.289-.351.348.348,0,0,1,.351-.351.362.362,0,0,1,.351.351.368.368,0,0,1-.206.33l2.559,3.178L58.5,82.453l.908-.681ZM54.061,58.165a.619.619,0,0,1,1.176-.268H58.6V52.449a.619.619,0,0,1,.268-1.176.635.635,0,0,1,.619.619.621.621,0,0,1-.351.557v5.984H55.217a.619.619,0,0,1-1.176-.268ZM58.5,81.194V69.845a.34.34,0,0,1-.31-.351.348.348,0,0,1,.351-.351.362.362,0,0,1,.351.351.368.368,0,0,1-.206.33V81.463l-4.065-1.568h0l-1.733-2.373.083-.062a.348.348,0,0,1-.351-.351.351.351,0,1,1,.7,0,.331.331,0,0,1-.268.33l1.692,2.291,3.776,1.444ZM56.517,55.4V52.656a.34.34,0,0,1-.289-.351.348.348,0,0,1,.351-.351.362.362,0,0,1,.351.351.353.353,0,0,1-.248.33v2.93h-1.96a.353.353,0,0,1-.33.268.348.348,0,0,1-.351-.351.362.362,0,0,1,.351-.351.353.353,0,0,1,.33.268H56.5Z" transform="translate(-25.997 -27.053)" fill="url(#radial-gradient)"/>
    </g>
  </g>
</svg>
