<svg xmlns="http://www.w3.org/2000/svg" width="114.491" height="108.921" viewBox="0 0 114.491 108.921">
  <g id="FPO_ICONS_-05" transform="translate(0.038 0.11)">
    <g id="Group_3140" data-name="Group 3140" transform="translate(0 31.2)">
      <line id="Line_157" data-name="Line 157" x1="54.822" y2="55.973" transform="translate(5.836 21.425)" fill="none" stroke="#707070" stroke-miterlimit="10" stroke-width="0.61" opacity="0.8"/>
      <line id="Line_158" data-name="Line 158" x1="45.468" y2="19.074" transform="translate(8.303 14.889)" fill="none" stroke="#707070" stroke-miterlimit="10" stroke-width="0.61" opacity="0.8"/>
      <line id="Line_159" data-name="Line 159" x1="55.189" y2="6.969" fill="none" stroke="#707070" stroke-miterlimit="10" stroke-width="0.61" opacity="0.8"/>
    </g>
    <g id="Group_3144" data-name="Group 3144" transform="translate(52.572 0)">
      <g id="Group_3141" data-name="Group 3141" transform="translate(4.585 5.056)">
        <path id="Path_7258" data-name="Path 7258" d="M65.117,38.1A26.127,26.127,0,1,0,91.295,64.177h0A26.266,26.266,0,0,0,65.117,38.1Zm0,50.42A24.285,24.285,0,1,1,89.444,64.277h0A24.423,24.423,0,0,1,65.117,88.52Z" transform="translate(-39.04 -38.1)" fill="#fff"/>
        <path id="Path_7259" data-name="Path 7259" d="M61.54,43.52a17.14,17.14,0,1,0,17.14,17.14A17.114,17.114,0,0,0,61.54,43.52Zm.917,32.346V74.583a.917.917,0,0,0-1.834,0v1.384A15.233,15.233,0,0,1,46.334,61.677h1.384a.917.917,0,1,0,0-1.834H46.334A15.233,15.233,0,0,1,60.623,45.554v1.384a.917.917,0,1,0,1.834,0V45.554A15.233,15.233,0,0,1,76.746,59.843H75.363a.917.917,0,1,0,0,1.834h1.384A15.193,15.193,0,0,1,62.457,75.866Z" transform="translate(-35.463 -34.483)" fill="#fff"/>
        <path id="Path_7260" data-name="Path 7260" d="M63.845,49.409l-9.037,4.052a1.255,1.255,0,0,0-.467.467l-4.052,9.037a.929.929,0,0,0,.834,1.3c.1,0,.283,0,.367-.1l9.037-4.152a1.025,1.025,0,0,0,.467-.367l4.152-9.037a.84.84,0,0,0-.183-1.017.964.964,0,0,0-1.1-.183Zm-8.287,6.453L58.592,58.9l-5.536,2.484,2.484-5.536Zm4.335,1.751-3.035-3.035,5.536-2.584L59.91,57.612Z" transform="translate(-31.598 -30.618)" fill="#fff"/>
      </g>
      <g id="Group_3143" data-name="Group 3143">
        <path id="Path_7261" data-name="Path 7261" d="M76.052,64.99a24.3,24.3,0,0,1-30.062.867" transform="translate(-29.817 -15.099)" fill="none" stroke="#fff" stroke-miterlimit="10" stroke-width="0.89"/>
        <path id="Path_7262" data-name="Path 7262" d="M41.14,65.281A24.349,24.349,0,0,1,42.724,47.19" transform="translate(-33.754 -26.978)" fill="none" stroke="#fff" stroke-miterlimit="10" stroke-width="0.22"/>
        <path id="Path_7263" data-name="Path 7263" d="M52.463,79.085a31.669,31.669,0,0,1-7.6-5.586,30.978,30.978,0,0,1-8.57-16.14" transform="translate(-36.29 -20.191)" fill="none" stroke="#fff" stroke-miterlimit="10" stroke-width="0.22"/>
        <path id="Path_7264" data-name="Path 7264" d="M85.8,55.31A31.229,31.229,0,0,1,54.69,84" transform="translate(-24.011 -21.559)" fill="none" stroke="#fff" stroke-miterlimit="10" stroke-width="0.18"/>
        <path id="Path_7265" data-name="Path 7265" d="M38.01,62.227a27.3,27.3,0,0,1-.15-2.868A27.814,27.814,0,0,1,41.578,45.42" transform="translate(-35.242 -28.159)" fill="none" stroke="#59b935" stroke-miterlimit="10" stroke-width="0.33"/>
        <path id="Path_7266" data-name="Path 7266" d="M73.8,67.88A28.017,28.017,0,0,1,48.61,70.5" transform="translate(-28.068 -13.17)" fill="none" stroke="#59b935" stroke-miterlimit="10" stroke-width="0.33"/>
        <path id="Path_7267" data-name="Path 7267" d="M51.81,41.457a21.844,21.844,0,0,1,4.7-.517,21.446,21.446,0,0,1,9.137,2.034" transform="translate(-25.933 -31.149)" fill="none" stroke="#59b935" stroke-miterlimit="10" stroke-width="0.22"/>
        <path id="Path_7268" data-name="Path 7268" d="M48.243,73.12a21.409,21.409,0,0,1-3.952-25.36" transform="translate(-32.62 -26.597)" fill="none" stroke="#59b935" stroke-miterlimit="10" stroke-width="0.22"/>
        <g id="Group_3142" data-name="Group 3142" transform="translate(0.684)">
          <path id="Path_7269" data-name="Path 7269" d="M48.8,41.261A24.346,24.346,0,0,1,82.464,68.222" transform="translate(-28.625 -32.303)" fill="none" stroke="#fff" stroke-miterlimit="10" stroke-width="1.34"/>
          <path id="Path_7270" data-name="Path 7270" d="M36.7,57.514A31.255,31.255,0,0,1,88.771,44.209a31.278,31.278,0,0,1,5.969,8.337" transform="translate(-36.7 -35.067)" fill="none" stroke="#fff" stroke-miterlimit="10" stroke-width="0.22"/>
          <path id="Path_7271" data-name="Path 7271" d="M69.64,46.31a28,28,0,0,1,2.768,15.34" transform="translate(-14.718 -27.565)" fill="none" stroke="#59b935" stroke-miterlimit="10" stroke-width="0.33"/>
          <path id="Path_7272" data-name="Path 7272" d="M52.87,37.17a28.58,28.58,0,0,1,2.935-.15A27.881,27.881,0,0,1,74.9,44.556" transform="translate(-25.909 -33.765)" fill="none" stroke="#59b935" stroke-miterlimit="10" stroke-width="0.33"/>
          <path id="Path_7273" data-name="Path 7273" d="M74.99,47.13A21.405,21.405,0,0,1,51.58,79.01" transform="translate(-26.77 -27.018)" fill="none" stroke="#59b935" stroke-miterlimit="10" stroke-width="0.22"/>
        </g>
      </g>
    </g>
  </g>
</svg>
