<svg xmlns="http://www.w3.org/2000/svg" width="121.547" height="107.119" viewBox="0 0 121.547 107.119">
  <g id="FPO_ICONS_-07" transform="translate(0.125 0.164)">
    <g id="Group_3150" data-name="Group 3150" transform="translate(0 0)">
      <line id="Line_163" data-name="Line 163" x1="49.103" y1="2.868" transform="translate(12.805 68.344)" fill="none" stroke="#707070" stroke-miterlimit="10" stroke-width="0.61" opacity="0.8"/>
      <line id="Line_164" data-name="Line 164" x1="24.76" y1="38.799" transform="translate(44.118)" fill="none" stroke="#707070" stroke-miterlimit="10" stroke-width="0.61" opacity="0.8"/>
      <line id="Line_165" data-name="Line 165" x1="60.558" y2="27.111" transform="translate(0 79.566)" fill="none" stroke="#707070" stroke-miterlimit="10" stroke-width="0.61" opacity="0.8"/>
    </g>
    <g id="Group_3154" data-name="Group 3154" transform="translate(59.541 39.295)">
      <g id="Group_3151" data-name="Group 3151" transform="translate(4.491 5.056)">
        <path id="Path_7289" data-name="Path 7289" d="M64.375,38.1A26.136,26.136,0,1,0,90.469,64.194h0A26.051,26.051,0,0,0,64.392,38.117h0Zm0,50.42A24.285,24.285,0,1,1,88.618,64.277h0A24.276,24.276,0,0,1,64.375,88.52Z" transform="translate(-38.203 -38.1)" fill="#fff"/>
        <path id="Path_7290" data-name="Path 7290" d="M74.379,58.952H71.244a10.672,10.672,0,0,0-2.668-6.269l2.4-2.4A.911.911,0,1,0,69.793,48.9l-.1.1-2.4,2.4a11.246,11.246,0,0,0-6.353-2.584V45.6a.917.917,0,0,0-1.834,0v3.218A11.615,11.615,0,0,0,52.753,51.4l-2.4-2.4a.886.886,0,0,0-1.284,0h0a.886.886,0,0,0,0,1.284l2.4,2.4A10.687,10.687,0,0,0,48.8,59.036H45.667a.917.917,0,1,0,0,1.834H48.8a11.192,11.192,0,0,0,2.668,6.453L49.252,69.54a.886.886,0,0,0,0,1.284.888.888,0,0,0,1.3,0l2.218-2.218a11.246,11.246,0,0,0,6.353,2.584v3.035a.917.917,0,1,0,1.834,0V71.091a10.644,10.644,0,0,0,6.353-2.668l2.3,2.3a.908.908,0,0,0,1.284-1.284l-2.3-2.3a10.574,10.574,0,0,0,2.584-6.453h3.135a.866.866,0,0,0,.917-.917c.1-.467-.367-.834-.834-.834Zm-4.969-.1-6.636-.1-.1-.267,4.719-4.619a11.466,11.466,0,0,1,2.034,4.969Zm-8.487-8.387A9.369,9.369,0,0,1,65.892,52.5l-4.7,4.6-.283-.1V50.466Zm-1.851,0V57.1a.7.7,0,0,0-.367.183l-4.7-4.7A9.463,9.463,0,0,1,59.072,50.466ZM52.72,53.884l4.7,4.7c-.1.1-.1.283-.183.367H50.6a9.463,9.463,0,0,1,2.118-5.069Zm0,11.988A9.459,9.459,0,0,1,50.6,60.7h6.636l.183.467Zm6.353,3.418A10.04,10.04,0,0,1,54,67.256l4.719-4.719.267.1.1,6.636ZM59.99,60.9a1.017,1.017,0,1,1,1.017-1.017h0A1.032,1.032,0,0,1,59.99,60.9Zm.917,8.387V62.554a.7.7,0,0,0,.367-.183l4.7,4.7a9,9,0,0,1-5.069,2.218Zm6.353-3.5-4.7-4.7.183-.45,6.636.1a9.2,9.2,0,0,1-2.118,5.069h0Z" transform="translate(-33.834 -33.709)" fill="#fff"/>
      </g>
      <g id="Group_3153" data-name="Group 3153">
        <path id="Path_7291" data-name="Path 7291" d="M75.282,64.99a24.3,24.3,0,0,1-30.062.867" transform="translate(-29.03 -15.099)" fill="none" stroke="#fff" stroke-miterlimit="10" stroke-width="0.89"/>
        <path id="Path_7292" data-name="Path 7292" d="M40.37,65.281A24.349,24.349,0,0,1,41.954,47.19" transform="translate(-32.967 -26.978)" fill="none" stroke="#fff" stroke-miterlimit="10" stroke-width="0.22"/>
        <path id="Path_7293" data-name="Path 7293" d="M51.683,79.085a31.669,31.669,0,0,1-7.6-5.586,30.978,30.978,0,0,1-8.57-16.14" transform="translate(-35.51 -20.191)" fill="none" stroke="#fff" stroke-miterlimit="10" stroke-width="0.22"/>
        <path id="Path_7294" data-name="Path 7294" d="M85.023,55.31A31.229,31.229,0,0,1,53.91,84" transform="translate(-23.231 -21.559)" fill="none" stroke="#fff" stroke-miterlimit="10" stroke-width="0.18"/>
        <path id="Path_7295" data-name="Path 7295" d="M37.23,62.227a27.3,27.3,0,0,1-.15-2.868A27.814,27.814,0,0,1,40.8,45.42" transform="translate(-34.462 -28.159)" fill="none" stroke="#59b935" stroke-miterlimit="10" stroke-width="0.33"/>
        <path id="Path_7296" data-name="Path 7296" d="M73.024,67.88A28.017,28.017,0,0,1,47.83,70.5" transform="translate(-27.288 -13.17)" fill="none" stroke="#59b935" stroke-miterlimit="10" stroke-width="0.33"/>
        <path id="Path_7297" data-name="Path 7297" d="M51.03,41.457a21.844,21.844,0,0,1,4.7-.517,21.446,21.446,0,0,1,9.137,2.034" transform="translate(-25.153 -31.149)" fill="none" stroke="#59b935" stroke-miterlimit="10" stroke-width="0.22"/>
        <path id="Path_7298" data-name="Path 7298" d="M47.463,73.12a21.41,21.41,0,0,1-3.952-25.36" transform="translate(-31.84 -26.597)" fill="none" stroke="#59b935" stroke-miterlimit="10" stroke-width="0.22"/>
        <g id="Group_3152" data-name="Group 3152" transform="translate(0.684)">
          <path id="Path_7299" data-name="Path 7299" d="M48.02,41.261A24.346,24.346,0,0,1,81.684,68.222" transform="translate(-27.845 -32.303)" fill="none" stroke="#fff" stroke-miterlimit="10" stroke-width="1.34"/>
          <path id="Path_7300" data-name="Path 7300" d="M35.92,57.514A31.255,31.255,0,0,1,87.991,44.209a31.277,31.277,0,0,1,5.969,8.337" transform="translate(-35.92 -35.067)" fill="none" stroke="#fff" stroke-miterlimit="10" stroke-width="0.22"/>
          <path id="Path_7301" data-name="Path 7301" d="M68.87,46.31a28,28,0,0,1,2.768,15.34" transform="translate(-13.931 -27.565)" fill="none" stroke="#59b935" stroke-miterlimit="10" stroke-width="0.33"/>
          <path id="Path_7302" data-name="Path 7302" d="M52.09,37.17a28.58,28.58,0,0,1,2.935-.15,27.881,27.881,0,0,1,19.091,7.536" transform="translate(-25.129 -33.765)" fill="none" stroke="#59b935" stroke-miterlimit="10" stroke-width="0.33"/>
          <path id="Path_7303" data-name="Path 7303" d="M74.209,47.13A21.405,21.405,0,0,1,50.8,79.01" transform="translate(-25.99 -27.018)" fill="none" stroke="#59b935" stroke-miterlimit="10" stroke-width="0.22"/>
        </g>
      </g>
    </g>
  </g>
</svg>
