<svg xmlns="http://www.w3.org/2000/svg" width="286.668" height="86.474" viewBox="0 0 286.668 86.474">
  <g id="FPO_ICONS_-02" transform="translate(0.028 0.11)">
    <g id="Group_3131" data-name="Group 3131" transform="translate(0.001 0)">
      <g id="Group_3126" data-name="Group 3126" transform="translate(0 36.536)">
        <line id="Line_147" data-name="Line 147" y1="7.153" x2="77.231" fill="none" stroke="#707070" stroke-miterlimit="10" stroke-width="0.61" opacity="0.8"/>
        <line id="Line_148" data-name="Line 148" x1="36.081" y2="23.026" transform="translate(46.669 11.555)" fill="none" stroke="#707070" stroke-miterlimit="10" stroke-width="0.61" opacity="0.8"/>
        <line id="Line_149" data-name="Line 149" x1="14.823" y2="28.211" transform="translate(75.481 21.475)" fill="none" stroke="#707070" stroke-miterlimit="10" stroke-width="0.61" opacity="0.8"/>
      </g>
      <g id="Group_3130" data-name="Group 3130" transform="translate(76.681)">
        <g id="Group_3127" data-name="Group 3127" transform="translate(4.485 4.956)">
          <path id="Path_7213" data-name="Path 7213" d="M65.387,88.46A24.24,24.24,0,1,1,89.63,64.134,24.261,24.261,0,0,1,65.387,88.46m0-50.42A26.077,26.077,0,1,0,91.464,64.117,26.051,26.051,0,0,0,65.387,38.04" transform="translate(-39.31 -38.04)" fill="#fff"/>
          <path id="Path_7214" data-name="Path 7214" d="M50.471,73.779l3.135-6.536H65.593l3.135,6.536H50.487Zm7.736-16.59a.537.537,0,0,0,.1-.367V46.134h2.4V56.822c0,.1,0,.283.1.367l3.868,8.1H54.439l3.785-8.1Zm4.335-.55v-10.5h.1a.917.917,0,1,0,0-1.834H56.373a.917.917,0,1,0,0,1.834h.1V56.555l-8.287,17.69a1,1,0,0,0,.1.917.937.937,0,0,0,.734.467H70.028a.792.792,0,0,0,.734-.467,1.125,1.125,0,0,0,.1-.917L62.575,56.638Z" transform="translate(-33.43 -33.862)" fill="#fff"/>
        </g>
        <g id="Group_3129" data-name="Group 3129">
          <path id="Path_7215" data-name="Path 7215" d="M76.382,64.99a24.3,24.3,0,0,1-30.062.867" transform="translate(-30.147 -15.099)" fill="none" stroke="#fff" stroke-miterlimit="10" stroke-width="0.89"/>
          <path id="Path_7216" data-name="Path 7216" d="M41.47,65.281A24.349,24.349,0,0,1,43.054,47.19" transform="translate(-34.084 -26.978)" fill="none" stroke="#fff" stroke-miterlimit="10" stroke-width="0.22"/>
          <path id="Path_7217" data-name="Path 7217" d="M52.793,79.085a31.669,31.669,0,0,1-7.6-5.586,30.978,30.978,0,0,1-8.57-16.14" transform="translate(-36.62 -20.191)" fill="none" stroke="#fff" stroke-miterlimit="10" stroke-width="0.22"/>
          <path id="Path_7218" data-name="Path 7218" d="M86.123,55.31A31.229,31.229,0,0,1,55.01,84" transform="translate(-24.348 -21.559)" fill="none" stroke="#fff" stroke-miterlimit="10" stroke-width="0.18"/>
          <path id="Path_7219" data-name="Path 7219" d="M38.34,62.227a27.3,27.3,0,0,1-.15-2.868A27.814,27.814,0,0,1,41.908,45.42" transform="translate(-35.572 -28.159)" fill="none" stroke="#59b935" stroke-miterlimit="10" stroke-width="0.33"/>
          <path id="Path_7220" data-name="Path 7220" d="M74.134,67.88A28.017,28.017,0,0,1,48.94,70.5" transform="translate(-28.398 -13.17)" fill="none" stroke="#59b935" stroke-miterlimit="10" stroke-width="0.33"/>
          <path id="Path_7221" data-name="Path 7221" d="M52.13,41.457a21.844,21.844,0,0,1,4.7-.517,21.446,21.446,0,0,1,9.137,2.034" transform="translate(-26.27 -31.149)" fill="none" stroke="#59b935" stroke-miterlimit="10" stroke-width="0.22"/>
          <path id="Path_7222" data-name="Path 7222" d="M48.573,73.12a21.41,21.41,0,0,1-3.952-25.36" transform="translate(-32.95 -26.597)" fill="none" stroke="#59b935" stroke-miterlimit="10" stroke-width="0.22"/>
          <g id="Group_3128" data-name="Group 3128" transform="translate(0.684)">
            <path id="Path_7223" data-name="Path 7223" d="M49.12,41.261A24.346,24.346,0,0,1,82.784,68.222" transform="translate(-28.962 -32.303)" fill="none" stroke="#fff" stroke-miterlimit="10" stroke-width="1.34"/>
            <path id="Path_7224" data-name="Path 7224" d="M37.03,57.514A31.255,31.255,0,0,1,89.1,44.209a31.277,31.277,0,0,1,5.969,8.337" transform="translate(-37.03 -35.067)" fill="none" stroke="#fff" stroke-miterlimit="10" stroke-width="0.22"/>
            <path id="Path_7225" data-name="Path 7225" d="M69.97,46.31a28,28,0,0,1,2.768,15.34" transform="translate(-15.048 -27.565)" fill="none" stroke="#59b935" stroke-miterlimit="10" stroke-width="0.33"/>
            <path id="Path_7226" data-name="Path 7226" d="M53.2,37.17a28.58,28.58,0,0,1,2.935-.15,27.881,27.881,0,0,1,19.091,7.536" transform="translate(-26.239 -33.765)" fill="none" stroke="#59b935" stroke-miterlimit="10" stroke-width="0.33"/>
            <path id="Path_7227" data-name="Path 7227" d="M75.31,47.13A21.405,21.405,0,0,1,51.9,79.01" transform="translate(-27.107 -27.018)" fill="none" stroke="#59b935" stroke-miterlimit="10" stroke-width="0.22"/>
          </g>
        </g>
      </g>
    </g>
    <line id="Line_150" data-name="Line 150" x2="122.867" y2="9.737" transform="translate(163.75 16.878)" fill="none" stroke="#707070" stroke-miterlimit="10" stroke-width="0.61" opacity="0.8"/>
  </g>
</svg>
