<svg xmlns="http://www.w3.org/2000/svg" width="156.948" height="120.75" viewBox="0 0 156.948 120.75">
  <g id="FPO_ICONS_-06" transform="translate(0.204 0.227)">
    <g id="Group_3145" data-name="Group 3145" transform="translate(-0.001 0)">
      <line id="Line_160" data-name="Line 160" x1="60.525" y1="54.322" fill="none" stroke="#707070" stroke-miterlimit="10" stroke-width="0.61" opacity="0.8"/>
      <line id="Line_161" data-name="Line 161" x1="43.184" y2="27.561" transform="translate(12.939 92.704)" fill="none" stroke="#707070" stroke-miterlimit="10" stroke-width="0.61" opacity="0.8"/>
      <line id="Line_162" data-name="Line 162" y1="27.578" x2="43.184" transform="translate(113.396 27.144)" fill="none" stroke="#707070" stroke-miterlimit="10" stroke-width="0.61" opacity="0.8"/>
    </g>
    <g id="Group_3149" data-name="Group 3149" transform="translate(54.922 40.946)">
      <g id="Group_3146" data-name="Group 3146" transform="translate(4.387 4.99)">
        <path id="Path_7274" data-name="Path 7274" d="M63.947,37.52A26.207,26.207,0,0,0,39.27,72.568,25.034,25.034,0,0,0,55.06,88.324,26.266,26.266,0,0,0,90.024,63.7h0A26.009,26.009,0,0,0,63.947,37.52h0Zm0,50.42A24.353,24.353,0,0,1,41.137,55.01,23.189,23.189,0,0,1,56.143,40.555C72.9,35.419,88.19,47.774,88.19,63.614h0A24.283,24.283,0,0,1,63.947,87.94Z" transform="translate(-37.771 -37.52)" fill="#fff"/>
        <path id="Path_7275" data-name="Path 7275" d="M70.755,50.686a4.718,4.718,0,0,0-1.567.283l-5.8-3.418a3.5,3.5,0,0,0-7,0,3.686,3.686,0,0,0,.183,1.017l-4.418,3.785a2.542,2.542,0,0,0-1.384-.367A2.65,2.65,0,0,0,48.1,54.838a2.809,2.809,0,0,0,.734,1.851l-1.567-.834a.911.911,0,0,0-1.284.367l-1.567,2.668c-.417.7.233,1.634,1.317,1.434.017,0,.033-.017.05-.033l1.4-2.334L49.4,59.239,48.3,61.09a.911.911,0,0,0,.367,1.284.675.675,0,0,0,.467.1.966.966,0,0,0,.834-.467L51.43,59.34a.911.911,0,0,0-.367-1.284l-1.017-.55a1.477,1.477,0,0,0,.65.1,2.72,2.72,0,0,0,2.768-2.768,3.445,3.445,0,0,0-.183-.917l4.235-3.6a3.5,3.5,0,0,0,4.969-.283,1.76,1.76,0,0,0,.367-.55l4.785,2.768a4.2,4.2,0,0,0-.917,2.584A4.071,4.071,0,0,0,68.1,57.872l-5.536,7.1a4.549,4.549,0,0,0-5.336,7.37,11.219,11.219,0,0,0,1.017.55H52.814c-.6,1.034-.183,1.851.634,1.851H67.087c.6-1.034.183-1.851-.634-1.851H61.568a4.5,4.5,0,0,0,2.584-5.8,1.546,1.546,0,0,0-.367-.65l5.9-7.553a4.156,4.156,0,0,0,4.969-2.851,4.086,4.086,0,0,0-2.851-4.969.8.8,0,0,0-1.017-.367h0ZM59.884,71.144a2.782,2.782,0,0,1-2.168-4.385,1.785,1.785,0,0,1,.434-.434,2.734,2.734,0,1,1,1.734,4.819Zm-9.22-15.573a.935.935,0,0,1-.367-1.834h.367a1,1,0,0,1,.734,1.1A.864.864,0,0,1,50.663,55.571Zm9.22-6.353A1.7,1.7,0,0,1,58.55,46.5a1.015,1.015,0,0,1,.267-.267,1.689,1.689,0,0,1,2.718,1.334,1.644,1.644,0,0,1-1.651,1.651Zm10.871,7.653a2.218,2.218,0,1,1,2.218-2.218h0a2.2,2.2,0,0,1-2.218,2.218Z" transform="translate(-33.425 -33.162)" fill="#fff"/>
      </g>
      <g id="Group_3148" data-name="Group 3148">
        <path id="Path_7276" data-name="Path 7276" d="M74.9,64.45a24.3,24.3,0,0,1-30.062.867" transform="translate(-28.667 -14.559)" fill="none" stroke="#fff" stroke-miterlimit="10" stroke-width="0.89"/>
        <path id="Path_7277" data-name="Path 7277" d="M39.99,64.741A24.349,24.349,0,0,1,41.574,46.65" transform="translate(-32.604 -26.438)" fill="none" stroke="#fff" stroke-miterlimit="10" stroke-width="0.22"/>
        <path id="Path_7278" data-name="Path 7278" d="M51.313,78.545a31.669,31.669,0,0,1-7.6-5.586,30.978,30.978,0,0,1-8.57-16.14" transform="translate(-35.14 -19.651)" fill="none" stroke="#fff" stroke-miterlimit="10" stroke-width="0.22"/>
        <path id="Path_7279" data-name="Path 7279" d="M84.653,54.77A31.229,31.229,0,0,1,53.54,83.465" transform="translate(-22.861 -21.019)" fill="none" stroke="#fff" stroke-miterlimit="10" stroke-width="0.18"/>
        <path id="Path_7280" data-name="Path 7280" d="M36.86,61.7a27.3,27.3,0,0,1-.15-2.868A27.814,27.814,0,0,1,40.428,44.89" transform="translate(-34.092 -27.612)" fill="none" stroke="#59b935" stroke-miterlimit="10" stroke-width="0.33"/>
        <path id="Path_7281" data-name="Path 7281" d="M72.654,67.34A28.017,28.017,0,0,1,47.46,69.958" transform="translate(-26.918 -12.63)" fill="none" stroke="#59b935" stroke-miterlimit="10" stroke-width="0.33"/>
        <path id="Path_7282" data-name="Path 7282" d="M50.66,40.927a21.844,21.844,0,0,1,4.7-.517A21.446,21.446,0,0,1,64.5,42.444" transform="translate(-24.783 -30.602)" fill="none" stroke="#59b935" stroke-miterlimit="10" stroke-width="0.22"/>
        <path id="Path_7283" data-name="Path 7283" d="M47.093,72.58a21.409,21.409,0,0,1-3.952-25.36" transform="translate(-31.47 -26.057)" fill="none" stroke="#59b935" stroke-miterlimit="10" stroke-width="0.22"/>
        <g id="Group_3147" data-name="Group 3147" transform="translate(0.684)">
          <path id="Path_7284" data-name="Path 7284" d="M47.65,40.721A24.346,24.346,0,0,1,81.314,67.682" transform="translate(-27.475 -31.763)" fill="none" stroke="#fff" stroke-miterlimit="10" stroke-width="1.34"/>
          <path id="Path_7285" data-name="Path 7285" d="M35.55,56.974A31.255,31.255,0,0,1,87.621,43.669a31.277,31.277,0,0,1,5.969,8.337" transform="translate(-35.55 -34.528)" fill="none" stroke="#fff" stroke-miterlimit="10" stroke-width="0.22"/>
          <path id="Path_7286" data-name="Path 7286" d="M68.49,45.77a28,28,0,0,1,2.768,15.34" transform="translate(-13.568 -27.025)" fill="none" stroke="#59b935" stroke-miterlimit="10" stroke-width="0.33"/>
          <path id="Path_7287" data-name="Path 7287" d="M51.72,36.63a28.58,28.58,0,0,1,2.935-.15,27.881,27.881,0,0,1,19.091,7.536" transform="translate(-24.759 -33.225)" fill="none" stroke="#59b935" stroke-miterlimit="10" stroke-width="0.33"/>
          <path id="Path_7288" data-name="Path 7288" d="M73.839,46.59A21.405,21.405,0,0,1,50.43,78.47" transform="translate(-25.62 -26.478)" fill="none" stroke="#59b935" stroke-miterlimit="10" stroke-width="0.22"/>
        </g>
      </g>
    </g>
  </g>
</svg>
