<svg xmlns="http://www.w3.org/2000/svg" xmlns:xlink="http://www.w3.org/1999/xlink" width="172.048" height="73.961" viewBox="0 0 172.048 73.961">
  <defs>
    <clipPath id="clip-path">
      <rect id="Rectangle_7789" data-name="Rectangle 7789" width="172.048" height="73.961" fill="none"/>
    </clipPath>
  </defs>
  <g id="Group_3068" data-name="Group 3068" transform="translate(0 0)">
    <g id="Group_3067" data-name="Group 3067" transform="translate(0 0)" clip-path="url(#clip-path)">
      <path id="Path_7026" data-name="Path 7026" d="M153.137,66.507a28.551,28.551,0,1,1,28.55-28.659,28.584,28.584,0,0,1-28.55,28.659m0-59.38a30.721,30.721,0,1,0,30.721,30.721A30.693,30.693,0,0,0,153.137,7.127" transform="translate(-18.035 -1.05)" fill="#fff"/>
      <path id="Path_7027" data-name="Path 7027" d="M145.488,56.251l3.691-7.707h14.112l3.69,7.707Zm9.118-19.54a.653.653,0,0,0,.108-.434V23.684h2.822V36.277a.653.653,0,0,0,.108.434l4.559,9.553H150.155Zm5.1-.651V23.684h.108a1.085,1.085,0,1,0,0-2.171h-7.381a1.085,1.085,0,1,0,0,2.171h.107V35.951l-9.77,20.843a1.284,1.284,0,0,0,.109,1.085,1.1,1.1,0,0,0,.869.542H168.5a.967.967,0,0,0,.869-.542,1.281,1.281,0,0,0,.108-1.085Z" transform="translate(-21.024 -3.17)" fill="#fff"/>
      <path id="Path_7028" data-name="Path 7028" d="M173.973,69.188a28.648,28.648,0,0,1-35.427,1.005" transform="translate(-20.411 -10.194)" fill="none" stroke="#fff" stroke-miterlimit="10" stroke-width="2.051"/>
      <path id="Path_7029" data-name="Path 7029" d="M126.218,49.5a28.75,28.75,0,0,1,1.861-21.316" transform="translate(-18.413 -4.153)" fill="none" stroke="#fff" stroke-miterlimit="10" stroke-width="0.513"/>
      <path id="Path_7030" data-name="Path 7030" d="M135.271,77.206a36.868,36.868,0,0,1-19.052-25.59" transform="translate(-17.122 -7.605)" fill="none" stroke="#fff" stroke-miterlimit="10" stroke-width="0.513"/>
      <path id="Path_7031" data-name="Path 7031" d="M195.235,46.9a36.787,36.787,0,0,1-36.663,33.8" transform="translate(-23.362 -6.91)" fill="none" stroke="#fff" stroke-miterlimit="10" stroke-width="0.41"/>
      <path id="Path_7032" data-name="Path 7032" d="M120.013,43.927a33.266,33.266,0,0,1-.171-3.378,32.775,32.775,0,0,1,4.38-16.421" transform="translate(-17.656 -3.555)" fill="none" stroke="#62ad41" stroke-miterlimit="10" stroke-width="0.769"/>
      <path id="Path_7033" data-name="Path 7033" d="M174.272,75.841a33,33,0,0,1-29.684,3.067" transform="translate(-21.302 -11.174)" fill="none" stroke="#62ad41" stroke-miterlimit="10" stroke-width="0.769"/>
      <path id="Path_7034" data-name="Path 7034" d="M151.962,14.419a25.33,25.33,0,0,1,16.3,1.792" transform="translate(-22.388 -2.035)" fill="none" stroke="#62ad41" stroke-miterlimit="10" stroke-width="0.513"/>
      <path id="Path_7035" data-name="Path 7035" d="M136.486,59.388a25.236,25.236,0,0,1-4.662-29.876" transform="translate(-18.988 -4.348)" fill="none" stroke="#62ad41" stroke-miterlimit="10" stroke-width="0.513"/>
      <path id="Path_7036" data-name="Path 7036" d="M145.025,12.229a28.665,28.665,0,0,1,39.66,31.751" transform="translate(-21.366 -1.445)" fill="none" stroke="#fff" stroke-miterlimit="10" stroke-width="3.077"/>
      <path id="Path_7037" data-name="Path 7037" d="M117.161,26.709a36.805,36.805,0,0,1,68.35-5.861" transform="translate(-17.261 -0.038)" fill="none" stroke="#fff" stroke-miterlimit="10" stroke-width="0.513"/>
      <path id="Path_7038" data-name="Path 7038" d="M193.044,26.177a32.8,32.8,0,0,1,3.442,14.674,33.362,33.362,0,0,1-.173,3.4" transform="translate(-28.44 -3.857)" fill="none" stroke="#62ad41" stroke-miterlimit="10" stroke-width="0.769"/>
      <path id="Path_7039" data-name="Path 7039" d="M154.406,4.946a33.333,33.333,0,0,1,3.458-.179,32.812,32.812,0,0,1,22.488,8.874" transform="translate(-22.748 -0.703)" fill="none" stroke="#62ad41" stroke-miterlimit="10" stroke-width="0.769"/>
      <path id="Path_7040" data-name="Path 7040" d="M179,28.061a25.235,25.235,0,0,1-27.588,37.566" transform="translate(-22.306 -4.134)" fill="none" stroke="#62ad41" stroke-miterlimit="10" stroke-width="0.513"/>
      <path id="Path_7041" data-name="Path 7041" d="M37.3,66.727a28.552,28.552,0,1,1,28.55-28.55A28.585,28.585,0,0,1,37.3,66.727m0-59.38A30.721,30.721,0,1,0,68.018,38.068,30.693,30.693,0,0,0,37.3,7.347" transform="translate(-0.969 -1.083)" fill="#fff"/>
      <path id="Path_7042" data-name="Path 7042" d="M55,44.624a.978.978,0,0,0-.651.651,1.058,1.058,0,0,0,.108.977A5.2,5.2,0,0,1,55,48.1c0,1.085-.434,2.171-2.714,3.691a7.161,7.161,0,0,0-2.822,4.342h-6.4V48.749a1.154,1.154,0,0,0-.977-1.085,3.81,3.81,0,0,1-3.04-2.5.945.945,0,0,0-.869-.651.875.875,0,0,0-.976.434,3.991,3.991,0,0,1-2.931,1.411,3.689,3.689,0,0,1-3.256-1.845,1.068,1.068,0,0,0-1.52-.326,6.075,6.075,0,0,1-2.931.868,5.982,5.982,0,0,1-2.28-11.507,1.106,1.106,0,0,0,.651-1.3,2.054,2.054,0,0,1-.095-.492,3.918,3.918,0,0,1,3.772-4.285,3.007,3.007,0,0,1,1.425.326.875.875,0,0,0,1.195-.326,3.711,3.711,0,0,1,4.342-1.085.873.873,0,0,0,1.194-.326,3.991,3.991,0,0,1,2.931-1.411A3.819,3.819,0,0,1,42.949,26.5a1.385,1.385,0,0,0,.76.543.845.845,0,0,0,.869-.217,4.042,4.042,0,0,1,2.171-.76,3.854,3.854,0,0,1,3.8,3.365,1.1,1.1,0,0,0,.434.761,1.173,1.173,0,0,0,.869.217c.217,0,.434-.108.651-.108a3.846,3.846,0,0,1,3.8,3.8,3.317,3.317,0,0,1-.761,2.171,1.173,1.173,0,0,0-.217.869,1.255,1.255,0,0,0,.542.76,4.078,4.078,0,0,1,1.846,3.256A4.1,4.1,0,0,1,55,44.624m2.822-8.033a5.115,5.115,0,0,0,.543-2.606,5.931,5.931,0,0,0-5.862-5.97,5.928,5.928,0,0,0-5.646-4.234,7.463,7.463,0,0,0-2.6.543A5.686,5.686,0,0,0,39.8,22.37,5.575,5.575,0,0,0,35.785,24,6.013,6.013,0,0,0,30.14,25.41a5.348,5.348,0,0,0-2.391-.132,6.332,6.332,0,0,0-5.1,6.265v.271a8.156,8.156,0,0,0,3.908,15.306,7.791,7.791,0,0,0,3.148-.651,5.842,5.842,0,0,0,4.559,2.063,5.608,5.608,0,0,0,3.474-1.194,6.108,6.108,0,0,0,3.148,2.279v7.6A1.086,1.086,0,0,0,41.972,58.3H50.44a1.088,1.088,0,0,0,1.085-1.085s.108-2.5,1.845-3.582c1.845-1.194,3.8-2.822,3.691-5.536a4.5,4.5,0,0,0-.326-1.737,6.172,6.172,0,0,0,3.148-5.211,6.643,6.643,0,0,0-2.063-4.559" transform="translate(-2.713 -3.296)" fill="#fff"/>
      <path id="Path_7043" data-name="Path 7043" d="M29.691,32.4a1.1,1.1,0,0,0-.434,1.519A11.58,11.58,0,0,1,30.342,37.5c-2.063,0-4.343,1.628-4.993,2.063a1.166,1.166,0,0,0-.217,1.519.988.988,0,0,0,.869.434,1.543,1.543,0,0,0,.651-.217c1.3-.977,3.583-2.063,4.234-1.52a.988.988,0,0,0,1.194.109.953.953,0,0,0,.543-1.086,22.065,22.065,0,0,0-1.52-6.079,1.009,1.009,0,0,0-1.411-.326" transform="translate(-3.675 -4.751)" fill="#fff"/>
      <path id="Path_7044" data-name="Path 7044" d="M39.082,35.617a1.113,1.113,0,0,0,1.085-1.085c.434-.217,1.3-.543,2.063-.869a1,1,0,0,0,.76-1.194.973.973,0,0,0-.977-.977c-.217,0-.326,0-.434-.108a1.293,1.293,0,0,0-.388-.643,1.1,1.1,0,0,0-1.5.1,1.353,1.353,0,0,0-.281,1.519c-1.3.651-1.52,1.3-1.52,1.519a1.186,1.186,0,0,0,.435,1.3.939.939,0,0,0,.76.434" transform="translate(-5.576 -4.493)" fill="#fff"/>
      <path id="Path_7045" data-name="Path 7045" d="M45.408,37.36a1.166,1.166,0,0,0-1.519.217A5.285,5.285,0,0,0,42.8,40.834a8.6,8.6,0,0,0-4.124.543,1.076,1.076,0,0,0-.543,1.411,1.044,1.044,0,0,0,.977.651.653.653,0,0,0,.434-.108,6.93,6.93,0,0,1,4.777,0,1.086,1.086,0,0,0,1.085-1.845c-.217-.217-1.085-1.085.108-2.714a.868.868,0,0,0-.108-1.411" transform="translate(-5.606 -5.477)" fill="#fff"/>
      <path id="Path_7046" data-name="Path 7046" d="M52.112,36c.108,0,.869.434,2.063,2.28a1.11,1.11,0,0,0,.869.542c.217,0,.434,0,.542-.217a1.067,1.067,0,0,0,.326-1.519c-1.845-2.931-3.256-3.256-3.691-3.256a1.088,1.088,0,0,0-1.085,1.085A1.161,1.161,0,0,0,52.112,36" transform="translate(-7.534 -4.984)" fill="#fff"/>
      <path id="Path_7047" data-name="Path 7047" d="M57.956,42.1a5.076,5.076,0,0,0-3.8,1.411,6.421,6.421,0,0,0-1.085-1.194,1.086,1.086,0,0,0-1.3,1.737c.434.326,1.085,1.194.977,1.628a27.841,27.841,0,0,1-1.3,2.606,2.38,2.38,0,0,0-.326,2.063,4.313,4.313,0,0,0,2.172,2.279.649.649,0,0,0,.434.109,1.044,1.044,0,0,0,.977-.651,1.077,1.077,0,0,0-.543-1.411,1.732,1.732,0,0,1-.977-.977.838.838,0,0,1,.109-.326c.76-1.194,1.411-2.822,1.519-2.931a3.148,3.148,0,0,1,3.04-2.063h.108A1.088,1.088,0,0,0,59.041,43.3,1.189,1.189,0,0,0,57.956,42.1" transform="translate(-7.515 -6.203)" fill="#fff"/>
      <path id="Path_7048" data-name="Path 7048" d="M58.006,69.188a28.648,28.648,0,0,1-35.427,1.005" transform="translate(-3.326 -10.194)" fill="none" stroke="#fff" stroke-miterlimit="10" stroke-width="2.051"/>
      <path id="Path_7049" data-name="Path 7049" d="M10.25,49.5A28.75,28.75,0,0,1,12.11,28.188" transform="translate(-1.328 -4.153)" fill="none" stroke="#fff" stroke-miterlimit="10" stroke-width="0.513"/>
      <path id="Path_7050" data-name="Path 7050" d="M19.3,77.206A36.871,36.871,0,0,1,.252,51.616" transform="translate(-0.037 -7.605)" fill="none" stroke="#fff" stroke-miterlimit="10" stroke-width="0.513"/>
      <path id="Path_7051" data-name="Path 7051" d="M79.268,46.9A36.787,36.787,0,0,1,42.6,80.7" transform="translate(-6.277 -6.91)" fill="none" stroke="#fff" stroke-miterlimit="10" stroke-width="0.41"/>
      <path id="Path_7052" data-name="Path 7052" d="M4.046,43.927a33.265,33.265,0,0,1-.171-3.378,32.775,32.775,0,0,1,4.38-16.421" transform="translate(-0.571 -3.555)" fill="none" stroke="#62ad41" stroke-miterlimit="10" stroke-width="0.769"/>
      <path id="Path_7053" data-name="Path 7053" d="M58.3,75.841A33,33,0,0,1,28.62,78.908" transform="translate(-4.216 -11.174)" fill="none" stroke="#62ad41" stroke-miterlimit="10" stroke-width="0.769"/>
      <path id="Path_7054" data-name="Path 7054" d="M35.994,14.419a25.33,25.33,0,0,1,16.3,1.792" transform="translate(-5.303 -2.035)" fill="none" stroke="#62ad41" stroke-miterlimit="10" stroke-width="0.513"/>
      <path id="Path_7055" data-name="Path 7055" d="M20.519,59.388a25.236,25.236,0,0,1-4.662-29.876" transform="translate(-1.903 -4.348)" fill="none" stroke="#62ad41" stroke-miterlimit="10" stroke-width="0.513"/>
      <path id="Path_7056" data-name="Path 7056" d="M29.057,12.229A28.665,28.665,0,0,1,68.717,43.98" transform="translate(-4.281 -1.445)" fill="none" stroke="#fff" stroke-miterlimit="10" stroke-width="3.077"/>
      <path id="Path_7057" data-name="Path 7057" d="M1.194,26.709a36.805,36.805,0,0,1,68.35-5.861" transform="translate(-0.176 -0.038)" fill="none" stroke="#fff" stroke-miterlimit="10" stroke-width="0.513"/>
      <path id="Path_7058" data-name="Path 7058" d="M77.077,26.177a32.8,32.8,0,0,1,3.442,14.674,33.358,33.358,0,0,1-.173,3.4" transform="translate(-11.355 -3.857)" fill="none" stroke="#62ad41" stroke-miterlimit="10" stroke-width="0.769"/>
      <path id="Path_7059" data-name="Path 7059" d="M38.439,4.946A33.333,33.333,0,0,1,41.9,4.767a32.812,32.812,0,0,1,22.488,8.874" transform="translate(-5.663 -0.703)" fill="none" stroke="#62ad41" stroke-miterlimit="10" stroke-width="0.769"/>
      <path id="Path_7060" data-name="Path 7060" d="M63.03,28.061A25.235,25.235,0,0,1,35.442,65.627" transform="translate(-5.222 -4.134)" fill="none" stroke="#62ad41" stroke-miterlimit="10" stroke-width="0.513"/>
    </g>
  </g>
</svg>
