<svg xmlns="http://www.w3.org/2000/svg" xmlns:xlink="http://www.w3.org/1999/xlink" width="438.703" height="542.787" viewBox="0 0 438.703 542.787">
  <defs>
    <linearGradient id="linear-gradient" x1="0.062" y1="0.363" x2="0.719" y2="0.363" gradientUnits="objectBoundingBox">
      <stop offset="0" stop-color="#fff"/>
      <stop offset="1" stop-color="#fff"/>
    </linearGradient>
  </defs>
  <g id="MISC_details_LWR_RIGHT" transform="translate(-30.997 -35.95)">
    <g id="Group_3073" data-name="Group 3073" opacity="0.23">
      <path id="Path_7073" data-name="Path 7073" d="M437,464.9a204.3,204.3,0,0,1-145.5,60.3V489.6a170.469,170.469,0,0,0,147.4-85.2l30.8,17.8A204.39,204.39,0,0,1,437,464.9ZM144.1,404.5l-30.8,17.9a206.129,206.129,0,0,1-.1-205.9l30.9,17.8a170.612,170.612,0,0,0-22.7,85A167.3,167.3,0,0,0,144.1,404.5Z" fill="url(#linear-gradient)"/>
    </g>
    <g id="Group_3074" data-name="Group 3074">
      <path id="Path_7074" data-name="Path 7074" d="M31.5,325a5.471,5.471,0,0,0,4.6,5.3A256.075,256.075,0,0,0,275.9,574.8l-.1,3.3,16-3.8L276,569.6l-.1,3.2c-129.1-8-232.2-113.4-237.7-242.4a5.5,5.5,0,0,0,4.4-5.5,5.573,5.573,0,0,0-5.7-5.4A5.225,5.225,0,0,0,31.5,325Z" fill="none" stroke="#fff" stroke-miterlimit="10" stroke-width="1" opacity="0.68"/>
    </g>
    <path id="Path_7075" data-name="Path 7075" d="M242.9,61.8a14.849,14.849,0,1,0,0-21A14.847,14.847,0,0,0,242.9,61.8Z" fill="none" stroke="#fff" stroke-miterlimit="10" stroke-width="1" opacity="0.3"/>
    <path id="Path_7076" data-name="Path 7076" d="M126.8,388.5l-12,5.1c.1.1.1.3.2.4l12-5.1C126.9,388.8,126.9,388.7,126.8,388.5Zm8.2,16.9-11.4,6.3c.1.1.1.3.2.4l11.4-6.3A.758.758,0,0,0,135,405.4Zm-4.3-8.3L119,402.8c.1.1.1.3.2.4l11.7-5.7C130.8,397.3,130.8,397.2,130.7,397.1Zm27.9,41.3-9.7,8.7.3.3,9.7-8.7Zm2.1,2.3-9.5,8.9.3.3L161,441Zm-4.2-4.6-9.8,8.6.3.3,9.8-8.6Zm8.7,9.3-.2-.2-9.2,9.2.2.2.2.2,9.2-9.2Zm-2.4-2.4-9.4,9.1.3.3,9.4-9.1Zm-19.6-24.3L132.4,426a.52.52,0,0,1,.2.4l10.8-7.3C143.3,419,143.3,418.8,143.2,418.7Zm-5.1-7.9-11.2,6.7a.758.758,0,0,1,.2.4l11.2-6.7A.758.758,0,0,0,138.1,410.8Zm12.4,18-10.3,8,.3.3,10.3-8Q150.65,429.1,150.5,428.8Zm-3.7-5-10.6,7.7a1.381,1.381,0,0,1,.3.4l10.6-7.7C146.9,424.1,146.9,424,146.8,423.8Zm5.7,7.5-10.1,8.2.3.3,10.1-8.2Zm2,2.4-10,8.4.3.3,10-8.4C154.6,433.9,154.6,433.8,154.5,433.7Zm155.7,63.2,1.4,13h.4l-1.4-13C310.5,496.8,310.4,496.8,310.2,496.9Zm-6.2.5.9,13h.4l-.9-13Zm-6.2.3.5,13h.4l-.5-13Zm-98.5-25.5-6.7,11.2a.758.758,0,0,0,.4.2l6.7-11.2A.519.519,0,0,0,199.3,472.2Zm2.7,1.5L195.5,485c.1.1.3.1.4.2l6.5-11.3A.759.759,0,0,1,202,473.7Zm2.7,1.6-6.3,11.4c.1.1.3.1.4.2l6.3-11.4C205,475.4,204.9,475.4,204.7,475.3ZM194,468.8l-7.1,10.9a.52.52,0,0,0,.4.2l7.1-10.9C194.3,469,194.2,468.9,194,468.8Zm2.7,1.7-6.9,11.1a.52.52,0,0,0,.4.2l6.9-11.1A.52.52,0,0,1,196.7,470.5Zm13.6,7.7-5.9,11.6c.1.1.3.1.4.2l5.9-11.6A.52.52,0,0,1,210.3,478.2Zm11.3,5.3-5.1,12c.1.1.3.1.4.2l5.1-12C221.8,483.6,221.7,483.6,221.6,483.5Zm-2.9-1.2-5.3,11.9c.1.1.3.1.4.2l5.3-11.9A.758.758,0,0,0,218.7,482.3Zm-27.3-15.2-7.3,10.8a.52.52,0,0,0,.4.2l7.3-10.8C191.7,467.3,191.6,467.2,191.4,467.1ZM213,479.6l-5.7,11.7c.1.1.3.1.4.2l5.7-11.7C213.3,479.8,213.2,479.7,213,479.6Zm2.9,1.4-5.5,11.8c.1.1.3.1.4.2l5.5-11.8C216.1,481.1,216,481,215.9,481Zm-44.1-29.3-8.7,9.7.3.3,8.7-9.7Zm4.7,4.1-8.4,10,.3.3,8.4-10Zm-2.4-2-8.6,9.8.3.3,8.6-9.8Q174.25,453.8,174.1,453.8Zm-4.6-4.2-8.9,9.5.3.3,8.9-9.5Zm19.4,15.7L181.4,476a1.38,1.38,0,0,0,.4.3l7.5-10.7A1.38,1.38,0,0,1,188.9,465.3Zm-2.6-1.8-7.7,10.6a1.38,1.38,0,0,0,.4.3l7.7-10.6C186.6,463.7,186.4,463.6,186.3,463.5Zm-5-3.8-8,10.3.3.3,8-10.3Q181.6,459.85,181.3,459.7Zm-2.4-1.9-8.2,10.1.3.3,8.2-10.1Zm78.5,36.7-2.5,12.8c.1,0,.3.1.4.1l2.5-12.8A.6.6,0,0,0,257.4,494.5Zm9.2,1.5-1.8,12.9a.6.6,0,0,1,.4.1l1.8-12.9A.756.756,0,0,1,266.6,496Zm18.7,1.7-.5,13h.4l.5-13Zm-43.1-6.9-3.6,12.5c.1,0,.3.1.4.1l3.6-12.5A.6.6,0,0,1,242.2,490.8Zm-6-1.8-4,12.4c.1,0,.3.1.4.1l4-12.4A.6.6,0,0,1,236.2,489Zm-3-1L229,500.3c.1,0,.3.1.4.1l4.2-12.3A.756.756,0,0,1,233.2,488Zm-5.8-2.1-4.7,12.2c.1.1.3.1.4.2l4.7-12.2C227.6,486,227.5,485.9,227.4,485.9Zm11.8,4.1-3.8,12.5c.1,0,.3.1.4.1l3.8-12.5A.6.6,0,0,0,239.2,490Zm-8.9-3-4.5,12.3c.1.1.3.1.4.2l4.5-12.3A.758.758,0,0,0,230.3,487Zm21,6.2-2.9,12.7c.1,0,.3.1.4.1l2.9-12.7C251.5,493.3,251.4,493.2,251.3,493.2Zm-6.1-1.5-3.4,12.6c.1,0,.3.1.4.1l3.4-12.6C245.5,491.8,245.3,491.7,245.2,491.7Z" fill="#fff" opacity="0.76"/>
    <path id="Path_7077" data-name="Path 7077" d="M146.8,413.7a170.643,170.643,0,0,1-12.3-22h0a183.527,183.527,0,0,1-8.6-22.5c-1.1-3.5-2-7-2.8-10.5l-12.3,2.9c.8,3.5,1.8,7,2.8,10.5h-.1a184.577,184.577,0,0,0,22.6,48.6,190.981,190.981,0,0,0,25.6,31.2l8.8-9A200.014,200.014,0,0,1,146.8,413.7Z" fill="#fff" opacity="0.34"/>
    <path id="Path_7078" data-name="Path 7078" d="M125.5,423.9l-1.8,1.1c-.4-.6-.7-1.2-1.1-1.8l1.8-1.1A17.393,17.393,0,0,0,125.5,423.9Zm36.2,42.4-1.4,1.6c.5.5,1,.9,1.6,1.4l1.4-1.6C162.8,467.2,162.2,466.8,161.7,466.3Zm-32.8-37.2-1.7,1.2c.4.6.8,1.1,1.2,1.7l1.7-1.2C129.6,430.2,129.3,429.6,128.9,429.1Zm2.3,3.4-1.7,1.2c.4.6.8,1.1,1.2,1.7l1.7-1.2C132,433.6,131.6,433,131.2,432.5Zm-11-17.5-1.8,1c.3.6.7,1.2,1,1.8l1.8-1C120.9,416.2,120.5,415.6,120.2,415Zm32.5,42.8-.2-.2-1.5,1.5.2.2,1.5,1.5,1.5-1.5Zm2.9,2.9-1.4,1.5a19.2,19.2,0,0,0,1.5,1.4l1.4-1.5A19.2,19.2,0,0,1,155.6,460.7Zm3,2.9-1.4,1.5c.5.5,1,.9,1.5,1.4l1.4-1.5A6.73,6.73,0,0,0,158.6,463.6Zm-9-8.9-1.5,1.4a19.2,19.2,0,0,1,1.4,1.5l1.5-1.5Zm-8.2-9.2-1.6,1.3a20.022,20.022,0,0,0,1.4,1.6l1.6-1.4A6.581,6.581,0,0,1,141.4,445.5Zm-5.2-6.4-1.6,1.3c.4.5.9,1.1,1.3,1.6l1.6-1.3A18.26,18.26,0,0,1,136.2,439.1Zm10.6,12.6-1.5,1.4c.5.5.9,1,1.4,1.5l1.5-1.4C147.7,452.7,147.3,452.2,146.8,451.7Zm-8.1-9.4-1.6,1.3c.4.5.9,1.1,1.3,1.6l1.6-1.3C139.6,443.4,139.2,442.9,138.7,442.3Zm5.4,6.4-1.6,1.4c.5.5.9,1,1.4,1.6l1.5-1.4C145,449.7,144.5,449.2,144.1,448.7ZM114.5,404l-1.9.9c.3.6.6,1.3.9,1.9l1.9-.9C115.1,405.3,114.8,404.6,114.5,404Zm-6.6-15.1-1.9.7a15.384,15.384,0,0,0,.8,1.9l1.9-.8C108.4,390.1,108.2,389.5,107.9,388.9ZM253.4,511.7l-.4,2c.7.1,1.4.3,2.1.4l.4-2C254.7,512,254.1,511.8,253.4,511.7Zm-24-6.4-.7,2a15.872,15.872,0,0,1,2,.7l.6-2A14.579,14.579,0,0,1,229.4,505.3Zm3.9,1.3-.6,2c.7.2,1.3.4,2,.6l.6-2C234.6,507,234,506.8,233.3,506.6Zm12,3.3-.5,2c.7.2,1.4.3,2,.5l.5-2C246.6,510.2,246,510.1,245.3,509.9Zm-8-2.1-.6,2c.7.2,1.3.4,2,.6l.6-2C238.6,508.2,238,508,237.3,507.8Zm24.2,5.3-.3,2.1,2.1.3.3-2.1Zm8.2,1.1-.2,2.1a14.923,14.923,0,0,0,2.1.2l.2-2.1A14.922,14.922,0,0,1,269.7,514.2ZM164.8,469l-1.3,1.6c.5.4,1.1.9,1.6,1.3l1.3-1.6C165.9,469.9,165.4,469.5,164.8,469Zm125.5,48.5h2.1v-2.1h-2.1Zm-8.2-2.3-.1,2.1c.7,0,1.4.1,2.1.1l.1-2.1C283.5,515.3,282.8,515.2,282.1,515.2Zm16.6,2.2c.7,0,1.4-.1,2.1-.1l-.1-2.1c-.7,0-1.4.1-2.1.1ZM225.5,504l-.7,2c.7.2,1.3.5,2,.7l.7-2C226.8,504.5,226.1,504.2,225.5,504Zm-40.8-20.2-1.1,1.7a17.4,17.4,0,0,0,1.8,1.1l1.1-1.8A8.106,8.106,0,0,1,184.7,483.8Zm-6.8-4.6-1.2,1.7c.6.4,1.1.8,1.7,1.2l1.2-1.7C179,480,178.5,479.6,177.9,479.2Zm10.3,6.8-1.1,1.8c.6.4,1.2.7,1.8,1.1l1.1-1.8A17.4,17.4,0,0,1,188.2,486Zm-13.6-9.3-1.2,1.7c.6.4,1.1.8,1.7,1.2l1.2-1.7A6.57,6.57,0,0,1,174.6,476.7Zm17.1,11.5-1.1,1.8c.6.4,1.2.7,1.8,1.1l1-1.8A9.9,9.9,0,0,0,191.7,488.2ZM168,471.7l-1.3,1.6c.5.4,1.1.9,1.6,1.3l1.3-1.6A10.1,10.1,0,0,0,168,471.7Zm3.3,2.5-1.3,1.6c.6.4,1.1.9,1.7,1.3l1.3-1.7A6.569,6.569,0,0,1,171.3,474.2Zm10,7.3-1.2,1.7c.6.4,1.2.8,1.7,1.2l1.2-1.7C182.4,482.3,181.9,481.9,181.3,481.5Zm28.8,16.3-.9,1.9c.6.3,1.3.6,1.9.9l.8-1.9A6.08,6.08,0,0,0,210.1,497.8Zm7.6,3.2-.8,1.9c.6.3,1.3.5,1.9.8l.8-1.9C219,501.6,218.4,501.3,217.7,501Zm-3.8-1.6-.8,1.9a15.385,15.385,0,0,0,1.9.8l.8-1.9A15.381,15.381,0,0,1,213.9,499.4Zm7.7,3.2-.7,1.9c.7.2,1.3.5,2,.7l.7-2C222.9,503,222.2,502.8,221.6,502.6ZM199,492.2l-1,1.8c.6.3,1.2.7,1.9,1l1-1.8A11.4,11.4,0,0,1,199,492.2Zm-3.7-2-1,1.8c.6.3,1.2.7,1.8,1l1-1.8A16.182,16.182,0,0,1,195.3,490.2Zm7.3,4-.9,1.9c.6.3,1.2.6,1.9.9l.9-1.9C203.9,494.8,203.2,494.5,202.6,494.2Zm3.7,1.8-.9,1.9c.6.3,1.3.6,1.9.9l.9-1.9C207.6,496.6,207,496.3,206.3,496ZM307,516.9c.7-.1,1.4-.1,2.1-.2l-.2-2.1c-.7.1-1.4.1-2.1.2Zm4.2-.3c.7-.1,1.4-.1,2.1-.2l-.2-2.1c-.7.1-1.4.1-2.1.2Z" fill="#fff" opacity="0.34"/>
    <path id="Path_7079" data-name="Path 7079" d="M137.4,354.9A158.845,158.845,0,0,0,328.3,473.2l1.8,7.7" fill="none" stroke="#fff" stroke-miterlimit="10" stroke-width="1" opacity="0.6"/>
  </g>
</svg>
