<?xml version="1.0" encoding="UTF-8"?>
                            <svg  xmlns="http://www.w3.org/2000/svg" xmlns:xlink="http://www.w3.org/1999/xlink" viewBox="0 0 99 99">
                              <defs>
                                <style>
                                  .uuid-5c72ea6e-1854-4157-ae55-f4063c345f0f {
                                    fill: url(#uuid-fa65095f-d1dc-42f8-bfa6-279ebd7a90d3);
                                  }
                            
                                  .uuid-8c238514-f972-4e3a-bbc8-7b71d43578a3, .uuid-3ded60c7-f78e-4b42-84e1-3f8024433fc1, .uuid-5bf03570-2ff4-4759-9868-34b0a84f3553 {
                                    fill: #fff;
                                  }
                            
                                  .uuid-e72c82ca-4f7f-48df-8b9c-0c4e53473139 {
                                    fill: url(#uuid-f7315d0c-c91e-4d06-b048-eb7977c95697);
                                  }
                            
                                  .uuid-1a94db4c-99dd-406f-b68d-75c77429ccf8 {
                                    fill: url(#uuid-3b4ef18e-75b1-4075-aabb-3259ef60d220);
                                  }
                            
                                  .uuid-cd25ae16-9bbe-4e6b-ae16-d252390bb06c {
                                    stroke-linecap: round;
                                  }
                            
                                  .uuid-cd25ae16-9bbe-4e6b-ae16-d252390bb06c, .uuid-fb8a13cb-2d97-4132-beae-99ff219589b3 {
                                    fill: none;
                                    stroke: #fff;
                                    stroke-miterlimit: 10;
                                  }
                            
                                  .uuid-ac10cfd8-67b4-4b0f-98b8-1dd4d8742dc7 {
                                    fill: url(#uuid-7d8ac7c9-9a7c-4d7f-a4ce-39598cbbabb3);
                                  }
                            
                                  .uuid-5bb0421f-090a-4099-9e4d-99773fc68644, .uuid-5bf03570-2ff4-4759-9868-34b0a84f3553 {
                                    opacity: .25;
                                  }
                            
                                  .uuid-6c94d4a1-560f-4b96-81c8-303ee0d2b0b6 {
                                    opacity: .6;
                                  }
                            
                                  .uuid-eaa771b5-1b31-4fe2-90ca-04ee93154796 {
                                    opacity: .74;
                                  }
                            
                                  .uuid-59b2c0cf-19cf-48df-89cc-4c439f36bf67 {
                                    opacity: .72;
                                  }
                            
                                  .uuid-c0589046-5683-46aa-9d26-4c27887c19fb {
                                    fill: url(#uuid-24ceb795-4dd9-4efd-acec-dd9884556b0d);
                                  }
                            
                                  .uuid-3ded60c7-f78e-4b42-84e1-3f8024433fc1 {
                                    opacity: .91;
                                  }
                                </style>
                                <radialGradient id="uuid-7d8ac7c9-9a7c-4d7f-a4ce-39598cbbabb3" cx="53.3" cy="47.87" fx="53.3" fy="47.87" r="45.52" gradientTransform="translate(0 2.6)" gradientUnits="userSpaceOnUse">
                                  <stop offset="0" stop-color="#fff"/>
                                  <stop offset=".42" stop-color="#fff" stop-opacity=".9"/>
                                  <stop offset=".67" stop-color="#fff" stop-opacity=".58"/>
                                  <stop offset=".9" stop-color="#fff" stop-opacity=".31"/>
                                  <stop offset="1" stop-color="#fff" stop-opacity=".2"/>
                                </radialGradient>
                                <radialGradient id="uuid-24ceb795-4dd9-4efd-acec-dd9884556b0d" cy="47.87" fy="47.87" r="45.52" xlink:href="#uuid-7d8ac7c9-9a7c-4d7f-a4ce-39598cbbabb3"/>
                                <radialGradient id="uuid-fa65095f-d1dc-42f8-bfa6-279ebd7a90d3" cx="53.3" cy="47.87" fx="53.3" fy="47.87" r="45.52" xlink:href="#uuid-7d8ac7c9-9a7c-4d7f-a4ce-39598cbbabb3"/>
                                <radialGradient id="uuid-f7315d0c-c91e-4d06-b048-eb7977c95697" cy="47.87" fy="47.87" r="45.52" xlink:href="#uuid-7d8ac7c9-9a7c-4d7f-a4ce-39598cbbabb3"/>
                                <radialGradient id="uuid-3b4ef18e-75b1-4075-aabb-3259ef60d220" cx="48.55" cy="48.14" fx="48.55" fy="48.14" r="11.47" gradientTransform="matrix(1, 0, 0, 1, 0, 0)" gradientUnits="userSpaceOnUse">
                                  <stop offset="0" stop-color="#e4ebb8" stop-opacity="0"/>
                                  <stop offset="0" stop-color="#e6ecbd" stop-opacity=".08"/>
                                  <stop offset="0" stop-color="#ecf0cd" stop-opacity=".3"/>
                                  <stop offset="0" stop-color="#f5f7e5" stop-opacity=".64"/>
                                  <stop offset="0" stop-color="#fff"/>
                                  <stop offset=".13" stop-color="#e7e7e6" stop-opacity=".89"/>
                                  <stop offset=".41" stop-color="#a9a9a9" stop-opacity=".62"/>
                                  <stop offset=".82" stop-color="#484847" stop-opacity=".19"/>
                                  <stop offset="1" stop-color="#1d1d1b" stop-opacity="0"/>
                                </radialGradient>
                              </defs>
                              <g id="uuid-df1ac49e-8f86-47c9-b7d5-b0bffa2e86ae" data-name="Layer 1"/>
                              <g id="uuid-0818ce0e-fbe4-4283-9e07-40bb47b07982" data-name="Layer 2">
                                <g id="uuid-945e0251-6466-4973-87f0-f73bf0a89d58" data-name="White icon">
                                  <g>
                                    <polyline class="uuid-fb8a13cb-2d97-4132-beae-99ff219589b3" points="52.83 37.55 59.37 33.61 59.61 28.26 54.08 24.9 54.08 24.23 55.13 23.58"/>
                                    <ellipse class="uuid-fb8a13cb-2d97-4132-beae-99ff219589b3" cx="55.43" cy="23.4" rx=".37" ry=".19" transform="translate(-4.64 19.91) rotate(-19.56)"/>
                                  </g>
                                  <g>
                                    <polyline class="uuid-fb8a13cb-2d97-4132-beae-99ff219589b3" points="57.2 39.46 67.93 32.99 67.92 32.1"/>
                                    <ellipse class="uuid-fb8a13cb-2d97-4132-beae-99ff219589b3" cx="67.86" cy="31.85" rx=".36" ry=".19"/>
                                  </g>
                                  <g>
                                    <line class="uuid-fb8a13cb-2d97-4132-beae-99ff219589b3" x1="60.78" y1="41.14" x2="69.22" y2="35.96"/>
                                    <ellipse class="uuid-fb8a13cb-2d97-4132-beae-99ff219589b3" cx="69.52" cy="35.82" rx=".29" ry=".2" transform="translate(-3.27 7.22) rotate(-5.81)"/>
                                  </g>
                                  <g>
                                    <polyline class="uuid-fb8a13cb-2d97-4132-beae-99ff219589b3" points="64.31 43.03 69.69 39.77 72.92 39.7"/>
                                    <ellipse class="uuid-fb8a13cb-2d97-4132-beae-99ff219589b3" cx="73.26" cy="39.71" rx=".32" ry=".22"/>
                                  </g>
                                  <g>
                                    <polyline class="uuid-fb8a13cb-2d97-4132-beae-99ff219589b3" points="68.83 45.4 68.83 45.4 73.94 45.23 78.24 42.66 80.64 42.51"/>
                                    <ellipse class="uuid-fb8a13cb-2d97-4132-beae-99ff219589b3" cx="81.02" cy="42.38" rx=".44" ry=".22"/>
                                  </g>
                                  <g>
                                    <polyline class="uuid-fb8a13cb-2d97-4132-beae-99ff219589b3" points="43.76 38.24 42.36 37.42 42.33 35.55 35.9 31.81 34.06 31.87 32.8 31.05 31.54 31.13"/>
                                    <ellipse class="uuid-fb8a13cb-2d97-4132-beae-99ff219589b3" cx="30.96" cy="31.11" rx=".48" ry=".29"/>
                                  </g>
                                  <g>
                                    <polyline class="uuid-fb8a13cb-2d97-4132-beae-99ff219589b3" points="40.3 40.51 37.96 39.2 38.05 37.41 32.73 34.26 31.15 34.4 30.39 33.88"/>
                                    <ellipse class="uuid-fb8a13cb-2d97-4132-beae-99ff219589b3" cx="30.14" cy="33.79" rx=".31" ry=".22"/>
                                  </g>
                                  <g>
                                    <polyline class="uuid-fb8a13cb-2d97-4132-beae-99ff219589b3" points="37.9 41.78 30.91 37.81 29.45 37.84 25.8 35.67"/>
                                    <ellipse class="uuid-fb8a13cb-2d97-4132-beae-99ff219589b3" cx="25.47" cy="35.55" rx=".43" ry=".27"/>
                                  </g>
                                  <g>
                                    <line class="uuid-fb8a13cb-2d97-4132-beae-99ff219589b3" x1="34.17" y1="43.81" x2="20.63" y2="36.09"/>
                                    <ellipse class="uuid-fb8a13cb-2d97-4132-beae-99ff219589b3" cx="20.21" cy="35.97" rx=".39" ry=".24"/>
                                  </g>
                                  <g>
                                    <polyline class="uuid-fb8a13cb-2d97-4132-beae-99ff219589b3" points="30.82 46.4 26.14 43.8 19.86 43.97 17.9 42.86"/>
                                    <ellipse class="uuid-fb8a13cb-2d97-4132-beae-99ff219589b3" cx="17.6" cy="42.71" rx=".36" ry=".28"/>
                                  </g>
                                  <g>
                                    <polyline class="uuid-fb8a13cb-2d97-4132-beae-99ff219589b3" points="28.37 50.49 24 53.2 23.91 54.11 18.74 57.35"/>
                                    <ellipse class="uuid-fb8a13cb-2d97-4132-beae-99ff219589b3" cx="18.32" cy="57.53" rx=".33" ry=".27"/>
                                  </g>
                                  <g>
                                    <line class="uuid-fb8a13cb-2d97-4132-beae-99ff219589b3" x1="32.06" y1="52.77" x2="29.49" y2="54.41"/>
                                    <ellipse class="uuid-fb8a13cb-2d97-4132-beae-99ff219589b3" cx="29.11" cy="54.57" rx=".41" ry=".28"/>
                                  </g>
                                  <g>
                                    <line class="uuid-fb8a13cb-2d97-4132-beae-99ff219589b3" x1="36.53" y1="55.16" x2="27.5" y2="60.63"/>
                                    <ellipse class="uuid-fb8a13cb-2d97-4132-beae-99ff219589b3" cx="27.1" cy="60.79" rx=".34" ry=".25"/>
                                  </g>
                                  <g>
                                    <polyline class="uuid-fb8a13cb-2d97-4132-beae-99ff219589b3" points="41.28 57.43 33.53 62.25 33.41 65.23 29.94 67.16 29.82 68.04 31.98 70"/>
                                    <ellipse class="uuid-fb8a13cb-2d97-4132-beae-99ff219589b3" cx="32.26" cy="70.17" rx=".43" ry=".26"/>
                                  </g>
                                  <g>
                                    <polyline class="uuid-fb8a13cb-2d97-4132-beae-99ff219589b3" points="44.03 59.23 38.98 62.39 38.89 65.13 37.08 66.16 36.96 69.05 38.33 69.93"/>
                                    <ellipse class="uuid-fb8a13cb-2d97-4132-beae-99ff219589b3" cx="38.57" cy="70.05" rx=".4" ry=".23"/>
                                  </g>
                                  <g>
                                    <polyline class="uuid-fb8a13cb-2d97-4132-beae-99ff219589b3" points="51.64 59.67 57.86 63.18 57.66 64.7"/>
                                    <ellipse class="uuid-fb8a13cb-2d97-4132-beae-99ff219589b3" cx="57.83" cy="64.88" rx=".38" ry=".19"/>
                                  </g>
                                  <g>
                                    <polyline class="uuid-fb8a13cb-2d97-4132-beae-99ff219589b3" points="55.4 57.69 67.47 64.53 68.76 64.5"/>
                                    <ellipse class="uuid-fb8a13cb-2d97-4132-beae-99ff219589b3" cx="69.15" cy="64.45" rx=".36" ry=".19"/>
                                  </g>
                                  <g>
                                    <line class="uuid-fb8a13cb-2d97-4132-beae-99ff219589b3" x1="60.03" y1="55.78" x2="63.39" y2="57.71"/>
                                    <ellipse class="uuid-fb8a13cb-2d97-4132-beae-99ff219589b3" cx="63.77" cy="57.79" rx=".34" ry=".17"/>
                                  </g>
                                  <g>
                                    <line class="uuid-fb8a13cb-2d97-4132-beae-99ff219589b3" x1="64.09" y1="54.04" x2="75.28" y2="60.26"/>
                                    <ellipse class="uuid-fb8a13cb-2d97-4132-beae-99ff219589b3" cx="75.51" cy="60.36" rx=".28" ry=".16"/>
                                  </g>
                                  <g>
                                    <line class="uuid-fb8a13cb-2d97-4132-beae-99ff219589b3" x1="67.87" y1="51.4" x2="73.05" y2="54.38"/>
                                    <ellipse class="uuid-fb8a13cb-2d97-4132-beae-99ff219589b3" cx="73.37" cy="54.53" rx=".33" ry=".15"/>
                                  </g>
                                  <polygon class="uuid-cd25ae16-9bbe-4e6b-ae16-d252390bb06c" points="25.54 49.13 48.79 35.76 73.84 47.85 48.39 61.69 25.54 49.13"/>
                                  <polygon class="uuid-cd25ae16-9bbe-4e6b-ae16-d252390bb06c" points="32.81 48.73 48.85 39.66 65.47 47.8 48.62 56.98 32.81 48.73"/>
                                  <polygon class="uuid-cd25ae16-9bbe-4e6b-ae16-d252390bb06c" points="36.24 48.73 48.73 41.58 61.75 48.03 48.5 55.35 36.24 48.73"/>
                                  <line class="uuid-cd25ae16-9bbe-4e6b-ae16-d252390bb06c" x1="28.29" y1="46.16" x2="30.65" y2="47.46"/>
                                  <line class="uuid-cd25ae16-9bbe-4e6b-ae16-d252390bb06c" x1="30.23" y1="45.08" x2="32.62" y2="46.51"/>
                                  <line class="uuid-cd25ae16-9bbe-4e6b-ae16-d252390bb06c" x1="32.1" y1="43.93" x2="34.46" y2="45.24"/>
                                  <line class="uuid-cd25ae16-9bbe-4e6b-ae16-d252390bb06c" x1="34.05" y1="42.82" x2="36.41" y2="44.13"/>
                                  <line class="uuid-cd25ae16-9bbe-4e6b-ae16-d252390bb06c" x1="36" y1="41.66" x2="38.36" y2="42.97"/>
                                  <line class="uuid-cd25ae16-9bbe-4e6b-ae16-d252390bb06c" x1="38.04" y1="40.49" x2="40.39" y2="41.8"/>
                                  <line class="uuid-cd25ae16-9bbe-4e6b-ae16-d252390bb06c" x1="39.99" y1="39.44" x2="42.34" y2="40.75"/>
                                  <line class="uuid-cd25ae16-9bbe-4e6b-ae16-d252390bb06c" x1="41.94" y1="38.36" x2="44.29" y2="39.67"/>
                                  <line class="uuid-cd25ae16-9bbe-4e6b-ae16-d252390bb06c" x1="43.8" y1="37.19" x2="46.16" y2="38.5"/>
                                  <line class="uuid-cd25ae16-9bbe-4e6b-ae16-d252390bb06c" x1="45.75" y1="36.04" x2="48.11" y2="37.34"/>
                                  <line class="uuid-cd25ae16-9bbe-4e6b-ae16-d252390bb06c" x1="71.62" y1="49.83" x2="69.29" y2="48.48"/>
                                  <line class="uuid-cd25ae16-9bbe-4e6b-ae16-d252390bb06c" x1="69.56" y1="51.12" x2="67.23" y2="49.77"/>
                                  <line class="uuid-cd25ae16-9bbe-4e6b-ae16-d252390bb06c" x1="67.6" y1="52.07" x2="65.26" y2="50.72"/>
                                  <line class="uuid-cd25ae16-9bbe-4e6b-ae16-d252390bb06c" x1="65.63" y1="53.22" x2="63.29" y2="51.88"/>
                                  <line class="uuid-cd25ae16-9bbe-4e6b-ae16-d252390bb06c" x1="63.66" y1="54.3" x2="61.33" y2="52.96"/>
                                  <line class="uuid-cd25ae16-9bbe-4e6b-ae16-d252390bb06c" x1="61.69" y1="55.43" x2="59.36" y2="54.08"/>
                                  <line class="uuid-cd25ae16-9bbe-4e6b-ae16-d252390bb06c" x1="59.72" y1="56.6" x2="57.39" y2="55.25"/>
                                  <line class="uuid-cd25ae16-9bbe-4e6b-ae16-d252390bb06c" x1="57.76" y1="57.65" x2="55.42" y2="56.3"/>
                                  <line class="uuid-cd25ae16-9bbe-4e6b-ae16-d252390bb06c" x1="55.79" y1="58.75" x2="53.46" y2="57.41"/>
                                  <line class="uuid-cd25ae16-9bbe-4e6b-ae16-d252390bb06c" x1="53.82" y1="59.78" x2="51.49" y2="58.43"/>
                                  <line class="uuid-cd25ae16-9bbe-4e6b-ae16-d252390bb06c" x1="51.86" y1="60.9" x2="49.52" y2="59.55"/>
                                  <line class="uuid-cd25ae16-9bbe-4e6b-ae16-d252390bb06c" x1="50.32" y1="37.77" x2="52.8" y2="36.36"/>
                                  <line class="uuid-cd25ae16-9bbe-4e6b-ae16-d252390bb06c" x1="52.45" y1="38.79" x2="54.93" y2="37.38"/>
                                  <line class="uuid-cd25ae16-9bbe-4e6b-ae16-d252390bb06c" x1="54.75" y1="39.81" x2="57.23" y2="38.41"/>
                                  <line class="uuid-cd25ae16-9bbe-4e6b-ae16-d252390bb06c" x1="57.18" y1="40.99" x2="59.66" y2="39.58"/>
                                  <line class="uuid-cd25ae16-9bbe-4e6b-ae16-d252390bb06c" x1="59.59" y1="42.12" x2="62.06" y2="40.71"/>
                                  <line class="uuid-cd25ae16-9bbe-4e6b-ae16-d252390bb06c" x1="61.83" y1="43.2" x2="64.31" y2="41.79"/>
                                  <line class="uuid-cd25ae16-9bbe-4e6b-ae16-d252390bb06c" x1="64.27" y1="44.31" x2="66.74" y2="42.9"/>
                                  <line class="uuid-cd25ae16-9bbe-4e6b-ae16-d252390bb06c" x1="66.85" y1="45.58" x2="69.32" y2="44.18"/>
                                  <line class="uuid-cd25ae16-9bbe-4e6b-ae16-d252390bb06c" x1="69.64" y1="46.84" x2="72.11" y2="45.43"/>
                                  <line class="uuid-cd25ae16-9bbe-4e6b-ae16-d252390bb06c" x1="25.75" y1="50.67" x2="28.22" y2="49.26"/>
                                  <line class="uuid-cd25ae16-9bbe-4e6b-ae16-d252390bb06c" x1="27.62" y1="51.74" x2="30.1" y2="50.33"/>
                                  <line class="uuid-cd25ae16-9bbe-4e6b-ae16-d252390bb06c" x1="29.79" y1="52.81" x2="32.27" y2="51.4"/>
                                  <line class="uuid-cd25ae16-9bbe-4e6b-ae16-d252390bb06c" x1="32.1" y1="53.95" x2="34.58" y2="52.55"/>
                                  <line class="uuid-cd25ae16-9bbe-4e6b-ae16-d252390bb06c" x1="34.28" y1="55.22" x2="36.75" y2="53.81"/>
                                  <line class="uuid-cd25ae16-9bbe-4e6b-ae16-d252390bb06c" x1="36.57" y1="56.47" x2="39.04" y2="55.06"/>
                                  <line class="uuid-cd25ae16-9bbe-4e6b-ae16-d252390bb06c" x1="38.86" y1="57.75" x2="41.34" y2="56.34"/>
                                  <line class="uuid-cd25ae16-9bbe-4e6b-ae16-d252390bb06c" x1="41.46" y1="59.21" x2="43.94" y2="57.8"/>
                                  <line class="uuid-cd25ae16-9bbe-4e6b-ae16-d252390bb06c" x1="44.04" y1="60.55" x2="46.52" y2="59.14"/>
                                  <g id="uuid-7aa688de-9684-4df6-b5e3-dfdba15788a8" data-name="Outer ring">
                                    <path class="uuid-5bf03570-2ff4-4759-9868-34b0a84f3553" d="M90.42,32.56c-.79-1.93-1.73-3.83-2.81-5.68-1.37-2.34-2.93-4.51-4.63-6.49-3.8-4.42-8.36-7.94-13.36-10.48-6.08-3.09-12.81-4.73-19.62-4.76-5.59-.03-11.23,1.02-16.61,3.23-2.01,.82-3.97,1.8-5.89,2.95-2.39,1.43-4.6,3.05-6.61,4.84-3.95,3.5-7.16,7.62-9.58,12.14-3.18,5.94-4.99,12.54-5.28,19.28-.25,5.63,.57,11.34,2.51,16.82,.93,2.61,2.11,5.17,3.56,7.64,1.01,1.72,2.11,3.35,3.31,4.87,3.79,4.86,8.45,8.74,13.62,11.54,5.95,3.23,12.58,5.04,19.33,5.28,5.91,.22,11.91-.77,17.62-3.06,2.12-.85,4.21-1.88,6.24-3.09,2.19-1.31,4.22-2.78,6.1-4.39,4.26-3.66,7.69-8.03,10.23-12.84,3.19-6.05,4.97-12.79,5.17-19.64,.18-6.1-.88-12.29-3.29-18.17Zm-2.31,37.57c-.11,.21-.22,.41-.33,.62-2.47,4.51-5.76,8.63-9.79,12.09-1.85,1.59-3.86,3.05-6.02,4.34-2,1.2-4.07,2.22-6.17,3.05-5.65,2.26-11.59,3.24-17.43,3.02-6.66-.24-13.21-2.02-19.1-5.21-5.12-2.77-9.73-6.61-13.48-11.41-1.18-1.52-2.28-3.13-3.28-4.83-1.43-2.44-2.6-4.96-3.51-7.54-1.93-5.43-2.74-11.09-2.49-16.67,.29-6.65,2.08-13.18,5.22-19.05,2.39-4.47,5.57-8.55,9.48-12.01,1.99-1.76,4.17-3.37,6.53-4.78,1.89-1.13,3.84-2.1,5.82-2.91,5.32-2.18,10.9-3.22,16.43-3.19,6.75,.03,13.41,1.65,19.42,4.7,4.94,2.51,9.44,5.99,13.2,10.36,1.69,1.96,3.23,4.11,4.59,6.42,1.07,1.82,1.99,3.7,2.77,5.6,2.38,5.82,3.44,11.95,3.25,17.99-.2,6.77-1.95,13.43-5.11,19.41Z"/>
                                    <g>
                                      <path class="uuid-8c238514-f972-4e3a-bbc8-7b71d43578a3" d="M70.21,17.61c17.45,11.49,22.28,35.2,10.77,52.85-11.51,17.65-35.06,22.66-52.51,11.17C11.02,70.15,6.19,46.44,17.7,28.79,29.21,11.14,52.76,6.12,70.21,17.61Zm-.23,.36C52.72,6.6,29.43,11.56,18.05,29.02c-11.38,17.46-6.6,40.9,10.66,52.27,17.25,11.36,40.54,6.4,51.92-11.05,11.38-17.46,6.6-40.9-10.65-52.26Z"/>
                                      <g class="uuid-59b2c0cf-19cf-48df-89cc-4c439f36bf67">
                                        <path class="uuid-5bf03570-2ff4-4759-9868-34b0a84f3553" d="M35.76,83.02c-4.52-1.84-8.73-4.64-12.31-8.41-13.58-14.3-13.02-37.16,1.26-50.93l.06-.06-2.9-3.05-.05,.05c-15.96,15.4-16.59,40.94-1.41,56.93,3.94,4.15,8.56,7.25,13.52,9.31l1.83-3.83Z"/>
                                        <path class="uuid-5bf03570-2ff4-4759-9868-34b0a84f3553" d="M49.86,9.37l-.06,4.23c9.37,.07,18.17,3.75,24.78,10.37l2.97-3.01c-7.4-7.4-17.23-11.51-27.7-11.59Z"/>
                                        <path class="uuid-5bf03570-2ff4-4759-9868-34b0a84f3553" d="M73.98,75.57c-3.81,3.68-8.22,6.34-12.89,8l1.14,4.07c5.31-1.85,10.32-4.85,14.64-9.03,6.49-6.26,10.63-14.29,11.96-23.21l-4.15-.61c-1.19,7.98-4.89,15.16-10.7,20.77Z"/>
                                      </g>
                                    </g>
                                    <path class="uuid-3ded60c7-f78e-4b42-84e1-3f8024433fc1" d="M84.84,48.63c0-.2-.01-.4-.02-.6-.09-1.85-.32-3.71-.7-5.55-.01-.07-.03-.13-.04-.19-.22-1.06-.49-2.11-.81-3.15-.7-2.31-1.62-4.51-2.74-6.58-.62-1.15-1.3-2.26-2.03-3.33-1.95-2.83-4.3-5.37-7-7.52-.02-.01-.03-.03-.05-.04-1.52-1.21-3.14-2.3-4.86-3.26-.19-.11-.39-.22-.59-.32-1.2-.64-2.44-1.21-3.71-1.71,0,0-.02,0-.03-.01-3.13-1.23-6.43-2-9.76-2.29-.43-.04-.85-.07-1.28-.09-.56-.03-1.12-.04-1.67-.04-.25,0-.51,0-.76,0-2.06,.04-4.12,.27-6.15,.68-.28,.06-.56,.12-.84,.18-.54,.12-1.07,.26-1.6,.4-2.28,.63-4.5,1.48-6.61,2.55-.1,.05-.2,.11-.31,.16-.38,.2-.74,.39-1.09,.59-.13,.07-.26,.15-.38,.22-.1,.06-.2,.12-.3,.18-.49,.29-.97,.59-1.41,.89-.09,.06-.19,.12-.29,.19-.46,.31-.92,.64-1.36,.96-.09,.07-.18,.14-.27,.21-.45,.34-.89,.69-1.29,1.03-.09,.07-.18,.15-.26,.22-.18,.16-.37,.32-.55,.48-.23,.2-.45,.41-.68,.63-.08,.08-.17,.16-.25,.23-.41,.39-.8,.78-1.17,1.17-.05,.05-.1,.11-.15,.16-.03,.03-.05,.06-.08,.09-.27,.29-.53,.58-.78,.87-.11,.12-.21,.24-.31,.36-.06,.07-.12,.14-.18,.21l-.02,.03-.02,.02c-.35,.42-.7,.86-1.03,1.3-.06,.08-.12,.16-.18,.24l-.02,.03c-.34,.46-.65,.91-.95,1.34-.06,.09-.13,.19-.19,.28-.31,.46-.6,.93-.88,1.4-.06,.1-.12,.19-.17,.29-.28,.48-.54,.96-.79,1.43v.03s-.05,.07-.07,.1c-.03,.06-.06,.12-.09,.18-.24,.47-.48,.96-.72,1.49v.02c-.05,.1-.1,.2-.14,.29-.22,.5-.44,1.02-.64,1.53l-.12,.31c-.21,.55-.39,1.06-.56,1.58-.03,.11-.07,.21-.11,.33-.17,.53-.32,1.07-.47,1.6-.03,.11-.06,.22-.09,.33-.14,.55-.27,1.1-.37,1.62-.02,.08-.03,.15-.05,.23l-.02,.08c-.1,.54-.2,1.08-.29,1.68-.02,.11-.03,.23-.05,.34-.17,1.28-.28,2.56-.32,3.84-.02,.44-.02,.88-.02,1.31,.01,2.4,.27,4.78,.76,7.12,.62,2.99,1.63,5.91,3.02,8.7,.17,.35,.35,.69,.53,1.03,1.12,2.09,2.43,4.04,3.92,5.84,.16,.2,.33,.39,.5,.59,.17,.19,.34,.39,.51,.58,.29,.32,.58,.63,.88,.94,2.54,2.61,5.47,4.83,8.75,6.57,.06,.03,.12,.06,.18,.09s.11,.06,.17,.09c4.84,2.52,10.07,3.85,15.37,3.96,.38,0,.77,.01,1.15,0,.92-.01,1.84-.06,2.76-.14,.43-.04,.85-.08,1.28-.14,.92-.12,1.84-.27,2.76-.47,1.1-.23,2.2-.52,3.28-.86,2.33-.72,4.54-1.67,6.63-2.83,2.1-1.16,4.06-2.53,5.87-4.08,1.57-1.35,3.02-2.84,4.34-4.46,.21-.26,.41-.51,.62-.78,1.26-1.64,2.39-3.41,3.38-5.29,.71-1.35,1.33-2.74,1.85-4.15,1.48-3.95,2.23-8.1,2.26-12.28,0-.43,0-.86-.02-1.29Zm-.32,1.3c-.02,4.13-.77,8.24-2.23,12.15-.52,1.4-1.13,2.77-1.83,4.12-.97,1.85-2.08,3.59-3.32,5.21-.21,.27-.42,.54-.64,.81-1.3,1.6-2.74,3.08-4.3,4.42-1.79,1.54-3.74,2.9-5.82,4.05-2.07,1.14-4.26,2.08-6.56,2.8-1.08,.34-2.16,.62-3.25,.85-.91,.19-1.82,.34-2.73,.46-.42,.06-.85,.1-1.28,.14-1.29,.12-2.58,.16-3.87,.14-5.3-.12-10.55-1.47-15.38-4.01-.06-.03-.12-.06-.18-.09-3.24-1.73-6.15-3.92-8.66-6.5-.3-.31-.59-.62-.88-.94-1.89-2.09-3.52-4.41-4.87-6.93-.18-.34-.36-.67-.53-1.02-1.37-2.76-2.37-5.65-2.99-8.62-.48-2.32-.74-4.68-.75-7.06,0-1.7,.1-3.4,.34-5.1,.02-.11,.03-.23,.05-.34,.09-.59,.18-1.14,.29-1.66l.02-.08c.01-.07,.03-.15,.05-.23,.11-.53,.23-1.07,.37-1.61,.03-.11,.06-.22,.09-.33,.14-.53,.3-1.06,.46-1.58,.04-.11,.07-.22,.11-.33,.16-.51,.34-1.02,.55-1.56l.12-.31c.2-.51,.41-1.02,.63-1.52,.04-.1,.09-.19,.13-.29v-.02c.25-.53,.48-1.01,.72-1.48,.05-.1,.1-.19,.15-.28v-.03c.26-.47,.52-.94,.8-1.42,.06-.1,.11-.19,.17-.29,.27-.46,.56-.93,.87-1.39,.06-.09,.12-.18,.18-.28,.29-.43,.6-.88,.94-1.33l.02-.03c.06-.08,.12-.16,.18-.24,.33-.44,.67-.87,1.02-1.29l.02-.02,.03-.03c.06-.07,.11-.14,.17-.21,.1-.12,.2-.24,.31-.36,.25-.29,.51-.58,.78-.86,.03-.03,.06-.06,.09-.09,.05-.05,.09-.1,.14-.15,.36-.39,.75-.77,1.16-1.16,.08-.08,.16-.15,.24-.23,.22-.21,.45-.42,.68-.62,.18-.16,.36-.32,.54-.47,.08-.07,.17-.15,.26-.22,.4-.34,.84-.69,1.28-1.03,.09-.07,.18-.14,.27-.2,.44-.33,.89-.65,1.35-.96,.09-.06,.18-.12,.28-.18,.44-.3,.92-.59,1.4-.88,.1-.06,.2-.12,.3-.17,.46-.27,.95-.54,1.46-.81,.1-.05,.2-.1,.3-.15,2.09-1.06,4.29-1.91,6.54-2.53,.8-.22,1.62-.41,2.43-.58,2.01-.4,4.05-.63,6.09-.67,.25,0,.5,0,.75,0,.55,0,1.1,.01,1.65,.04,.43,.02,.85,.05,1.28,.09,3.29,.29,6.53,1.05,9.62,2.26,0,0,.02,0,.03,.01,1.26,.49,2.5,1.06,3.71,1.7,1.65,.88,3.22,1.89,4.69,3,.09,.06,.17,.13,.25,.2,.05,.04,.11,.08,.16,.13,.09,.06,.17,.13,.26,.2,.02,.01,.03,.03,.05,.04,2.68,2.14,5.02,4.65,6.96,7.47,.73,1.06,1.41,2.17,2.02,3.31,1.11,2.05,2.02,4.23,2.71,6.51,.32,1.03,.58,2.07,.81,3.12,.24,1.15,.43,2.31,.56,3.47v.13c.09,.69,.14,1.39,.17,2.09,0,.2,.02,.39,.02,.59,.01,.43,.02,.86,.02,1.29Z"/>
                                    <polygon points="79.19 56.98 79.2 56.97 80.17 57.16 80.17 57.17 79.19 56.98"/>
                                    <path d="M69.21,74.51h0v.02l.02-.02h-.02Zm0,0h-.07l.07,.02v-.02Zm5.08-7.37h0Zm.51,3.88l-.02,.07,.05-.04h0l-.03-.03Z"/>
                                    <path d="M69.21,25.11v.02h.02l-.02-.02Zm-.08,0h0Zm5.16,7.37h0Zm.48-3.94l.02,.07,.03-.03-.05-.04Z"/>
                                    <path d="M55.96,82.05h0Zm0,0h0Zm0,0h0Zm0,0h0Zm0,0h0Zm0,0h0Zm0,0h0Zm0,0h0Zm0,0h0Zm0,0h0Zm0,0h0Zm0,0h0Zm0,0h0Zm0,0h0Zm0,0h0Zm0,0h0Zm0,0h0Zm0,0h0Zm0,0h0Zm0,0h0l-.03,.02h.05l-.02-.02Zm.1-.07l-.09,.06h0l.02,.03,.07-.09h0Zm-13.36-2.2h-.02l.02,.02h0v-.02h0Zm3.61,4.67v.06h.1l-.1-.06Zm9.65-2.4h0Zm0,0h0Zm0,0h0Zm0,0h0Zm0,0h0Zm0,0h0Zm0,0h0Zm0,0h0Zm0,0h0Zm0,0h0Zm0,0h0Zm0,0h0Zm0,0h0Zm0,0h0Zm0,0h0Zm0,0h0Zm0,0h0Zm0,0h0Zm0,0h0Z"/>
                                    <path d="M30.29,74.51l.02,.02v-.02h-.02Zm.1,.01h0Zm-5.15-7.38h0Zm-.51,3.88l-.04,.03h0l.05,.04-.02-.07Z"/>
                                    <g>
                                      <path class="uuid-8c238514-f972-4e3a-bbc8-7b71d43578a3" d="M30.84,14.95l1.06,2.03-.07,.03c-11.82,6.46-19.25,18.94-19.32,32.58v.08l-2.28,.07v-.07c0-3.97,.6-7.89,1.78-11.69,1.51-4.9,3.91-9.39,7.13-13.33,3.22-3.97,7.14-7.23,11.65-9.68l.05-.02Zm.86,1.97l-.9-1.77c-4.47,2.44-8.36,5.67-11.56,9.6-3.21,3.93-5.58,8.41-7.1,13.29-1.17,3.77-1.75,7.65-1.77,11.56l2-.06c.1-13.64,7.51-26.13,19.33-32.61Z"/>
                                      <g class="uuid-5bb0421f-090a-4099-9e4d-99773fc68644">
                                        <path class="uuid-8c238514-f972-4e3a-bbc8-7b71d43578a3" d="M47.57,10.27l.07,2.31h-.08c-4.77,.24-9.39,1.38-13.73,3.44h-.07l-1.05-2.02,.07-.04c4.21-1.99,8.69-3.19,13.32-3.59,.46-.03,.93-.07,1.4-.09h.07Z"/>
                                      </g>
                                      <path class="uuid-ac10cfd8-67b4-4b0f-98b8-1dd4d8742dc7" d="M64.54,13.34l-.93,2.12-.07-.04c-1.83-.77-3.72-1.38-5.64-1.84l-.06-.02,.43-2.29,.08,.03c.9,.2,1.78,.46,2.65,.72,1.18,.37,2.34,.81,3.46,1.29l.07,.03Z"/>
                                      <path class="uuid-c0589046-5683-46aa-9d26-4c27887c19fb" d="M68.26,15.15h0c2.1,1.17,4.09,2.54,5.96,4.07,4.05,3.36,7.35,7.46,9.8,12.19,2.45,4.72,3.9,9.79,4.36,15.06,.24,3.13,.14,6.28-.35,9.37l-.02,.07-2.25-.44v-.08c1.21-7.9-.09-15.82-3.76-22.9-3.37-6.47-8.49-11.77-14.82-15.28-.52-.29-1.06-.57-1.61-.84l-.05-.03,.94-2.11,.06,.04c.58,.29,1.18,.6,1.74,.91Z"/>
                                      <path class="uuid-5c72ea6e-1854-4157-ae55-f4063c345f0f" d="M78.56,72.45l1.81,1.41-.03,.04c-.26,.34-.51,.66-.75,.95-1.13,1.39-2.36,2.71-3.66,3.92l-.04,.04-1.48-1.76,.05-.04c1.47-1.39,2.84-2.9,4.06-4.51l.04-.06Z"/>
                                      <g>
                                        <path class="uuid-8c238514-f972-4e3a-bbc8-7b71d43578a3" d="M13.96,60.15v.06c.71,2.36,1.62,4.66,2.75,6.84,2.41,4.63,5.67,8.61,9.7,11.85l.06,.03-1.39,1.84-.05-.03c-.2-.18-.38-.33-.52-.45-4.06-3.36-7.36-7.46-9.81-12.18-1.23-2.34-2.2-4.79-2.92-7.32l-.02-.06,2.2-.58Zm12.3,18.81c-4.01-3.23-7.27-7.22-9.67-11.85-1.12-2.15-2.05-4.46-2.73-6.8l-1.93,.52c.72,2.47,1.7,4.9,2.9,7.21,2.43,4.7,5.73,8.79,9.76,12.13,.14,.13,.3,.25,.47,.38l1.2-1.59Z"/>
                                        <g class="uuid-eaa771b5-1b31-4fe2-90ca-04ee93154796">
                                          <path class="uuid-e72c82ca-4f7f-48df-8b9c-0c4e53473139" d="M72.85,78.45l1.45,1.76-.05,.05c-2.06,1.72-4.33,3.23-6.72,4.5-4.67,2.47-9.69,3.95-14.91,4.39-5.05,.42-10.06-.13-14.91-1.67-2.52-.79-4.96-1.84-7.25-3.11-1.24-.69-2.45-1.47-3.61-2.3l-.07-.04,1.39-1.85,.06,.05c1.06,.76,2.19,1.45,3.32,2.09,10.9,6.06,23.96,6.22,34.94,.41,2.24-1.18,4.37-2.62,6.32-4.22l.06-.05Z"/>
                                        </g>
                                      </g>
                                    </g>
                                    <g class="uuid-6c94d4a1-560f-4b96-81c8-303ee0d2b0b6">
                                      <path class="uuid-8c238514-f972-4e3a-bbc8-7b71d43578a3" d="M18.67,32.41c-2.03,3.74-3.34,7.73-3.9,11.82,0,.02,0,.03,0,.05-.16,1.15-.26,2.31-.3,3.47h-.34l-4.1-.08-1.86-.03-1.67-.03h-.49c.29-6.74,2.1-13.35,5.28-19.29l.43,.24,1.43,.8,1.62,.9,3.6,2,.3,.16Z"/>
                                      <path class="uuid-8c238514-f972-4e3a-bbc8-7b71d43578a3" d="M69.62,9.92l-.22,.44-1.08,2.18-.89,1.63-1.96,3.58-.02,.04-.13,.23v.02l-.04,.04c-2.08-1.07-4.27-1.94-6.52-2.58-.11-.03-.22-.06-.33-.09-.56-.15-1.11-.29-1.62-.4-.11-.03-.23-.05-.34-.07-.21-.04-.41-.09-.62-.13h-.03s-.05-.01-.07-.02c-.17-.03-.34-.06-.51-.09-.07-.01-.13-.02-.2-.03-.07-.01-.13-.02-.2-.03-.04,0-.08-.01-.12-.02-.07-.01-.14-.02-.21-.04-.55-.08-1.1-.15-1.64-.21-.11-.01-.22-.02-.34-.04-.56-.05-1.11-.09-1.64-.11-.12,0-.23-.01-.34-.01-.24-.01-.48-.02-.72-.02v-.34l.04-4.1,.02-1.85,.07-2.25,.02-.49c6.81,.03,13.54,1.67,19.62,4.76Z"/>
                                      <path class="uuid-8c238514-f972-4e3a-bbc8-7b71d43578a3" d="M93.7,50.73c-.2,6.85-1.97,13.59-5.17,19.64l-.43-.24-1.88-1.03-1.63-.89-3.58-1.96-.04-.02-.26-.14-.04-.02c1.08-2.08,1.95-4.26,2.59-6.52,.03-.11,.06-.22,.09-.33,.15-.56,.29-1.11,.4-1.62,.03-.12,.05-.23,.07-.34,.09-.42,.17-.83,.24-1.23,.01-.07,.02-.13,.04-.2,.01-.07,.02-.13,.03-.2,0-.04,.01-.08,.02-.12,.01-.07,.02-.14,.04-.21,.08-.55,.16-1.1,.21-1.64,.01-.11,.02-.23,.04-.34,.05-.56,.09-1.11,.12-1.64,0-.12,.01-.23,.01-.34,.01-.24,.02-.48,.02-.72h.34l4.1,.05,1.85,.02,2.32,.02h.49Z"/>
                                      <path class="uuid-8c238514-f972-4e3a-bbc8-7b71d43578a3" d="M48.59,85.29v.34l-.12,4.1-.05,1.85-.05,1.67v.49c-6.76-.24-13.39-2.05-19.34-5.28l.24-.43,.82-1.44,.92-1.61,2.03-3.55,.02-.04,.13-.22,.02-.03,.02-.04c2.02,1.09,4.14,1.99,6.34,2.66h.04s.06,.03,.1,.04c.11,.03,.22,.07,.32,.1,.56,.16,1.1,.31,1.61,.43,.11,.03,.23,.05,.34,.08,.41,.1,.82,.18,1.22,.26,.07,.01,.13,.03,.2,.04,.07,.01,.13,.02,.2,.04,.04,0,.08,.01,.12,.02,.07,.01,.14,.03,.21,.04,.55,.1,1.1,.17,1.64,.24,.11,.01,.22,.03,.33,.04,.56,.06,1.11,.11,1.64,.14,.12,0,.22,.02,.34,.02,.24,.01,.48,.02,.72,.03Z"/>
                                      <path class="uuid-8c238514-f972-4e3a-bbc8-7b71d43578a3" d="M36.51,16.67c-.97,.4-1.93,.84-2.85,1.33-.38,.2-.76,.4-1.14,.62-.98,.55-1.92,1.14-2.83,1.78-.1,.06-.18,.11-.24,.15-.04,.02-.07,.05-.11,.07-.9,.64-1.78,1.32-2.62,2.04l-.2-.24-.02-.02-5.29-5.87-.33-.36c2.02-1.79,4.22-3.41,6.61-4.84,1.92-1.15,3.88-2.13,5.89-2.95l.17,.46,2.95,7.83Z"/>
                                      <path class="uuid-8c238514-f972-4e3a-bbc8-7b71d43578a3" d="M90.42,32.56l-.46,.18-8.1,3.15c-.21-.49-.43-1-.66-1.49-.05-.1-.09-.2-.14-.31-.22-.47-.47-.96-.74-1.45l-.02-.03c-.05-.09-.1-.18-.14-.26-.26-.48-.54-.96-.83-1.42l-.02-.03-.02-.03c-.05-.08-.09-.15-.14-.23-.08-.13-.17-.27-.25-.4-.21-.32-.43-.65-.65-.96-.02-.03-.04-.07-.07-.1-.04-.06-.08-.12-.12-.18-.31-.43-.64-.87-.98-1.31-.07-.09-.14-.18-.21-.26-.19-.24-.39-.48-.58-.71-.06-.07-.12-.14-.18-.21l.94-1.11,.02-.02,5.54-4.66,.37-.32c1.71,1.98,3.26,4.15,4.63,6.49,1.08,1.85,2.02,3.74,2.81,5.68Z"/>
                                      <path class="uuid-8c238514-f972-4e3a-bbc8-7b71d43578a3" d="M78.31,83.21c-1.87,1.61-3.91,3.08-6.1,4.39-2.03,1.21-4.11,2.24-6.24,3.09l-.18-.46-2.96-7.6c.97-.41,1.92-.85,2.85-1.34,.38-.2,.76-.41,1.14-.62,.97-.55,1.91-1.15,2.82-1.79,.1-.06,.18-.11,.24-.15,.04-.02,.07-.05,.11-.07,.9-.64,1.78-1.33,2.61-2.05l.21,.24,.02,.02,5.17,5.99,.32,.37Z"/>
                                      <path class="uuid-8c238514-f972-4e3a-bbc8-7b71d43578a3" d="M21.88,72.03l-.25,.19-.02,.02-5.82,4.39-.39,.29c-1.2-1.53-2.3-3.15-3.31-4.87-1.45-2.47-2.63-5.03-3.56-7.64l.46-.15,7.46-2.35h.04c.34,.98,.72,1.96,1.15,2.91h0v.03c.18,.39,.36,.77,.54,1.15,.49,1.01,1.02,1.99,1.61,2.94,.06,.1,.1,.19,.13,.25,.02,.04,.04,.07,.07,.11,.58,.94,1.21,1.86,1.88,2.74Z"/>
                                    </g>
                                  </g>
                                  <circle class="uuid-fb8a13cb-2d97-4132-beae-99ff219589b3" cx="49.5" cy="49.5" r="49"/>
                                  <circle class="uuid-1a94db4c-99dd-406f-b68d-75c77429ccf8" cx="48.55" cy="48.14" r="11.47"/>
                                </g>
                              </g>
                            </svg>