<?xml version="1.0" encoding="UTF-8"?>
                            <svg xmlns="http://www.w3.org/2000/svg" xmlns:xlink="http://www.w3.org/1999/xlink" viewBox="0 0 99 99">
                              <defs>
                                <style>
                                  .uuid-0d56e7fb-2875-4fe5-8156-2f277112cd89, .uuid-22d72c78-7b5a-4b00-827e-b0eac6ee1d12 {
                                    fill: #fff;
                                  }
                            
                                  .uuid-2e0def06-99fe-4c10-afc5-2b2536168fc0 {
                                    stroke-linecap: round;
                                  }
                            
                                  .uuid-2e0def06-99fe-4c10-afc5-2b2536168fc0, .uuid-d1338e8d-efa2-4f31-8eaa-24709c34a9ba, .uuid-d7198e27-3733-4369-aa88-035f71d90ffa {
                                    fill: none;
                                    stroke: #fff;
                                    stroke-miterlimit: 10;
                                  }
                            
                                  .uuid-5bbe3a6b-3209-43f5-91a3-053782f04f3a {
                                    fill: url(#uuid-37e66743-fea0-44af-bc2a-d3439773809f);
                                  }
                            
                                  .uuid-57322d50-f321-40be-88d0-47412c31f03f {
                                    fill: url(#uuid-eb4e95e6-4ba6-49bb-b39e-6be471a94cbe);
                                  }
                            
                                  .uuid-b45ec072-af6b-4c53-9556-75ccf85dffa6 {
                                    fill: url(#uuid-07908716-4326-46de-911e-240803bc2cfe);
                                  }
                            
                                  .uuid-b8b3cd88-3e79-4672-9c79-2a73a22c8107 {
                                    fill: url(#uuid-6ea1b760-7462-4fc9-a5d3-1dc6d6b9b274);
                                  }
                            
                                  .uuid-e002a632-a3bd-478c-aabc-87a22439cd2f {
                                    opacity: .5;
                                  }
                            
                                  .uuid-e083a795-9136-448c-97aa-f5f1d7584725 {
                                    fill: url(#uuid-55608d3a-394d-43a2-8311-3eb10735aa6e);
                                  }
                            
                                  .uuid-22d72c78-7b5a-4b00-827e-b0eac6ee1d12 {
                                    opacity: .6;
                                  }
                            
                                  .uuid-d7198e27-3733-4369-aa88-035f71d90ffa {
                                    stroke-width: .25px;
                                  }
                                </style>
                                <radialGradient id="uuid-55608d3a-394d-43a2-8311-3eb10735aa6e" cx="89.68" cy="-19.39" fx="89.68" fy="-19.39" r="11.07" gradientTransform="translate(-6.52 86.13) rotate(-1.95)" gradientUnits="userSpaceOnUse">
                                  <stop offset=".16" stop-color="#fff"/>
                                  <stop offset="1" stop-color="#fff"/>
                                </radialGradient>
                                <radialGradient id="uuid-07908716-4326-46de-911e-240803bc2cfe" cx="45.75" cy="5.72" fx="45.75" fy="5.72" r="11.07" gradientTransform="translate(-10.46 79.25) rotate(-3.85)" xlink:href="#uuid-55608d3a-394d-43a2-8311-3eb10735aa6e"/>
                                <radialGradient id="uuid-6ea1b760-7462-4fc9-a5d3-1dc6d6b9b274" cx="63.79" cy="-58.9" fx="63.79" fy="-58.9" r="11.07" gradientTransform="translate(2.58 77.52) rotate(-1.84)" xlink:href="#uuid-55608d3a-394d-43a2-8311-3eb10735aa6e"/>
                                <radialGradient id="uuid-37e66743-fea0-44af-bc2a-d3439773809f" cx="17.56" cy="-5.95" fx="17.56" fy="-5.95" r="11.07" gradientTransform="translate(-.87 40.86) rotate(-1.09)" xlink:href="#uuid-55608d3a-394d-43a2-8311-3eb10735aa6e"/>
                                <radialGradient id="uuid-eb4e95e6-4ba6-49bb-b39e-6be471a94cbe" cx="48.71" cy="43.69" fx="48.71" fy="43.69" r="7.41" gradientTransform="matrix(1, 0, 0, 1, 0, 0)" gradientUnits="userSpaceOnUse">
                                  <stop offset="0" stop-color="#e4ebb8" stop-opacity="0"/>
                                  <stop offset="0" stop-color="#e6ecbd" stop-opacity=".08"/>
                                  <stop offset="0" stop-color="#ecf0cd" stop-opacity=".3"/>
                                  <stop offset="0" stop-color="#f5f7e5" stop-opacity=".64"/>
                                  <stop offset="0" stop-color="#fff"/>
                                  <stop offset=".13" stop-color="#e7e7e6" stop-opacity=".89"/>
                                  <stop offset=".41" stop-color="#a9a9a9" stop-opacity=".62"/>
                                  <stop offset=".82" stop-color="#484847" stop-opacity=".19"/>
                                  <stop offset="1" stop-color="#1d1d1b" stop-opacity="0"/>
                                </radialGradient>
                              </defs>
                              <g id="uuid-b6048480-8cd0-4e9d-a4ec-1509583b3e7d" data-name="Layer 1"/>
                              <g id="uuid-cdfd62d9-37e7-4b8b-a473-921981957125" data-name="Layer 2">
                                <g id="uuid-72be6569-5338-40cf-83d5-e28ef6fdc0c9" data-name="White icon">
                                  <g id="uuid-de11c6ea-1592-4ddd-a493-0248122e8f89" data-name="binocular top">
                                    <path class="uuid-d1338e8d-efa2-4f31-8eaa-24709c34a9ba" d="M55.85,50.56c.19-.33-.86-1.4-.44-2.26,1.1-2.24,2.75-5.63,3.54-6.32l.3-.26-.38,.11c-.25,.08-.57,.11-.94,.11h0c-2.3,0-6.29-1.44-7.6-1.91-.5-.18-1.02-.27-1.56-.28h-.17c-.54,0-1.06,.1-1.56,.28-.97,.35-2.25,.8-3.6,1.18-1.7,.48-3.05,.73-4,.73-.34,0-.63-.03-.87-.09v-.02h-.07l-.32-.09,.27,.27h0c.8,.74,2.43,4.08,3.51,6.3,.42,.86-.07,1.4,.12,1.74l.06,.12,.08-.1s.06-.08,.18-.21l.1-.11c2.44-2.77,5.39-2.92,6.2-2.92h0c2.98,0,7,3.74,7.02,3.77"/>
                                    <path class="uuid-d1338e8d-efa2-4f31-8eaa-24709c34a9ba" d="M48.68,46.23c-1.47,0-2.67-1.2-2.67-2.67s1.2-2.67,2.67-2.67,2.67,1.2,2.67,2.67-1.2,2.67-2.67,2.67Zm0-5.17c-1.38,0-2.5,1.12-2.5,2.5s1.12,2.5,2.5,2.5,2.5-1.12,2.5-2.5-1.12-2.5-2.5-2.5Z"/>
                                    <path class="uuid-d1338e8d-efa2-4f31-8eaa-24709c34a9ba" d="M48.68,46.23c-1.47,0-2.67-1.2-2.67-2.67s1.2-2.67,2.67-2.67,2.67,1.2,2.67,2.67-1.2,2.67-2.67,2.67Z"/>
                                    <path class="uuid-d1338e8d-efa2-4f31-8eaa-24709c34a9ba" d="M47.32,45.74h0l.06,.04s-.03-.03-.05-.04Z"/>
                                    <path class="uuid-d1338e8d-efa2-4f31-8eaa-24709c34a9ba" d="M49.99,45.78l.05-.03h0s-.03,.02-.05,.03Z"/>
                                    <g>
                                      <path class="uuid-d1338e8d-efa2-4f31-8eaa-24709c34a9ba" d="M43.43,41.31s-.07-.01-.08-.04c-.31-.78-.75-1.5-1.31-2.13-1.1-1.24-2.6-2.06-4.23-2.32-.73-.12-1.49-.1-2.22,.05-.04,0-.08-.01-.1-.05-.02-.04,0-.08,.03-.11,.93-.61,2.02-.93,3.13-.93,2.7,0,4.9,2.17,4.9,4.84,0,.21-.02,.59-.04,.63s-.09,.06-.09,.06Zm-6.6-4.74c.34,0,.67,.03,1,.08,1.67,.27,3.21,1.11,4.34,2.38,.5,.56,.8,.9,1.1,1.58,0-.09,.11,.1,.11,.02,0-2.57-2.12-4.66-4.73-4.66-.93,0-1.83,.23-2.64,.67,.27-.03,.54-.05,.82-.05Z"/>
                                      <path class="uuid-d1338e8d-efa2-4f31-8eaa-24709c34a9ba" d="M39.43,42.11c-.38,0-.7-.04-.97-.11-.01,0-.02,0-.04-.01-1.46-.87-3.14-1.33-4.85-1.33s-3.43,.47-4.9,1.36c-.04,.02-2.91,2.79-2.94,2.75-.03-.04,2.8-2.86,2.84-2.89l3.92-3.62c.86-.79,1.92-1.33,3.06-1.57,.75-.15,1.53-.17,2.28-.05,1.67,.27,3.21,1.11,4.34,2.38,.57,.64,1.02,1.38,1.34,2.18,0,.02,.02,.04,.02,.06,0,.02,0,.05,0,.07-.01,.02-.03,.04-.05,.04-1.72,.49-3.08,.74-4.05,.74Zm-.86-.42c.88,.26,2.45,.19,4.77-.46-.31-.77-.74-1.48-1.29-2.1-1.1-1.24-2.6-2.06-4.23-2.32-.73-.12-1.49-.1-2.22,.05-1.11,.23-2.14,.75-2.98,1.52l-3.39,3.13c1.34-.68,2.83-1.03,4.35-1.03,1.74,0,3.51,.33,4.99,1.22Z"/>
                                      <path class="uuid-d1338e8d-efa2-4f31-8eaa-24709c34a9ba" d="M32.18,62.4c-5.38,0-9.76-4.38-9.76-9.76s4.38-9.76,9.76-9.76,9.76,4.38,9.76,9.76-4.38,9.76-9.76,9.76Zm0-19.34c-5.28,0-9.58,4.3-9.58,9.58s4.3,9.58,9.58,9.58,9.58-4.3,9.58-9.58-4.3-9.58-9.58-9.58Z"/>
                                    </g>
                                    <g>
                                      <path class="uuid-d1338e8d-efa2-4f31-8eaa-24709c34a9ba" d="M53.91,41.32s-.07-.04-.08-.07c-.03-.21-.04-.42-.04-.63,0-2.67,2.2-4.84,4.9-4.84,1.12,0,2.2,.32,3.13,.93,.04,.02,.05,.07,.03,.11-.02,.04-.06,.06-.1,.05-.73-.15-1.49-.16-2.22-.05-1.63,.26-3.14,1.08-4.23,2.32-.56,.63-1,1.34-1.31,2.13-.01,.03-.05,.06-.08,.06h-.01Zm7.43-4.7c-.81-.44-1.71-.67-2.64-.67-2.61,0-4.73,2.09-4.73,4.66,0,.09,.09-.3,.1-.21,.3-.68,.62-.83,1.12-1.38,1.12-1.27,2.66-2.11,4.34-2.38,.33-.05,.67-.08,1-.08,.27,0,.55,.02,.82,.05Z"/>
                                      <path class="uuid-d1338e8d-efa2-4f31-8eaa-24709c34a9ba" d="M53.88,41.38s-.04-.02-.05-.04c-.01-.02-.01-.05,0-.07,0-.02,.02-.04,.02-.06,.32-.8,.77-1.53,1.34-2.18,1.12-1.27,2.66-2.11,4.34-2.38,.75-.12,1.53-.1,2.28,.05,1.14,.23,2.2,.77,3.06,1.57l3.92,3.62s3.78,3.86,3.75,3.9c-.03,.04-3.82-3.74-3.86-3.76-1.47-.89-3.17-1.36-4.9-1.36s-3.39,.46-4.85,1.33c-.01,0-.02,.01-.04,.01-.26,.08-.59,.11-.97,.11-.97,0-2.33-.25-4.05-.74Zm9.9-.9c1.52,0,3.01,.36,4.35,1.03l-3.39-3.13c-.83-.77-1.86-1.3-2.98-1.52-.73-.15-1.49-.16-2.22-.05-1.63,.26-3.14,1.08-4.23,2.32-.55,.62-.99,1.33-1.29,2.1,2.31,.65,3.96,.85,4.84,.59,1.48-.88,3.19-1.35,4.92-1.35Z"/>
                                      <path class="uuid-d1338e8d-efa2-4f31-8eaa-24709c34a9ba" d="M55.42,52.64c0-5.38,4.38-9.76,9.76-9.76s9.76,4.38,9.76,9.76-4.38,9.76-9.76,9.76-9.76-4.38-9.76-9.76Zm.17,0c0,5.28,4.3,9.58,9.58,9.58s9.58-4.3,9.58-9.58-4.3-9.58-9.58-9.58-9.58,4.3-9.58,9.58Z"/>
                                      <path class="uuid-d1338e8d-efa2-4f31-8eaa-24709c34a9ba" d="M57.26,52.66c0-4.35,3.54-7.89,7.89-7.89s7.89,3.54,7.89,7.89-3.54,7.89-7.89,7.89-7.89-3.54-7.89-7.89Z"/>
                                    </g>
                                    <path class="uuid-d7198e27-3733-4369-aa88-035f71d90ffa" d="M45.98,40.04h0s.08-.09,.12-.13h0l.07,.07,.18-.06-.13-.13s.09-.08,.13-.12h0s.09-.07,.13-.11h0s.09-.07,.13-.1h.01s.1-.08,.15-.11l.19,.34c.06-.02,.11-.04,.17-.06l-.21-.37h0c.21-.11,.43-.21,.66-.27l.14,.51c.06,0,.12-.02,.17-.03l-.14-.53h0c.06-.01,.11-.03,.17-.04h0c.06-.01,.11-.02,.17-.03h0c.06,0,.12-.01,.18-.02h0c.06,0,.12,0,.18,0v.57h.17v-.57c.06,0,.12,0,.18,0h0c.06,0,.12,.01,.18,.02h0c.06,0,.12,.02,.17,.03h0c.06,.01,.12,.02,.17,.04l-.14,.53c.06,0,.12,.02,.17,.03l.14-.51c.23,.07,.45,.16,.66,.27l-.21,.37c.06,.02,.11,.04,.17,.06l.19-.34h0s.1,.06,.15,.1h.01s.09,.07,.13,.11h0s.09,.08,.13,.11h0s.09,.08,.13,.12l-.13,.13,.18,.06,.07-.07s.08,.09,.12,.13h0c.1,.04,.2,.07,.31,.11-.65-.89-1.71-1.48-2.89-1.48s-2.24,.58-2.89,1.47c.1-.04,.21-.07,.31-.11Z"/>
                                  </g>
                                  <path class="uuid-d1338e8d-efa2-4f31-8eaa-24709c34a9ba" d="M24.25,52.65c0-4.35,3.54-7.89,7.89-7.89s7.89,3.54,7.89,7.89-3.54,7.89-7.89,7.89-7.89-3.54-7.89-7.89Z"/>
                                  <g id="uuid-c680bdeb-c956-469b-846a-c73dc9ce6719" data-name="green stroke copy">
                                    <g>
                                      <path class="uuid-2e0def06-99fe-4c10-afc5-2b2536168fc0" d="M47.92,12.16l2.87,5.1s12.24,.24,20.06,8.38l8.22-1.85s7.09,8.46,7.73,17.32l3.3,3.54,4.43-.56s-1.29-12.71-7.08-20.09"/>
                                      <path class="uuid-0d56e7fb-2875-4fe5-8156-2f277112cd89" d="M47.13,12.66c-.25-.45-.09-1.03,.36-1.28,.45-.25,1.03-.09,1.28,.36,.25,.45,.09,1.03-.36,1.28-.45,.25-1.03,.09-1.28-.36Z"/>
                                      <path class="uuid-0d56e7fb-2875-4fe5-8156-2f277112cd89" d="M88.2,23.46c-.32-.41-.91-.48-1.32-.16-.41,.32-.48,.91-.16,1.32s.91,.48,1.32,.16c.41-.32,.48-.91,.16-1.32Z"/>
                                    </g>
                                    <g>
                                      <path class="uuid-2e0def06-99fe-4c10-afc5-2b2536168fc0" d="M53.52,6.11c2.92,.44,12.42,2.12,18.29,6.24l-1.45,1.13,2.98,2.01"/>
                                      <path class="uuid-0d56e7fb-2875-4fe5-8156-2f277112cd89" d="M53.43,7.05c-.51-.08-.87-.56-.79-1.07,.08-.51,.56-.87,1.07-.79,.51,.08,.87,.56,.79,1.07s-.56,.87-1.07,.79Z"/>
                                    </g>
                                    <g>
                                      <path class="uuid-2e0def06-99fe-4c10-afc5-2b2536168fc0" d="M86.42,47.95l-5.09,2.89s-.18,12.24-8.28,20.1l1.89,8.21s-8.42,7.13-17.28,7.81l-3.53,3.32,.58,4.43s12.7-1.35,20.06-7.18"/>
                                      <path class="uuid-0d56e7fb-2875-4fe5-8156-2f277112cd89" d="M85.91,47.16c.45-.26,1.03-.1,1.28,.35,.26,.45,.1,1.03-.35,1.28-.45,.26-1.03,.1-1.28-.35-.26-.45-.1-1.03,.35-1.28Z"/>
                                      <path class="uuid-0d56e7fb-2875-4fe5-8156-2f277112cd89" d="M75.3,88.27c.41-.32,.48-.91,.15-1.32-.32-.41-.91-.48-1.32-.15-.41,.32-.48,.91-.15,1.32s.91,.48,1.32,.15Z"/>
                                    </g>
                                    <g>
                                      <path class="uuid-2e0def06-99fe-4c10-afc5-2b2536168fc0" d="M92.5,53.52c-.42,2.92-2.06,12.43-6.16,18.32l-1.13-1.44-2,2.99"/>
                                      <path class="uuid-0d56e7fb-2875-4fe5-8156-2f277112cd89" d="M91.55,53.43c.08-.51,.55-.87,1.07-.79,.51,.08,.87,.55,.79,1.07-.08,.51-.55,.87-1.07,.79-.51-.08-.87-.55-.79-1.07Z"/>
                                    </g>
                                    <g>
                                      <path class="uuid-2e0def06-99fe-4c10-afc5-2b2536168fc0" d="M52.23,85.42l-3.1-4.96s-12.24,.34-20.43-7.42l-8.12,2.24s-7.48-8.11-8.54-16.93l-3.47-3.38-4.4,.77s1.88,12.64,8.03,19.74"/>
                                      <path class="uuid-0d56e7fb-2875-4fe5-8156-2f277112cd89" d="M53.01,84.88c.28,.44,.14,1.02-.3,1.3-.44,.28-1.02,.14-1.3-.3-.28-.44-.14-1.02,.3-1.3s1.02-.14,1.3,.3Z"/>
                                      <path class="uuid-0d56e7fb-2875-4fe5-8156-2f277112cd89" d="M11.47,76.03c.34,.39,.93,.44,1.33,.1,.39-.34,.44-.93,.1-1.33s-.93-.44-1.33-.1c-.39,.34-.44,.93-.1,1.33Z"/>
                                    </g>
                                    <g class="uuid-e002a632-a3bd-478c-aabc-87a22439cd2f">
                                      <g>
                                        <path class="uuid-2e0def06-99fe-4c10-afc5-2b2536168fc0" d="M46.93,91.73c-2.93-.3-12.5-1.53-18.57-5.37l1.4-1.19-3.07-1.87"/>
                                        <path class="uuid-0d56e7fb-2875-4fe5-8156-2f277112cd89" d="M46.97,90.78c.52,.05,.89,.51,.84,1.03-.05,.52-.51,.89-1.03,.84-.52-.05-.89-.51-.84-1.03,.05-.52,.51-.89,1.03-.84Z"/>
                                      </g>
                                    </g>
                                    <g>
                                      <path class="uuid-2e0def06-99fe-4c10-afc5-2b2536168fc0" d="M12.12,50.95l5.14-2.8s.39-12.24,8.62-19.95l-1.75-8.24s8.54-6.99,17.41-7.52l3.58-3.26-.51-4.44s-12.73,1.13-20.18,6.84"/>
                                      <path class="uuid-0d56e7fb-2875-4fe5-8156-2f277112cd89" d="M12.61,51.75c-.46,.25-1.03,.08-1.28-.37-.25-.46-.08-1.03,.37-1.28,.46-.25,1.03-.08,1.28,.37,.25,.46,.08,1.03-.37,1.28Z"/>
                                      <path class="uuid-0d56e7fb-2875-4fe5-8156-2f277112cd89" d="M23.91,10.82c-.41,.32-.49,.91-.17,1.32s.91,.49,1.32,.17c.41-.32,.49-.91,.17-1.32-.32-.41-.91-.49-1.32-.17Z"/>
                                    </g>
                                    <g>
                                      <path class="uuid-2e0def06-99fe-4c10-afc5-2b2536168fc0" d="M6.13,45.28c.47-2.91,2.27-12.39,6.46-18.21l1.11,1.46,2.05-2.96"/>
                                      <path class="uuid-0d56e7fb-2875-4fe5-8156-2f277112cd89" d="M7.08,45.38c-.08,.51-.57,.86-1.08,.78-.51-.08-.86-.57-.78-1.08,.08-.51,.57-.86,1.08-.78,.51,.08,.86,.57,.78,1.08Z"/>
                                    </g>
                                    <path class="uuid-22d72c78-7b5a-4b00-827e-b0eac6ee1d12" d="M41.43,9.91c-2.03,.35-4.04,.85-6,1.49l-1.46,.51c-.48,.18-.96,.39-1.43,.58-.48,.19-.94,.41-1.41,.63l-.7,.33c-.23,.11-.46,.24-.69,.35-4.54,2.34-8.63,5.56-11.98,9.42-.29-.6-.58-1.22-.84-1.83,.11-.65,.24-1.32,.37-1.99,3.45-3.55,7.5-6.51,11.95-8.72,4.43-2.17,9.24-3.52,14.14-4.07l.11,1.38c-.36,.3-.71,.64-1.05,.96-.34,.32-.68,.64-1,.96Z"/>
                                    <path class="uuid-22d72c78-7b5a-4b00-827e-b0eac6ee1d12" d="M88.26,40.34c-.39-2.03-.94-4.02-1.62-5.97l-.54-1.45c-.19-.48-.41-.95-.61-1.42-.2-.48-.43-.94-.66-1.4l-.34-.69c-.11-.23-.25-.45-.37-.68-2.43-4.49-5.74-8.51-9.67-11.77,.6-.3,1.21-.6,1.81-.88,.66,.1,1.32,.21,2,.33,3.62,3.37,6.67,7.36,8.97,11.76,2.26,4.38,3.72,9.16,4.37,14.05l-1.38,.14c-.31-.35-.65-.69-.98-1.03-.33-.33-.65-.66-.98-.98Z"/>
                                    <path class="uuid-22d72c78-7b5a-4b00-827e-b0eac6ee1d12" d="M58.01,88.6c2.02-.4,4.02-.95,5.96-1.64l1.45-.55c.48-.2,.95-.41,1.42-.61,.48-.2,.93-.44,1.4-.66l.69-.34c.23-.11,.45-.25,.68-.37,4.49-2.45,8.49-5.76,11.74-9.7,.3,.6,.61,1.21,.88,1.81-.1,.66-.2,1.32-.32,2-3.36,3.63-7.34,6.69-11.74,9-4.37,2.27-9.15,3.75-14.03,4.42l-.14-1.38c.35-.31,.69-.66,1.03-.98,.33-.33,.66-.65,.98-.99Z"/>
                                    <path class="uuid-22d72c78-7b5a-4b00-827e-b0eac6ee1d12" d="M10.1,58.54c.45,2.01,1.05,3.99,1.79,5.92l.59,1.43c.21,.47,.43,.94,.65,1.4,.21,.47,.46,.92,.7,1.38l.36,.68c.12,.23,.26,.45,.39,.67,2.56,4.42,5.98,8.34,10,11.49-.59,.32-1.19,.64-1.79,.93-.66-.08-1.33-.17-2.01-.27-3.72-3.27-6.88-7.17-9.3-11.5-2.38-4.31-3.98-9.06-4.77-13.92l1.37-.17c.32,.34,.67,.67,1.01,1,.34,.33,.67,.64,1.01,.95Z"/>
                                  </g>
                                  <g id="uuid-ae20bdba-7fa5-4342-83cf-fd8ddfe15e21" data-name="green ring copy">
                                    <g id="uuid-4e57b617-eeff-4df6-ac00-fbfb63deb05c" data-name="texture with BG">
                                      <g id="uuid-06ba6317-4514-44f4-8fa4-6babc61190c8" data-name="Outer ring bg">
                                        <path class="uuid-e083a795-9136-448c-97aa-f5f1d7584725" d="M75.41,70.34c1.09-1.28,2.07-2.65,2.95-4.09,.87-1.44,1.61-2.95,2.24-4.51,1.27-3.11,1.97-6.43,2.18-9.78,.73-.33,1.45-.69,2.18-1.07,.36-.19,.73-.39,1.09-.59,.35-.2,.71-.42,1.06-.63,.73,.34,1.47,.7,2.18,1.08-.06,4.9-1.1,9.79-3.04,14.28-2.07,4.8-5.16,9.16-8.99,12.72-.27-1.05-.56-2.07-.89-3.07-.12-.75-.26-1.48-.41-2.2-.16-.72-.35-1.44-.54-2.13Z"/>
                                        <g>
                                          <path class="uuid-b45ec072-af6b-4c53-9556-75ccf85dffa6" d="M28.7,75.06c1.32,1.04,2.72,1.98,4.18,2.81,1.46,.83,3,1.51,4.58,2.09,3.15,1.17,6.49,1.75,9.85,1.85,.36,.72,.74,1.43,1.15,2.14,.2,.36,.41,.72,.63,1.07,.22,.35,.44,.69,.67,1.04-.31,.74-.65,1.5-1.01,2.22-4.9,.1-9.82-.77-14.38-2.56-4.87-1.91-9.33-4.85-13.01-8.56,1.04-.31,2.05-.63,3.04-1,.75-.14,1.48-.31,2.19-.48,.72-.18,1.43-.4,2.12-.61Z"/>
                                          <path class="uuid-b8b3cd88-3e79-4672-9c79-2a73a22c8107" d="M71.08,23.67c-1.28-1.09-2.65-2.08-4.08-2.96-1.44-.88-2.95-1.62-4.5-2.25-3.11-1.28-6.43-1.98-9.78-2.2-.33-.73-.69-1.45-1.07-2.18-.19-.36-.39-.73-.59-1.09-.2-.35-.41-.71-.63-1.06,.34-.73,.7-1.47,1.08-2.18,4.9,.07,9.78,1.12,14.28,3.07,4.8,2.08,9.15,5.18,12.7,9.01-1.05,.27-2.07,.55-3.08,.89-.75,.12-1.48,.25-2.2,.4-.72,.16-1.44,.35-2.14,.54Z"/>
                                        </g>
                                        <path class="uuid-5bbe3a6b-3209-43f5-91a3-053782f04f3a" d="M23.71,28.04c-1.11,1.27-2.11,2.62-3.01,4.04-.9,1.42-1.66,2.93-2.31,4.47-1.32,3.09-2.06,6.4-2.33,9.75-.73,.32-1.46,.67-2.19,1.04-.36,.19-.74,.38-1.1,.58-.36,.2-.71,.4-1.07,.62-.73-.35-1.46-.72-2.16-1.11,.13-4.9,1.24-9.77,3.25-14.24,2.14-4.77,5.3-9.08,9.18-12.58-.11,.1,.39,1.55,.44,1.75,.17,.64,.33,1.29,.48,1.93,.28,1.25,.49,2.51,.81,3.75Z"/>
                                      </g>
                                    </g>
                                  </g>
                                  <circle class="uuid-57322d50-f321-40be-88d0-47412c31f03f" cx="48.71" cy="43.69" r="7.41"/>
                                  <g id="uuid-502fb917-721f-48cb-a70c-61731262ced5" data-name="Layer 10">
                                    <circle class="uuid-d1338e8d-efa2-4f31-8eaa-24709c34a9ba" cx="49.5" cy="49.5" r="49"/>
                                  </g>
                                </g>
                              </g>
                            </svg>