<?xml version="1.0" encoding="UTF-8"?>
<svg xmlns="http://www.w3.org/2000/svg" xmlns:xlink="http://www.w3.org/1999/xlink" viewBox="0 0 99 99">
  <defs>
    <style>
      .uuid-a6ab6e61-c952-44d3-b79b-a99e35896f06 {
        stroke-linecap: round;
      }

      .uuid-a6ab6e61-c952-44d3-b79b-a99e35896f06, .uuid-15cfffb8-1e6b-4104-955b-78947d7cc918 {
        fill: none;
        stroke: #fff;
        stroke-miterlimit: 10;
      }

      .uuid-5aa19453-0b99-4c1e-948f-d56ed2f09105 {
        fill: url(#uuid-6710fbc7-3cb3-4020-9196-c42e200a07dc);
      }

      .uuid-2dcfd231-8d2f-4886-9f33-789adb451713 {
        fill: url(#uuid-e494ba57-dd97-4b2e-84bf-93fb34e60447);
      }

      .uuid-8cc0f2a1-3251-4aec-97c2-c82927e8988b {
        opacity: .4;
      }

      .uuid-ed639bbd-abfb-4048-a42c-4a13f8dea0c3 {
        fill: url(#uuid-1b7bfa95-69cc-41af-96b6-fb5bfb0ed29f);
      }
    </style>
    <linearGradient id="uuid-e494ba57-dd97-4b2e-84bf-93fb34e60447" x1="-2.66" y1="49.12" x2="99.71" y2="49.12" gradientTransform="matrix(1, 0, 0, 1, 0, 0)" gradientUnits="userSpaceOnUse">
      <stop offset="0" stop-color="#fff"/>
      <stop offset="1" stop-color="#fff"/>
    </linearGradient>
    <linearGradient id="uuid-1b7bfa95-69cc-41af-96b6-fb5bfb0ed29f" x1="-1.54" y1="49.12" x2="98.63" y2="49.12" xlink:href="#uuid-e494ba57-dd97-4b2e-84bf-93fb34e60447"/>
    <radialGradient id="uuid-6710fbc7-3cb3-4020-9196-c42e200a07dc" cx="49.67" cy="43.13" fx="49.67" fy="43.13" r="13.24" gradientTransform="matrix(1, 0, 0, 1, 0, 0)" gradientUnits="userSpaceOnUse">
      <stop offset="0" stop-color="#e4ebb8" stop-opacity="0"/>
      <stop offset="0" stop-color="#e6ecbd" stop-opacity=".08"/>
      <stop offset="0" stop-color="#ecf0cd" stop-opacity=".3"/>
      <stop offset="0" stop-color="#f5f7e5" stop-opacity=".64"/>
      <stop offset="0" stop-color="#fff"/>
      <stop offset=".13" stop-color="#e7e7e6" stop-opacity=".89"/>
      <stop offset=".41" stop-color="#a9a9a9" stop-opacity=".62"/>
      <stop offset=".82" stop-color="#484847" stop-opacity=".19"/>
      <stop offset="1" stop-color="#1d1d1b" stop-opacity="0"/>
    </radialGradient>
  </defs>
  <g id="uuid-dcd290f4-c9c5-4176-ab8b-f65220c23619" data-name="Layer 1"/>
  <g id="uuid-a42ef6d8-7875-4409-809c-bb0e81b4de2d" data-name="Layer 2">
    <g id="uuid-9a334518-b7e3-40ce-b7a5-ddc1a091cd77" data-name="White icon">
      <g id="uuid-ec2887b4-5334-45d3-b600-9afb2a483bdb" data-name="Outer ring 1">
        <g>
          <path class="uuid-2dcfd231-8d2f-4886-9f33-789adb451713" d="M5.07,55.22c-.9-6.77-.29-13.75,1.89-20.23,2.13-6.5,5.81-12.47,10.61-17.34l1.15,1.13c-4.62,4.69-8.18,10.45-10.23,16.71-2.1,6.25-2.69,12.98-1.82,19.51l-1.6,.22Zm69.85,28.64l.95,1.3c-1.82,1.31-3.73,2.51-5.71,3.56-2,1.03-4.07,1.92-6.19,2.67-2.13,.72-4.31,1.28-6.52,1.69-2.21,.4-4.46,.61-6.7,.69-.65,.68-1.32,1.39-2.03,2.04-2.9-.05-5.8-.37-8.64-.95-.54-.82-1.05-1.63-1.54-2.44-2.01-.53-4-1.16-5.93-1.95-.49-.19-.96-.41-1.43-.62l-.71-.32c-.24-.11-.47-.23-.7-.35-.46-.24-.93-.46-1.39-.71l-1.36-.77c-1.79-1.06-3.54-2.21-5.16-3.51l-.62-.48c-.2-.17-.4-.34-.59-.51l-1.18-1.02c-.75-.72-1.53-1.42-2.23-2.19-1.45-1.49-2.76-3.12-3.99-4.79-.59-.85-1.2-1.7-1.73-2.6-.57-.87-1.05-1.79-1.56-2.7-1.11-2.12-2.05-4.32-2.82-6.59,.39-.1,.77-.2,1.16-.3,.13-.03,.27-.07,.4-.1,1.65,4.86,4.19,9.42,7.41,13.41,2.18,2.66,4.67,5.07,7.41,7.15,2.73,2.09,5.75,3.8,8.9,5.18,6.32,2.73,13.29,3.91,20.15,3.41,3.43-.22,6.83-.91,10.11-1.96,.83-.24,1.62-.57,2.43-.86,.8-.31,1.59-.66,2.38-1.01,1.55-.74,3.08-1.53,4.54-2.45-.41-.14-.82-.29-1.23-.44-.4-.15-.81-.33-1.21-.49-.63,.35-1.26,.71-1.91,1.01l.43,.87c-1.9,.96-3.89,1.75-5.92,2.4-1.01,.34-2.05,.59-3.08,.86-1.04,.22-2.08,.45-3.14,.6l-.41-2.66c.99-.14,1.96-.36,2.94-.56,.96-.25,1.94-.49,2.88-.81,1.9-.6,3.76-1.34,5.54-2.24l.45,.9c.71-.33,1.39-.73,2.08-1.11,.54,.24,1.08,.44,1.62,.65,.55,.2,1.1,.4,1.67,.59,.75-.47,1.45-.99,2.18-1.49Zm-17.56,5.78l-.24-1.21c-.3,.06-.61,.11-.91,.17l.21,1.22c.31-.05,.63-.11,.94-.17Zm1.86-.41l-.29-1.2c-.3,.07-.6,.14-.9,.21l.26,1.21c.31-.07,.62-.14,.93-.21Zm1.84-.49l-.35-1.18c-.3,.09-.59,.17-.89,.25l.32,1.19c.3-.08,.61-.17,.92-.26Zm1.82-.58l-.4-1.16c-.29,.1-.58,.2-.88,.29l.37,1.17c.3-.1,.61-.2,.9-.3Zm1.79-.66l-.45-1.14c-.29,.11-.57,.22-.86,.33l.43,1.15c.3-.11,.6-.22,.89-.34Zm1.76-.74l-.5-1.12c-.28,.13-.56,.25-.85,.37l.48,1.13c.29-.12,.59-.25,.87-.38Zm27.5-43.73l-1.6,.22c.87,6.53,.28,13.26-1.82,19.51-2.05,6.26-5.6,12.02-10.23,16.71l1.15,1.13c4.8-4.87,8.49-10.84,10.61-17.34,2.17-6.48,2.79-13.46,1.89-20.23Zm-3.68-7.8c-1.65-4.82-4.18-9.33-7.37-13.29-2.18-2.66-4.67-5.07-7.41-7.15-2.73-2.09-5.75-3.8-8.9-5.18-6.32-2.73-13.29-3.91-20.15-3.41-3.43,.22-6.83,.91-10.11,1.96-.83,.24-1.62,.57-2.43,.86-.8,.31-1.59,.66-2.38,1.01-1.55,.74-3.08,1.53-4.54,2.45,.41,.14,.82,.29,1.23,.44,.4,.15,.81,.33,1.21,.49,.63-.35,1.26-.71,1.91-1.01l-.43-.87c1.9-.96,3.89-1.75,5.92-2.4,1.01-.34,2.05-.59,3.08-.86,1.04-.22,2.08-.45,3.14-.6l.41,2.66c-.99,.14-1.96,.36-2.94,.56-.96,.25-1.94,.49-2.88,.81-1.9,.6-3.76,1.34-5.54,2.24l-.45-.9c-.71,.33-1.39,.73-2.08,1.11-.54-.24-1.08-.44-1.62-.65-.55-.2-1.1-.4-1.67-.59-.75,.47-1.45,.99-2.18,1.49l-.95-1.3c1.82-1.31,3.73-2.51,5.71-3.56,2-1.03,4.07-1.92,6.19-2.67,2.13-.72,4.31-1.28,6.52-1.69,2.21-.4,4.46-.61,6.7-.69,.65-.68,1.32-1.39,2.03-2.04,2.9,.05,5.8,.37,8.64,.95,.54,.82,1.05,1.63,1.54,2.44,2.01,.53,4,1.16,5.93,1.95,.49,.19,.96,.41,1.43,.62l.71,.32c.24,.11,.47,.23,.7,.35,.46,.24,.93,.46,1.39,.71l1.36,.77c1.79,1.06,3.54,2.21,5.16,3.51l.62,.48c.2,.17,.4,.34,.59,.51l1.18,1.02c.75,.72,1.53,1.42,2.23,2.19,1.45,1.49,2.76,3.12,3.99,4.79,.59,.85,1.2,1.7,1.73,2.6,.57,.87,1.05,1.79,1.56,2.7,1.08,2.06,2,4.21,2.75,6.41l-1.08,.33-.46,.14ZM41.6,8.61l.24,1.21c.3-.06,.61-.11,.91-.17l-.21-1.22c-.31,.05-.63,.11-.94,.17Zm-1.86,.41l.29,1.2c.3-.07,.6-.14,.9-.21l-.26-1.21c-.31,.07-.62,.14-.93,.21Zm-1.84,.49l.35,1.18c.3-.09,.59-.17,.89-.25l-.32-1.19c-.31,.08-.61,.17-.92,.26Zm-1.82,.58l.4,1.16c.29-.1,.58-.2,.88-.29l-.37-1.17c-.3,.1-.61,.2-.9,.3Zm-1.79,.66l.45,1.14c.29-.11,.57-.22,.86-.33l-.43-1.15c-.3,.11-.6,.22-.89,.34Zm-1.76,.74l.5,1.12c.28-.13,.56-.25,.85-.37l-.48-1.13c-.29,.12-.58,.25-.87,.38Z"/>
          <g class="uuid-8cc0f2a1-3251-4aec-97c2-c82927e8988b">
            <path class="uuid-ed639bbd-abfb-4048-a42c-4a13f8dea0c3" d="M6.02,55.08c-.88-6.63-.28-13.46,1.85-19.8,2.08-6.36,5.69-12.2,10.39-16.97l1.12,1.11c-4.53,4.59-8,10.23-10.01,16.36-2.05,6.11-2.63,12.7-1.78,19.09l-1.56,.21Zm68.36,28.02l.93,1.27c-1.78,1.28-3.65,2.45-5.59,3.48-1.96,1.01-3.98,1.88-6.06,2.61-2.09,.7-4.22,1.25-6.38,1.65-2.17,.39-4.36,.6-6.56,.67-.63,.67-1.3,1.36-1.99,2-2.84-.05-5.67-.36-8.45-.93-.53-.8-1.03-1.59-1.5-2.38-1.97-.52-3.91-1.14-5.8-1.91-.48-.18-.93-.4-1.4-.61l-.7-.31c-.23-.11-.46-.23-.68-.34-.45-.23-.91-.45-1.36-.69l-1.33-.75c-1.75-1.04-3.46-2.16-5.05-3.44l-.6-.47c-.2-.16-.39-.33-.58-.5l-1.15-1c-.73-.71-1.49-1.39-2.18-2.14-1.42-1.46-2.7-3.05-3.9-4.69-.58-.83-1.17-1.66-1.69-2.54-.55-.85-1.03-1.76-1.52-2.65-1.08-2.07-2.01-4.23-2.76-6.45,.38-.1,.76-.2,1.14-.3,.13-.03,.26-.07,.39-.1,1.61,4.76,4.1,9.22,7.25,13.12,2.13,2.6,4.57,4.96,7.25,7,2.67,2.05,5.63,3.72,8.71,5.07,6.18,2.67,13.01,3.83,19.72,3.34,3.36-.22,6.69-.89,9.89-1.92,.81-.24,1.59-.56,2.38-.84,.78-.3,1.55-.65,2.33-.99,1.52-.73,3.02-1.5,4.44-2.4-.41-.14-.81-.29-1.2-.43-.4-.15-.8-.32-1.18-.48-.62,.34-1.23,.69-1.87,.99l.42,.85c-1.86,.94-3.81,1.71-5.8,2.35-.99,.33-2,.58-3.01,.84-1.02,.22-2.04,.44-3.07,.59l-.4-2.6c.97-.13,1.92-.35,2.88-.55,.94-.25,1.89-.48,2.82-.79,1.86-.59,3.68-1.31,5.42-2.19l.44,.88c.7-.32,1.36-.71,2.03-1.08,.53,.23,1.05,.44,1.59,.63,.54,.2,1.08,.39,1.64,.58,.73-.46,1.42-.97,2.13-1.45Zm-17.18,5.66l-.23-1.19c-.3,.06-.59,.11-.89,.16l.2,1.19c.3-.05,.61-.11,.92-.17Zm1.82-.4l-.28-1.17c-.29,.07-.59,.14-.88,.2l.26,1.18c.3-.07,.61-.14,.91-.21Zm1.8-.48l-.34-1.16c-.29,.08-.58,.17-.87,.24l.31,1.17c.3-.08,.6-.16,.9-.25Zm1.78-.56l-.39-1.14c-.29,.1-.57,.19-.86,.28l.36,1.15c.29-.09,.59-.19,.89-.29Zm1.75-.64l-.44-1.12c-.28,.11-.56,.22-.85,.32l.42,1.13c.29-.11,.58-.22,.87-.33Zm1.72-.72l-.49-1.1c-.28,.12-.55,.24-.83,.36l.47,1.11c.29-.12,.57-.25,.86-.37Zm26.91-42.8l-1.56,.21c.85,6.39,.27,12.97-1.78,19.09-2.01,6.13-5.48,11.76-10.01,16.36l1.12,1.11c4.7-4.76,8.3-10.61,10.39-16.97,2.13-6.34,2.73-13.17,1.85-19.8Zm-3.6-7.64c-1.61-4.71-4.09-9.13-7.21-13-2.13-2.6-4.57-4.96-7.25-7-2.67-2.05-5.63-3.72-8.71-5.07-6.18-2.67-13.01-3.83-19.72-3.34-3.36,.22-6.69,.89-9.89,1.92-.81,.24-1.59,.56-2.38,.84-.78,.3-1.55,.65-2.33,.99-1.52,.73-3.02,1.5-4.44,2.4,.41,.14,.81,.29,1.2,.43,.4,.15,.8,.32,1.19,.48,.62-.34,1.23-.69,1.87-.99l-.42-.85c1.86-.94,3.81-1.71,5.8-2.35,.99-.33,2-.58,3.01-.84,1.02-.22,2.04-.44,3.07-.59l.4,2.6c-.97,.13-1.92,.35-2.88,.55-.94,.25-1.89,.48-2.82,.79-1.86,.59-3.68,1.31-5.42,2.19l-.44-.88c-.7,.32-1.36,.71-2.03,1.08-.53-.23-1.05-.44-1.59-.63-.54-.2-1.08-.39-1.64-.58-.73,.46-1.42,.97-2.13,1.45l-.93-1.27c1.78-1.28,3.65-2.45,5.59-3.48,1.96-1.01,3.98-1.88,6.06-2.61,2.09-.7,4.22-1.25,6.38-1.65,2.17-.39,4.36-.6,6.56-.67,.63-.67,1.3-1.36,1.99-2,2.84,.05,5.67,.36,8.45,.93,.53,.8,1.03,1.59,1.5,2.38,1.97,.52,3.91,1.14,5.8,1.91,.48,.18,.93,.4,1.4,.61l.7,.31c.23,.11,.46,.23,.68,.34,.45,.23,.91,.45,1.36,.69l1.33,.75c1.75,1.04,3.46,2.16,5.05,3.44l.6,.47c.2,.16,.39,.33,.58,.5l1.15,1c.73,.71,1.49,1.39,2.18,2.14,1.42,1.46,2.7,3.05,3.9,4.69,.58,.83,1.17,1.66,1.69,2.54,.55,.85,1.03,1.76,1.52,2.65,1.05,2.02,1.96,4.12,2.7,6.27l-1.05,.32-.45,.14ZM41.77,9.48l.23,1.19c.3-.06,.59-.11,.89-.16l-.2-1.19c-.3,.05-.61,.11-.92,.17Zm-1.82,.4l.29,1.17c.29-.07,.59-.14,.88-.2l-.26-1.18c-.3,.07-.61,.14-.91,.21Zm-1.8,.48l.34,1.16c.29-.08,.58-.17,.87-.24l-.31-1.17c-.3,.08-.6,.16-.9,.25Zm-1.78,.56l.39,1.14c.29-.1,.57-.19,.86-.28l-.37-1.15c-.29,.09-.59,.19-.89,.29Zm-1.75,.65l.44,1.12c.28-.11,.56-.22,.85-.32l-.42-1.13c-.29,.11-.58,.22-.87,.33Zm-1.72,.73l.49,1.1c.28-.12,.55-.24,.83-.36l-.47-1.11c-.28,.12-.57,.25-.86,.37Z"/>
          </g>
        </g>
      </g>
      <circle class="uuid-5aa19453-0b99-4c1e-948f-d56ed2f09105" cx="49.67" cy="43.13" r="13.24"/>
      <polyline class="uuid-15cfffb8-1e6b-4104-955b-78947d7cc918" points="36.57 45.34 36.16 45.07 36.18 43.93 35.6 43.53 34.64 43.58 33.85 43.04 32.63 43.08 32.19 42.72 32.19 42.23 27.87 39.65"/>
      <polyline class="uuid-15cfffb8-1e6b-4104-955b-78947d7cc918" points="36.78 42.25 35.51 42.23 32.21 40.25"/>
      <polyline class="uuid-15cfffb8-1e6b-4104-955b-78947d7cc918" points="37.95 41.17 36.93 41.17 35.93 40.58 35.89 39.94 32.81 38.22"/>
      <polyline class="uuid-15cfffb8-1e6b-4104-955b-78947d7cc918" points="39.84 39.94 39.3 39.63 38.11 39.63 37.72 39.34 37.61 38.76 33.33 36.39"/>
      <polyline class="uuid-15cfffb8-1e6b-4104-955b-78947d7cc918" points="38.02 51.37 38.1 52.26 37.08 52.8 36.11 52.82 34.8 53.63 34.8 54.61 33.7 55.26 32.68 55.26 31.18 56.21"/>
      <polyline class="uuid-15cfffb8-1e6b-4104-955b-78947d7cc918" points="41.21 52.76 41 52.95 41.07 53.43 39.82 54.07 38.91 54.09 37.93 54.65 37.95 55.67 34.27 57.77"/>
      <polyline class="uuid-15cfffb8-1e6b-4104-955b-78947d7cc918" points="43.99 54.46 44.05 55.46 43.41 55.81 41.31 55.81 40.73 56.12 40.77 56.79 39.94 57.27 39.98 58.03 39.54 58.24 38.49 58.26 35.91 59.84"/>
      <polyline class="uuid-15cfffb8-1e6b-4104-955b-78947d7cc918" points="45.82 55.79 45.32 56.08 45.38 56.79 44.93 57.06 43.16 57.06 42.18 57.62 42.2 59.26 38.32 61.57"/>
      <ellipse class="uuid-15cfffb8-1e6b-4104-955b-78947d7cc918" cx="38.01" cy="61.66" rx=".3" ry=".17"/>
      <ellipse class="uuid-15cfffb8-1e6b-4104-955b-78947d7cc918" cx="35.55" cy="59.89" rx=".31" ry=".14"/>
      <polyline class="uuid-15cfffb8-1e6b-4104-955b-78947d7cc918" points="53.14 55.8 54.78 55.88 55.38 56.25 55.36 57.46 55.9 57.81 57.07 57.81 57.82 58.32 59.08 58.33 59.57 58.6 59.53 59.19 63.51 61.48"/>
      <polyline class="uuid-15cfffb8-1e6b-4104-955b-78947d7cc918" points="56.59 54.42 56.75 54.57 58.29 54.59 58.88 54.96 58.84 56.08 59.41 56.49 60.5 56.48 61.26 56.94 62.64 57.03 62.99 57.29 63.02 57.81 63.67 58.23"/>
      <polyline class="uuid-15cfffb8-1e6b-4104-955b-78947d7cc918" points="58.84 52.72 59.6 53.2 60.95 53.26 61.35 53.52 61.34 54.55 62.23 55.11 65.06 55.18 66.59 56.13"/>
      <polyline class="uuid-15cfffb8-1e6b-4104-955b-78947d7cc918" points="60.87 51.65 61.34 51.95 62.51 52.02 63.55 52.61 63.51 53.42 64.1 53.76 67.42 53.81 68.29 54.36 69.07 54.86"/>
      <line class="uuid-15cfffb8-1e6b-4104-955b-78947d7cc918" x1="70.04" y1="54.33" x2="68.29" y2="54.36"/>
      <polyline class="uuid-15cfffb8-1e6b-4104-955b-78947d7cc918" points="58.99 39.28 58.99 38.67 61.17 37.49"/>
      <polyline class="uuid-15cfffb8-1e6b-4104-955b-78947d7cc918" points="61.47 40.84 61.39 39.72 66.78 36.59"/>
      <polyline class="uuid-15cfffb8-1e6b-4104-955b-78947d7cc918" points="62.36 42.47 63.3 41.97 63.25 41.04 66.33 39.27"/>
      <polyline class="uuid-15cfffb8-1e6b-4104-955b-78947d7cc918" points="62.98 45.26 63.89 44.72 63.77 43.76 64.81 43.14 65.66 43.24 71.12 40.21"/>
      <ellipse class="uuid-15cfffb8-1e6b-4104-955b-78947d7cc918" cx="63.51" cy="61.48" rx=".21" ry=".38" transform="translate(-21.49 85.74) rotate(-60)"/>
      <ellipse class="uuid-15cfffb8-1e6b-4104-955b-78947d7cc918" cx="27.87" cy="39.65" rx=".29" ry=".11"/>
      <ellipse class="uuid-15cfffb8-1e6b-4104-955b-78947d7cc918" cx="32.11" cy="40.21" rx=".11" ry=".29" transform="translate(-16.22 57.89) rotate(-71.49)"/>
      <ellipse class="uuid-15cfffb8-1e6b-4104-955b-78947d7cc918" cx="32.61" cy="38.12" rx=".12" ry=".22" transform="translate(-13.89 56.94) rotate(-71.49)"/>
      <ellipse class="uuid-15cfffb8-1e6b-4104-955b-78947d7cc918" cx="33.14" cy="36.32" rx=".12" ry=".22" transform="translate(-11.82 56.22) rotate(-71.49)"/>
      <ellipse class="uuid-15cfffb8-1e6b-4104-955b-78947d7cc918" cx="61.32" cy="37.35" rx=".27" ry=".16"/>
      <ellipse class="uuid-15cfffb8-1e6b-4104-955b-78947d7cc918" cx="66.42" cy="39.18" rx=".22" ry=".14"/>
      <ellipse class="uuid-15cfffb8-1e6b-4104-955b-78947d7cc918" cx="71.21" cy="40.09" rx=".18" ry=".15"/>
      <path class="uuid-15cfffb8-1e6b-4104-955b-78947d7cc918" d="M62.19,50.7l-10.74,6.22c-.88,.51-2.31,.51-3.19,0l-10.77-6.22c-.88-.51-.88-1.33,0-1.84l10.75-6.21c.88-.51,2.3-.51,3.18,0l10.75,6.21c.88,.51,.88,1.33,0,1.84Z"/>
      <path class="uuid-15cfffb8-1e6b-4104-955b-78947d7cc918" d="M62.68,42.45c.09,.27,.17,.25,0,.47-.08,.04-.15,.09-.21,.16-.22,.1-.42,.24-.63,.36-.54,.31-1.08,.62-1.61,.93-.52,.3-1.04,.6-1.56,.9-.53,.31-1.07,.62-1.6,.93-.52,.3-1.04,.6-1.57,.91-.53,.31-1.06,.61-1.59,.92-.59,.34-1.18,.68-1.77,1.02-.42,.24-.83,.48-1.25,.73-.06,.02-.12,.02-.16,.07-.05,0-.11,0-.16,.03l-.13,.04c-.05,.02-.11-.01-.16,.03h-.08c-.27,0-.53,.02-.8-.02-.19-.03-.36-.11-.55-.15-.01-.01-.02-.03-.04-.04-.82-.48-1.65-.95-2.48-1.42-1.02-.59-2.05-1.18-3.07-1.77-1.09-.63-2.19-1.27-3.28-1.9-.64-.37-1.29-.75-1.93-1.12-.3-.17-.59-.34-.89-.51-.03-.06-.08-.1-.14-.14-.06-.1,.06,.25,0,.14,0,.1-.18-.25-.18-.14,0,1.43,.03,5.91,.03,6.72,0,.11,0,.22,.07,.31,.04,.11,.33,.37,.4,.41,1.16,.67,2.32,1.35,3.48,2.02,2.4,1.39,4.8,2.79,7.2,4.18,.27,.16,.53,.33,.82,.46,.18,.1,1.07,.23,1.21,.23,.02,0,.34-.05,.37-.07,.06,0,.26-.06,.31-.09,.08-.01,.34-.15,.4-.19,.61-.35,1.23-.71,1.84-1.07,1.38-.8,2.76-1.6,4.14-2.4,1.49-.86,5.09-2.93,5.38-3.15,.08-.04,.21-.2,.21-.2,.12-.12,.15-.27,.15-.43,0-.95,0-1.91,.01-2.86,0-1.42,.01-2.85,.02-4.27,0-.1-.14,.06-.2-.02Z"/>
      <path class="uuid-15cfffb8-1e6b-4104-955b-78947d7cc918" d="M62.19,43.27l-10.74,6.22c-.88,.51-2.31,.51-3.19,0l-10.77-6.22c-.88-.51-.88-1.33,0-1.84l10.75-6.21c.88-.51,2.3-.51,3.18,0l10.75,6.21c.88,.51,.88,1.33,0,1.84Z"/>
      <path class="uuid-15cfffb8-1e6b-4104-955b-78947d7cc918" d="M49.86,48.43c-.4,0-.72-.1-.87-.19l-9.62-5.55c-.26-.15-.26-.53,0-.68l9.6-5.54c.16-.09,.47-.19,.87-.19s.72,.1,.87,.19l9.54,5.51c.29,.17,.29,.58,0,.75l-9.52,5.51c-.16,.09-.47,.19-.87,.19Z"/>
      <g>
        <polyline class="uuid-a6ab6e61-c952-44d3-b79b-a99e35896f06" points="19.28 14.37 21.98 14.71 21.86 17.67"/>
        <polyline class="uuid-a6ab6e61-c952-44d3-b79b-a99e35896f06" points="17.6 15.83 20.31 16.17 20.19 19.13"/>
        <polyline class="uuid-a6ab6e61-c952-44d3-b79b-a99e35896f06" points="15.74 17.45 18.45 17.8 18.33 20.75"/>
      </g>
      <g>
        <polyline class="uuid-a6ab6e61-c952-44d3-b79b-a99e35896f06" points="94.18 39.89 92.68 42.17 90.08 40.75"/>
        <polyline class="uuid-a6ab6e61-c952-44d3-b79b-a99e35896f06" points="93.61 37.75 92.11 40.02 89.51 38.61"/>
        <polyline class="uuid-a6ab6e61-c952-44d3-b79b-a99e35896f06" points="92.98 35.36 91.48 37.63 88.88 36.22"/>
      </g>
      <g>
        <polyline class="uuid-a6ab6e61-c952-44d3-b79b-a99e35896f06" points="79.69 84.09 76.98 83.84 76.99 80.89"/>
        <polyline class="uuid-a6ab6e61-c952-44d3-b79b-a99e35896f06" points="81.31 82.56 78.6 82.32 78.61 79.36"/>
        <polyline class="uuid-a6ab6e61-c952-44d3-b79b-a99e35896f06" points="83.11 80.87 80.4 80.63 80.41 77.67"/>
      </g>
      <g>
        <polyline class="uuid-a6ab6e61-c952-44d3-b79b-a99e35896f06" points="5.21 58.47 6.91 56.33 9.37 57.97"/>
        <polyline class="uuid-a6ab6e61-c952-44d3-b79b-a99e35896f06" points="5.59 60.66 7.29 58.52 9.75 60.16"/>
        <polyline class="uuid-a6ab6e61-c952-44d3-b79b-a99e35896f06" points="6.01 63.09 7.71 60.96 10.17 62.6"/>
      </g>
      <g>
        <g>
          <path class="uuid-15cfffb8-1e6b-4104-955b-78947d7cc918" d="M65.46,30.76c-.58-.34-.43-.88,.16-1.22l7.11-4.11c.58-.34,1.52-.34,2.11,0l7.13,4.24c.58,.34,.58,.88,0,1.22"/>
          <path class="uuid-15cfffb8-1e6b-4104-955b-78947d7cc918" d="M81.8,35.85l-6.97,4.04c-.57,.33-1.5,.33-2.07,0l-6.99-4.04c-.57-.33-.57-.87,0-1.2l6.98-4.03c.57-.33,1.5-.33,2.07,0l6.98,4.03c.57,.33,.57,.86,0,1.19Z"/>
          <path class="uuid-15cfffb8-1e6b-4104-955b-78947d7cc918" d="M82.11,30.8c-.05,.02-.1,.06-.14,.1-.14,.07-.27,.15-.41,.23-.35,.2-.7,.4-1.05,.61-.34,.19-.67,.39-1.01,.58-.35,.2-.69,.4-1.04,.6-.34,.2-.68,.39-1.02,.59-.34,.2-.69,.4-1.03,.6-.38,.22-.77,.44-1.15,.66-.56,.33-1.21,.66-1.89,.51s-1.27-.64-1.87-.98c-.67-.38-1.33-.77-1.99-1.15-.71-.41-1.42-.82-2.13-1.23-.42-.24-.83-.48-1.25-.73-.19-.11-.39-.22-.58-.33-.02-.04-.05-.07-.09-.09-.04-.07-.08,.11-.12,.04v1.29c0,.93,.02,2.5,.02,3.03,0,.07,0,.14,.05,.2,.03,.07,.21,.24,.26,.26,.75,.44,1.5,.87,2.26,1.31,1.56,.9,3.12,1.81,4.68,2.71,.18,.1,.35,.21,.53,.3,.12,.06,.69,.15,.78,.15,.01,0,.22-.03,.24-.05,.04,0,.17-.04,.2-.06,.05,0,.22-.1,.26-.12,.4-.23,.8-.46,1.19-.69,.9-.52,1.79-1.04,2.69-1.56,.96-.56,3.31-1.9,3.5-2.04,.05-.03,.14-.13,.14-.13,.08-.08,.1-.17,.1-.28,0-.62,0-1.24,0-1.86,0-.92,0-1.45,.01-2.37l-.13-.11Z"/>
        </g>
        <g>
          <path class="uuid-15cfffb8-1e6b-4104-955b-78947d7cc918" d="M64.01,59.21c-.68-.39-.5-1.04,.18-1.43l8.34-4.81c.68-.39,1.79-.39,2.47,0l8.35,4.97c.68,.39,.68,1.03,0,1.43"/>
          <path class="uuid-15cfffb8-1e6b-4104-955b-78947d7cc918" d="M83.16,65.17l-8.17,4.73c-.67,.39-1.76,.39-2.43,0l-8.19-4.73c-.67-.39-.67-1.01,0-1.4l8.18-4.72c.67-.39,1.75-.39,2.42,0l8.18,4.72c.67,.39,.67,1.01,0,1.4Z"/>
          <path class="uuid-15cfffb8-1e6b-4104-955b-78947d7cc918" d="M83.52,59.25c-.06,.03-.11,.07-.16,.12-.17,.08-.32,.18-.48,.27-.41,.23-.82,.47-1.23,.71-.39,.23-.79,.46-1.18,.68-.41,.23-.81,.47-1.22,.7-.4,.23-.79,.46-1.19,.69-.4,.23-.81,.47-1.21,.7-.45,.26-.9,.52-1.35,.78-.66,.38-1.42,.77-2.22,.6s-1.49-.75-2.19-1.15c-.78-.45-1.56-.9-2.34-1.35-.83-.48-1.67-.96-2.5-1.45-.49-.28-.98-.57-1.47-.85-.23-.13-.45-.26-.68-.39-.03-.05-.06-.08-.11-.11-.05-.08-.09,.12-.14,.05v1.52c0,1.09,.02,2.93,.02,3.55,0,.08,0,.16,.05,.24,.03,.08,.25,.28,.3,.31,.88,.51,1.76,1.02,2.65,1.54,1.83,1.06,3.65,2.12,5.48,3.18,.21,.12,.41,.25,.62,.35,.14,.07,.81,.17,.92,.17,.01,0,.26-.04,.28-.06,.04,0,.2-.05,.24-.07,.06,0,.26-.12,.3-.14,.47-.27,.93-.54,1.4-.81,1.05-.61,2.1-1.22,3.15-1.83,1.13-.66,3.87-2.23,4.1-2.39,.06-.03,.16-.15,.16-.15,.09-.09,.12-.2,.12-.33,0-.72,0-1.45,0-2.17,0-1.08,0-1.7,.01-2.78l-.16-.13Z"/>
        </g>
        <g>
          <path class="uuid-15cfffb8-1e6b-4104-955b-78947d7cc918" d="M15.33,59.48c-.68-.39-.5-1.04,.18-1.43l8.34-4.81c.68-.39,1.79-.39,2.47,0l8.35,4.97c.68,.39,.68,1.03,0,1.43"/>
          <path class="uuid-15cfffb8-1e6b-4104-955b-78947d7cc918" d="M34.48,65.44l-8.17,4.73c-.67,.39-1.76,.39-2.43,0l-8.19-4.73c-.67-.39-.67-1.01,0-1.4l8.18-4.72c.67-.39,1.75-.39,2.42,0l8.18,4.72c.67,.39,.67,1.01,0,1.4Z"/>
          <path class="uuid-15cfffb8-1e6b-4104-955b-78947d7cc918" d="M34.84,59.52c-.06,.03-.11,.07-.16,.12-.17,.08-.32,.18-.48,.27-.41,.23-.82,.47-1.23,.71-.39,.23-.79,.46-1.18,.68-.41,.23-.81,.47-1.22,.7-.4,.23-.79,.46-1.19,.69-.4,.23-.81,.47-1.21,.7-.45,.26-.9,.52-1.35,.78-.66,.38-1.42,.77-2.22,.6s-1.49-.75-2.19-1.15c-.78-.45-1.56-.9-2.34-1.35-.83-.48-1.67-.96-2.5-1.45-.49-.28-.98-.57-1.47-.85-.23-.13-.45-.26-.68-.39-.03-.05-.06-.08-.11-.11-.05-.08-.09,.12-.14,.05v1.52c0,1.09,.02,2.93,.02,3.55,0,.08,0,.16,.05,.24,.03,.08,.25,.28,.3,.31,.88,.51,1.76,1.02,2.65,1.54,1.83,1.06,3.65,2.12,5.48,3.18,.21,.12,.41,.25,.62,.35,.14,.07,.81,.17,.92,.17,.01,0,.26-.04,.28-.06,.04,0,.2-.05,.24-.07,.06,0,.26-.12,.3-.14,.47-.27,.93-.54,1.4-.81,1.05-.61,2.1-1.22,3.15-1.83,1.13-.66,3.87-2.23,4.1-2.39,.06-.03,.16-.15,.16-.15,.09-.09,.12-.2,.12-.33,0-.72,0-1.45,0-2.17,0-1.08,0-1.7,.01-2.78l-.16-.13Z"/>
        </g>
        <g>
          <path class="uuid-15cfffb8-1e6b-4104-955b-78947d7cc918" d="M16.73,30.99c-.58-.33-.42-.88,.16-1.21l7.08-4.09c.58-.33,1.52-.33,2.1,0l7.1,4.22c.58,.33,.58,.88,0,1.21"/>
          <path class="uuid-15cfffb8-1e6b-4104-955b-78947d7cc918" d="M32.99,36.05l-6.94,4.02c-.57,.33-1.49,.33-2.06,0l-6.96-4.02c-.57-.33-.57-.86,0-1.19l6.95-4.01c.57-.33,1.49-.33,2.06,0l6.95,4.01c.57,.33,.57,.86,0,1.19Z"/>
          <path class="uuid-15cfffb8-1e6b-4104-955b-78947d7cc918" d="M33.3,31.02c-.05,.02-.1,.06-.14,.1-.14,.07-.27,.15-.41,.23-.35,.2-.69,.4-1.04,.6-.34,.19-.67,.39-1.01,.58-.34,.2-.69,.4-1.03,.6-.34,.2-.68,.39-1.01,.59-.34,.2-.69,.4-1.03,.59-.38,.22-.76,.44-1.14,.66-.56,.32-1.21,.65-1.88,.51s-1.26-.63-1.86-.98c-.66-.38-1.32-.76-1.99-1.15-.71-.41-1.41-.82-2.12-1.23-.42-.24-.83-.48-1.25-.72-.19-.11-.38-.22-.58-.33-.02-.04-.05-.07-.09-.09-.04-.07-.08,.11-.12,.04v1.29c0,.92,.02,2.49,.02,3.02,0,.07,0,.14,.05,.2,.03,.07,.21,.24,.26,.26,.75,.44,1.5,.87,2.25,1.3,1.55,.9,3.1,1.8,4.65,2.7,.17,.1,.34,.21,.53,.3,.11,.06,.69,.15,.78,.15,.01,0,.22-.03,.24-.05,.04,0,.17-.04,.2-.06,.05,0,.22-.1,.26-.12,.4-.23,.79-.46,1.19-.69,.89-.52,1.78-1.04,2.68-1.55,.96-.56,3.29-1.9,3.48-2.03,.05-.03,.14-.13,.14-.13,.08-.08,.1-.17,.1-.28,0-.62,0-1.23,0-1.85,0-.92,0-1.44,.01-2.36l-.13-.11Z"/>
        </g>
      </g>
      <g id="uuid-2ce4bd51-c8f4-4874-b36c-f623dc84b3c9" data-name="White circle copy">
        <circle class="uuid-15cfffb8-1e6b-4104-955b-78947d7cc918" cx="49.5" cy="49.5" r="49"/>
      </g>
    </g>
  </g>
</svg>