                          <svg xmlns="http://www.w3.org/2000/svg" xmlns:xlink="http://www.w3.org/1999/xlink" viewBox="0 0 99 99">
                            <defs>
                              <style>
                                .uuid-978361ed-4dc1-4202-bdad-844480d7ff33, .uuid-e7c1d827-46ff-4e2c-a59c-3477b432c309, .uuid-4e2d94d9-396c-45f4-bb06-b842a0e2d2ba {
                                  fill: none;
                                }
                          
                                .uuid-851566a3-7856-4d51-820f-aa5aa212efbb {
                                  fill: url(#uuid-a7d17de0-9bd8-4fa5-952a-a22073b0a66e);
                                }
                          
                                .uuid-87b58d92-b7f9-42cb-9488-667f0bcff633 {
                                  clip-path: url(#uuid-308ec7ba-a2c6-4887-82cc-21b694b60864);
                                }
                          
                                .uuid-ab982530-6535-4b76-b7df-655a3a1fbfb9 {
                                  fill: url(#uuid-f0b46fa2-9b24-40b0-829d-0af0cccbc3ed);
                                  mix-blend-mode: screen;
                                  opacity: .6;
                                }
                          
                                .uuid-02425809-570c-470e-9309-9c3ea96c232a, .uuid-1a0bb94e-f561-4d38-8d68-b7817f2c4e3e {
                                  fill: #fff;
                                }
                          
                                .uuid-e7c1d827-46ff-4e2c-a59c-3477b432c309, .uuid-4e2d94d9-396c-45f4-bb06-b842a0e2d2ba {
                                  stroke: #fff;
                                  stroke-miterlimit: 10;
                                }
                          
                                .uuid-fadf0437-104f-4320-83e2-3ddfc28c7ec4 {
                                  opacity: .23;
                                }
                          
                                .uuid-c11e6842-2c2a-40e4-b59c-ab78f67d0278 {
                                  opacity: .65;
                                }
                          
                                .uuid-f0ee77f2-6c65-4659-8358-584a1638dab3 {
                                  opacity: .79;
                                }
                          
                                .uuid-42451b6b-067e-49a3-9169-5dbcd0509f15 {
                                  isolation: isolate;
                                }
                          
                                .uuid-2ac4bff9-5caf-43f1-a75b-976e3111f4cd {
                                  fill: url(#uuid-afae1db4-f2d7-4d63-96ad-57172d6da95b);
                                }
                          
                                .uuid-1a0bb94e-f561-4d38-8d68-b7817f2c4e3e {
                                  opacity: .3;
                                }
                          
                                .uuid-4e2d94d9-396c-45f4-bb06-b842a0e2d2ba {
                                  stroke-width: .25px;
                                }
                          
                                .uuid-431301ce-61da-48d4-bea8-aa2d84e70ce0 {
                                  fill: url(#uuid-71fc7a12-3359-4068-891b-3e8c3c05d3ea);
                                }
                              </style>
                              <linearGradient id="uuid-a7d17de0-9bd8-4fa5-952a-a22073b0a66e" x1="10.44" y1="49.28" x2="94.51" y2="49.28" gradientTransform="matrix(1, 0, 0, 1, 0, 0)" gradientUnits="userSpaceOnUse">
                                <stop offset="0" stop-color="#fff"/>
                                <stop offset=".25" stop-color="#fff"/>
                                <stop offset=".75" stop-color="#fff"/>
                                <stop offset="1" stop-color="#fff"/>
                              </linearGradient>
                              <clipPath id="uuid-308ec7ba-a2c6-4887-82cc-21b694b60864">
                                <path class="uuid-978361ed-4dc1-4202-bdad-844480d7ff33" d="M39.01,92.77c-11.61-2.85-21.42-10.06-27.61-20.28l6.63-4.02c5.12,8.45,13.23,14.41,22.83,16.77,3.15,.77,6.39,1.13,9.63,1.07l.16,7.75c-3.91,.08-7.83-.36-11.64-1.29Zm49.95-21.91l-6.8-3.73c1.55-2.83,2.73-5.86,3.51-9.01,2.36-9.61,.84-19.56-4.28-28.02l6.59-4.09,.07,.11c6.17,10.2,8.01,22.23,5.15,33.85-.93,3.8-2.36,7.46-4.24,10.89ZM16.98,31.73l-6.8-3.73c3.77-6.88,9.33-12.67,16.07-16.76,6.72-4.07,14.41-6.31,22.23-6.47l.16,7.75c-6.46,.13-12.81,1.98-18.37,5.35-5.58,3.38-10.18,8.17-13.29,13.85Z"/>
                              </clipPath>
                              <linearGradient id="uuid-f0b46fa2-9b24-40b0-829d-0af0cccbc3ed" x1="9.67" y1="116.39" x2="97.92" y2="116.39" gradientTransform="translate(25.67 -75.52) rotate(13.81)" xlink:href="#uuid-a7d17de0-9bd8-4fa5-952a-a22073b0a66e"/>
                              <radialGradient id="uuid-71fc7a12-3359-4068-891b-3e8c3c05d3ea" cx="48.25" cy="58.66" fx="48.25" fy="58.66" r=".21" gradientTransform="translate(-8.82 -1.85) scale(1.2 1.04)" gradientUnits="userSpaceOnUse">
                                <stop offset="0" stop-color="#e7ffbb"/>
                                <stop offset=".14" stop-color="#e1ffa5"/>
                                <stop offset=".16" stop-color="#e1ffa2"/>
                                <stop offset=".24" stop-color="#daff87"/>
                                <stop offset=".41" stop-color="#cbff42"/>
                                <stop offset=".57" stop-color="#bcff00"/>
                                <stop offset=".98" stop-color="#70e21e"/>
                                <stop offset="1" stop-color="#6ce020"/>
                              </radialGradient>
                              <radialGradient id="uuid-afae1db4-f2d7-4d63-96ad-57172d6da95b" cx="49.39" cy="48.41" fx="49.39" fy="48.41" r="11.47" gradientTransform="matrix(1, 0, 0, 1, 0, 0)" gradientUnits="userSpaceOnUse">
                                <stop offset="0" stop-color="#e4ebb8" stop-opacity="0"/>
                                <stop offset="0" stop-color="#e6ecbd" stop-opacity=".08"/>
                                <stop offset="0" stop-color="#ecf0cd" stop-opacity=".3"/>
                                <stop offset="0" stop-color="#f5f7e5" stop-opacity=".64"/>
                                <stop offset="0" stop-color="#fff"/>
                                <stop offset=".13" stop-color="#e7e7e6" stop-opacity=".89"/>
                                <stop offset=".41" stop-color="#a9a9a9" stop-opacity=".62"/>
                                <stop offset=".82" stop-color="#484847" stop-opacity=".19"/>
                                <stop offset="1" stop-color="#1d1d1b" stop-opacity="0"/>
                              </radialGradient>
                            </defs>
                            <g class="uuid-42451b6b-067e-49a3-9169-5dbcd0509f15">
                              <g id="uuid-5b182206-30f6-4971-ad29-19cf4d541018" data-name="Layer 1"/>
                              <g id="uuid-e2b6fc4f-02c8-45da-a95a-48a1c1a530ab" data-name="Layer 2">
                                <g id="uuid-918a6d20-06bc-4d14-a14a-ddd3a1728271" data-name="White icon">
                                  <line class="uuid-e7c1d827-46ff-4e2c-a59c-3477b432c309" x1="59.51" y1="53.14" x2="56.78" y2="42.58"/>
                                  <g id="uuid-d79437a1-4054-44f6-b8bf-fa6ed979fa1a" data-name="Outer ring 2">
                                    <g class="uuid-fadf0437-104f-4320-83e2-3ddfc28c7ec4">
                                      <g class="uuid-f0ee77f2-6c65-4659-8358-584a1638dab3">
                                        <path class="uuid-851566a3-7856-4d51-820f-aa5aa212efbb" d="M39.01,92.77c-11.61-2.85-21.42-10.06-27.61-20.28l6.63-4.02c5.12,8.45,13.23,14.41,22.83,16.77,3.15,.77,6.39,1.13,9.63,1.07l.16,7.75c-3.91,.08-7.83-.36-11.64-1.29Zm49.95-21.91l-6.8-3.73c1.55-2.83,2.73-5.86,3.51-9.01,2.36-9.61,.84-19.56-4.28-28.02l6.59-4.09,.07,.11c6.17,10.2,8.01,22.23,5.15,33.85-.93,3.8-2.36,7.46-4.24,10.89ZM17.24,31.44l-6.8-3.73c3.77-6.88,9.33-12.67,16.07-16.76,6.72-4.07,14.41-6.31,22.23-6.47l.16,7.75c-6.46,.13-12.81,1.98-18.37,5.35-5.58,3.38-10.18,8.17-13.29,13.85Z"/>
                                      </g>
                                    </g>
                                    <path class="uuid-1a0bb94e-f561-4d38-8d68-b7817f2c4e3e" d="M14.06,61.11c.55,1.65,1.2,3.24,1.94,4.76l-2.46,1.21c-.8-1.63-1.5-3.33-2.08-5.11h0c-1.2-3.64-1.9-7.51-2.02-11.54-.09-2.96,.15-5.86,.67-8.65l2.7,.51c-.49,2.61-.71,5.3-.63,8.06,.08,2.9,.49,5.71,1.19,8.4h0c.21,.79,.44,1.57,.7,2.36Zm72.23-21.4c.71,2.72,1.13,5.56,1.21,8.48,.08,2.8-.15,5.53-.65,8.17l2.7,.51c.54-2.83,.78-5.76,.7-8.76-.12-4.01-.81-7.86-2-11.49h-.01l-.02-.06c-.6-1.81-1.31-3.54-2.13-5.2l-2.46,1.21c.76,1.55,1.43,3.17,1.99,4.85,.25,.76,.47,1.52,.68,2.28h0ZM43.53,12.12h0c1.7-.29,3.44-.46,5.22-.51,.8-.02,1.59-.02,2.37,0l.1-2.74c-.84-.03-1.69-.03-2.55,0-1.03,.03-2.05,.1-3.06,.2h0c-2.83,.29-5.67,.9-8.48,1.83-3.83,1.27-7.34,3.05-10.48,5.25l1.57,2.25c2.93-2.05,6.2-3.71,9.77-4.89,1.84-.61,3.69-1.07,5.54-1.38Zm18.14,72.94c-1.87,.62-3.76,1.08-5.64,1.4h0c-1.67,.28-3.38,.44-5.11,.49-.83,.02-1.65,.02-2.46,0l-.1,2.74c.87,.03,1.75,.03,2.64,0,.99-.03,1.98-.09,2.95-.19h0c2.87-.29,5.74-.9,8.59-1.84,3.81-1.26,7.3-3.03,10.43-5.21l-1.57-2.25c-2.92,2.03-6.17,3.68-9.72,4.86Zm9-67.18h0c1.5,1,2.95,2.12,4.33,3.36,2.08,1.87,3.91,3.92,5.47,6.1l2.23-1.6c-1.68-2.34-3.64-4.54-5.87-6.54-2.98-2.68-6.26-4.83-9.7-6.46h0c-.72-.33-1.44-.65-2.17-.94l-1.03,2.55c.73,.3,1.45,.61,2.17,.96,1.6,.77,3.12,1.63,4.56,2.58Zm18.52,40.69l-2.67-.63c-.61,2.58-1.51,5.13-2.7,7.62-.82,1.71-1.75,3.33-2.78,4.85h0c-.95,1.4-2,2.75-3.17,4.05-.55,.61-1.12,1.21-1.7,1.78l1.92,1.96c.57-.55,1.12-1.13,1.66-1.72h0c2.58-2.83,4.79-6.09,6.53-9.72,1.28-2.67,2.24-5.41,2.9-8.18ZM15.85,33c.8-1.68,1.71-3.26,2.72-4.76h0c.97-1.43,2.04-2.81,3.23-4.13,.53-.59,1.08-1.16,1.64-1.72l-1.92-1.96c-.56,.55-1.11,1.12-1.64,1.71h0c-2.56,2.82-4.76,6.06-6.49,9.68-1.3,2.71-2.26,5.48-2.92,8.29l2.67,.63c.61-2.62,1.51-5.21,2.72-7.73Z"/>
                                    <g class="uuid-c11e6842-2c2a-40e4-b59c-ab78f67d0278">
                                      <g class="uuid-f0ee77f2-6c65-4659-8358-584a1638dab3">
                                        <path class="uuid-02425809-570c-470e-9309-9c3ea96c232a" d="M20.07,73.85c-8.78-10.49-11.33-24.97-6.66-37.81l2.08,.76c-4.4,12.1-2,25.75,6.28,35.64l-1.69,1.42Zm36.07,13.15l-.38-2.17c12.69-2.24,23.32-11.15,27.73-23.24l.03-.08,2.07,.76-.03,.08c-4.68,12.83-15.96,22.28-29.42,24.66ZM43.19,13.52l-.39-2.17c6.63-1.18,13.5-.57,19.86,1.75,6.32,2.31,11.93,6.23,16.23,11.36l-1.69,1.42c-4.05-4.83-9.34-8.53-15.3-10.7-6-2.19-12.47-2.76-18.71-1.65Z"/>
                                      </g>
                                    </g>
                                  </g>
                                  <g id="uuid-90788609-050e-4fb9-8d42-c7426e7248b2" data-name="Outer ring with circuit">
                                    <g class="uuid-87b58d92-b7f9-42cb-9488-667f0bcff633">
                                      <path class="uuid-ab982530-6535-4b76-b7df-655a3a1fbfb9" d="M39.01,92.77c-11.61-2.85-21.42-10.06-27.61-20.28l6.63-4.02c5.12,8.45,13.23,14.41,22.83,16.77,3.15,.77,6.39,1.13,9.63,1.07l.16,7.75c-3.91,.08-7.83-.36-11.64-1.29Zm49.95-21.91l-6.8-3.73c1.55-2.83,2.73-5.86,3.51-9.01,2.36-9.61,.84-19.56-4.28-28.02l6.59-4.09,.07,.11c6.17,10.2,8.01,22.23,5.15,33.85-.93,3.8-2.36,7.46-4.24,10.89ZM16.98,31.73l-6.8-3.73c3.77-6.88,9.33-12.67,16.07-16.76,6.72-4.07,14.41-6.31,22.23-6.47l.16,7.75c-6.46,.13-12.81,1.98-18.37,5.35-5.58,3.38-10.18,8.17-13.29,13.85Z"/>
                                    </g>
                                  </g>
                                  <polyline class="uuid-e7c1d827-46ff-4e2c-a59c-3477b432c309" points="56.25 54.28 63.97 65.56 67.76 57.6 65.35 49.53 63.67 44.93 61.9 40.1 53.96 35.91 57.9 28.03"/>
                                  <polyline class="uuid-e7c1d827-46ff-4e2c-a59c-3477b432c309" points="50.8 71.79 56.67 62.59 58.16 72.8 61.18 67.23 66.15 68.32 69.05 59.02 69.54 47.8 68.5 45.4 66.83 42.51 67.69 38.01 66.96 35.61 63.75 32.03 62.22 27.81 57.9 28.03 54.76 22.85 50.14 26.24 53.96 35.91 51.64 42.14 55.91 42.15"/>
                                  <line class="uuid-e7c1d827-46ff-4e2c-a59c-3477b432c309" x1="53.96" y1="35.91" x2="67.69" y2="38.01"/>
                                  <line class="uuid-e7c1d827-46ff-4e2c-a59c-3477b432c309" x1="51.86" y1="31.05" x2="54.96" y2="22.85"/>
                                  <polyline class="uuid-e7c1d827-46ff-4e2c-a59c-3477b432c309" points="53.03 58.52 50.8 71.79 55.04 74.52"/>
                                  <polyline class="uuid-e7c1d827-46ff-4e2c-a59c-3477b432c309" points="66.83 42.51 61.9 40.1 55.64 42.06"/>
                                  <polyline class="uuid-e7c1d827-46ff-4e2c-a59c-3477b432c309" points="51.92 30.62 50.06 35.65 53.21 39.12 56.11 42.32"/>
                                  <polyline class="uuid-e7c1d827-46ff-4e2c-a59c-3477b432c309" points="69.72 47.46 56.98 54.21 69.37 58.73"/>
                                  <polyline class="uuid-e7c1d827-46ff-4e2c-a59c-3477b432c309" points="56.67 62.28 54.57 73.37 63.76 64.44 56.67 62.59 56.25 54.28"/>
                                  <polyline class="uuid-e7c1d827-46ff-4e2c-a59c-3477b432c309" points="58.05 28.12 63.75 32.03 54.67 36.08"/>
                                  <polyline class="uuid-e7c1d827-46ff-4e2c-a59c-3477b432c309" points="69.83 47.93 68.87 45.77 69.01 41.58 66.96 35.61 66.38 29.83 64 27.72 62.27 27.35 59.73 24.91 57.53 24.76 54.39 22.42 50.88 23.28 49.83 24.39 49.87 26.63 50.28 29.38 49.91 31.15 49.83 35.75 49.8 38.36 49.76 40.43"/>
                                  <polyline class="uuid-e7c1d827-46ff-4e2c-a59c-3477b432c309" points="66.83 42.51 63.75 46.18 55.91 42.15"/>
                                  <polyline class="uuid-e7c1d827-46ff-4e2c-a59c-3477b432c309" points="63.75 32.03 61.9 40.1 59.38 59.82 56.67 62.59 53.03 58.52 50.89 59.66 50.2 70.29 50.21 72.75 50.75 74.17 53.03 75.1 54.39 74.54 58.02 74.97 66.15 68.32 69.24 63.64 69.05 59.02 71.15 55.55 70.57 51.93 69.72 47.46"/>
                                  <line class="uuid-e7c1d827-46ff-4e2c-a59c-3477b432c309" x1="63.97" y1="65.56" x2="65.71" y2="67.79"/>
                                  <g>
                                    <polyline class="uuid-e7c1d827-46ff-4e2c-a59c-3477b432c309" points="48.45 68.66 48.39 71.57 44.86 75.18 40.34 75.18 36.81 71.48 35 71.48 31.51 67.99 31.51 67.92"/>
                                    <path class="uuid-02425809-570c-470e-9309-9c3ea96c232a" d="M47.51,68.69c.01-.52,.44-.93,.96-.92,.52,.01,.93,.44,.92,.96-.01,.52-.44,.93-.96,.92-.52-.01-.93-.44-.92-.96Z"/>
                                    <path class="uuid-02425809-570c-470e-9309-9c3ea96c232a" d="M32.45,67.96c0-.52-.42-.94-.94-.94-.52,0-.94,.42-.94,.94,0,.52,.42,.94,.94,.94,.52,0,.94-.42,.94-.94Z"/>
                                  </g>
                                  <g>
                                    <polyline class="uuid-e7c1d827-46ff-4e2c-a59c-3477b432c309" points="30.79 64.6 30.73 63.58 29 61.85 29.05 61.24"/>
                                    <path class="uuid-02425809-570c-470e-9309-9c3ea96c232a" d="M31.73,64.49c.03,.52-.36,.97-.88,1s-.97-.36-1-.88c-.03-.52,.36-.97,.88-1,.52-.03,.97,.36,1,.88Z"/>
                                    <path class="uuid-02425809-570c-470e-9309-9c3ea96c232a" d="M29.99,61.36c.04-.52-.34-.97-.86-1.01-.52-.04-.97,.34-1.01,.86-.04,.52,.34,.97,.86,1.01,.52,.04,.97-.34,1.01-.86Z"/>
                                  </g>
                                  <g>
                                    <polyline class="uuid-e7c1d827-46ff-4e2c-a59c-3477b432c309" points="27.99 58.92 28.02 58.28 26.2 56.46 26.2 50.33 28.08 48.42 28.08 42.01 29.71 40.38 34.49 45.16 34.49 46.85"/>
                                    <path class="uuid-02425809-570c-470e-9309-9c3ea96c232a" d="M28.93,58.91c-.02,.52-.46,.92-.98,.9s-.92-.46-.9-.98c.02-.52,.46-.92,.98-.9,.52,.02,.92,.46,.9,.98Z"/>
                                    <path class="uuid-02425809-570c-470e-9309-9c3ea96c232a" d="M33.55,46.8c0,.52,.42,.94,.94,.94s.94-.42,.94-.94-.42-.94-.94-.94-.94,.42-.94,.94Z"/>
                                  </g>
                                  <g>
                                    <polyline class="uuid-e7c1d827-46ff-4e2c-a59c-3477b432c309" points="29.97 37.14 29.93 36.35 31.59 34.5 31.71 30.68 34.4 28.04"/>
                                    <path class="uuid-02425809-570c-470e-9309-9c3ea96c232a" d="M30.91,37.04c.03,.52-.37,.96-.88,.99-.52,.03-.96-.37-.99-.88-.03-.52,.37-.96,.88-.99,.52-.03,.96,.37,.99,.88Z"/>
                                    <path class="uuid-02425809-570c-470e-9309-9c3ea96c232a" d="M35.03,28.74c.37-.36,.38-.96,.01-1.33-.36-.37-.96-.38-1.33-.01-.37,.36-.38,.96-.01,1.33,.36,.37,.96,.38,1.33,.01Z"/>
                                  </g>
                                  <g>
                                    <polyline class="uuid-e7c1d827-46ff-4e2c-a59c-3477b432c309" points="37.05 27.55 37.07 26.96 38.74 24.7 40.71 24.7 42.53 22.88 46.07 22.88 48.03 24.85 47.99 31.1"/>
                                    <path class="uuid-02425809-570c-470e-9309-9c3ea96c232a" d="M37.99,27.54c-.02,.52-.46,.92-.98,.9-.52-.02-.92-.46-.9-.98,.02-.52,.46-.92,.98-.9,.52,.02,.92,.46,.9,.98Z"/>
                                    <path class="uuid-02425809-570c-470e-9309-9c3ea96c232a" d="M47.05,31.05c0,.52,.41,.94,.93,.95s.94-.41,.95-.93-.41-.94-.93-.95c-.52,0-.94,.41-.95,.93Z"/>
                                  </g>
                                  <g>
                                    <polyline class="uuid-e7c1d827-46ff-4e2c-a59c-3477b432c309" points="39.75 30.72 41.36 29.11 43.53 29.45 47.83 33.74 47.91 37.3"/>
                                    <path class="uuid-02425809-570c-470e-9309-9c3ea96c232a" d="M40.62,31.11c-.24,.46-.8,.64-1.27,.41-.46-.24-.64-.8-.41-1.27,.24-.46,.8-.64,1.27-.41,.46,.24,.64,.8,.41,1.27Z"/>
                                    <path class="uuid-02425809-570c-470e-9309-9c3ea96c232a" d="M46.97,37.28c.01,.52,.44,.93,.96,.92,.52-.01,.93-.44,.92-.96-.01-.52-.44-.93-.96-.92s-.93,.44-.92,.96Z"/>
                                  </g>
                                  <g>
                                    <polyline class="uuid-e7c1d827-46ff-4e2c-a59c-3477b432c309" points="48.3 60.55 48.29 62.53 45.48 65.33 41.76 65.33 36.54 58.6 36.7 55.73"/>
                                    <path class="uuid-02425809-570c-470e-9309-9c3ea96c232a" d="M47.36,60.59c0-.52,.43-.94,.95-.93s.94,.43,.93,.95c0,.52-.43,.94-.95,.93-.52,0-.94-.43-.93-.95Z"/>
                                    <path class="uuid-02425809-570c-470e-9309-9c3ea96c232a" d="M37.64,55.83c.03-.52-.37-.96-.89-.99s-.96,.37-.99,.89c-.03,.52,.37,.96,.89,.99s.96-.37,.99-.89Z"/>
                                  </g>
                                  <g>
                                    <polyline class="uuid-e7c1d827-46ff-4e2c-a59c-3477b432c309" points="38.18 34.57 45.29 34.8 45.18 36.72"/>
                                    <path class="uuid-02425809-570c-470e-9309-9c3ea96c232a" d="M38.19,35.51c-.52-.02-.93-.45-.91-.97,.02-.52,.45-.93,.97-.91,.52,.02,.93,.45,.91,.97-.02,.52-.45,.93-.97,.91Z"/>
                                    <path class="uuid-02425809-570c-470e-9309-9c3ea96c232a" d="M44.24,36.62c-.03,.52,.37,.96,.89,.99,.52,.03,.96-.37,.99-.89,.03-.52-.37-.96-.89-.99-.52-.03-.96,.37-.99,.89Z"/>
                                  </g>
                                  <g>
                                    <polyline class="uuid-e7c1d827-46ff-4e2c-a59c-3477b432c309" points="36.99 37.13 37.13 43.71 39.12 45.54"/>
                                    <path class="uuid-02425809-570c-470e-9309-9c3ea96c232a" d="M36.05,37.19c-.01-.52,.4-.95,.92-.96s.95,.4,.96,.92c.01,.52-.4,.95-.92,.96-.52,.01-.95-.4-.96-.92Z"/>
                                    <path class="uuid-02425809-570c-470e-9309-9c3ea96c232a" d="M38.45,46.2c.38,.35,.98,.33,1.33-.06,.35-.38,.33-.98-.06-1.33-.38-.35-.98-.33-1.33,.06-.35,.38-.33,.98,.06,1.33Z"/>
                                  </g>
                                  <g>
                                    <polyline class="uuid-e7c1d827-46ff-4e2c-a59c-3477b432c309" points="32.52 40.54 32.52 36.16 36.37 32.31 36.37 31.45"/>
                                    <path class="uuid-02425809-570c-470e-9309-9c3ea96c232a" d="M33.35,40.06c.23,.46,.05,1.03-.42,1.26-.46,.23-1.03,.05-1.26-.42-.23-.46-.05-1.03,.42-1.26,.46-.23,1.03-.05,1.26,.42Z"/>
                                    <path class="uuid-02425809-570c-470e-9309-9c3ea96c232a" d="M37.31,31.49c0-.52-.42-.94-.94-.94s-.94,.42-.94,.94,.42,.94,.94,.94,.94-.42,.94-.94Z"/>
                                  </g>
                                  <g>
                                    <polyline class="uuid-e7c1d827-46ff-4e2c-a59c-3477b432c309" points="34.97 50.83 33.96 51.84 33.96 57.11 32.07 59 32.08 60.14"/>
                                    <path class="uuid-02425809-570c-470e-9309-9c3ea96c232a" d="M34.02,50.64c.13-.5,.64-.81,1.14-.68,.5,.13,.81,.64,.68,1.14-.13,.5-.64,.81-1.14,.68s-.81-.64-.68-1.14Z"/>
                                    <path class="uuid-02425809-570c-470e-9309-9c3ea96c232a" d="M31.14,60.1c0,.52,.43,.94,.95,.93s.94-.43,.93-.95c0-.52-.43-.94-.95-.93-.52,0-.94,.43-.93,.95Z"/>
                                  </g>
                                  <g>
                                    <polyline class="uuid-e7c1d827-46ff-4e2c-a59c-3477b432c309" points="30.24 57.01 30.24 56.86 28.39 55.01 28.39 51.07 30.61 47.63 30.77 44.76"/>
                                    <path class="uuid-02425809-570c-470e-9309-9c3ea96c232a" d="M31.18,56.97c0,.52-.42,.94-.94,.94s-.94-.42-.94-.94c0-.52,.42-.94,.94-.94s.94,.42,.94,.94Z"/>
                                    <path class="uuid-02425809-570c-470e-9309-9c3ea96c232a" d="M31.7,44.86c.03-.52-.37-.96-.89-.99-.52-.03-.96,.37-.99,.89-.03,.52,.37,.96,.89,.99,.52,.03,.96-.37,.99-.89Z"/>
                                  </g>
                                  <g>
                                    <polyline class="uuid-e7c1d827-46ff-4e2c-a59c-3477b432c309" points="35.1 41.43 35.1 39.24 34.74 38.82"/>
                                    <circle class="uuid-02425809-570c-470e-9309-9c3ea96c232a" cx="35.1" cy="41.38" r=".94"/>
                                    <path class="uuid-02425809-570c-470e-9309-9c3ea96c232a" d="M35.48,38.24c-.34-.39-.93-.44-1.33-.1-.39,.34-.44,.93-.1,1.33,.34,.39,.93,.44,1.33,.1,.39-.34,.44-.93,.1-1.33Z"/>
                                  </g>
                                  <g>
                                    <polyline class="uuid-e7c1d827-46ff-4e2c-a59c-3477b432c309" points="39.45 37.89 43.97 37.89 46.96 40.87 46.96 41.74"/>
                                    <path class="uuid-02425809-570c-470e-9309-9c3ea96c232a" d="M39.49,38.83c-.52,0-.94-.42-.94-.94s.42-.94,.94-.94,.94,.42,.94,.94-.42,.94-.94,.94Z"/>
                                    <path class="uuid-02425809-570c-470e-9309-9c3ea96c232a" d="M46.02,41.69c0,.52,.42,.94,.94,.94s.94-.42,.94-.94-.42-.94-.94-.94-.94,.42-.94,.94Z"/>
                                  </g>
                                  <g>
                                    <path class="uuid-e7c1d827-46ff-4e2c-a59c-3477b432c309" d="M40.31,59.4c.01-1.55,.05-4.55,.05-4.55l-1.97-1.97-1.8-.04"/>
                                    <path class="uuid-02425809-570c-470e-9309-9c3ea96c232a" d="M41.25,59.36c0,.52-.43,.94-.95,.93-.52,0-.94-.43-.93-.95,0-.52,.43-.94,.95-.93s.94,.43,.93,.95Z"/>
                                    <path class="uuid-02425809-570c-470e-9309-9c3ea96c232a" d="M36.65,51.9c-.52-.01-.95,.4-.96,.92-.01,.52,.4,.95,.92,.96,.52,.01,.95-.4,.96-.92,.01-.52-.4-.95-.92-.96Z"/>
                                  </g>
                                  <g>
                                    <polyline class="uuid-e7c1d827-46ff-4e2c-a59c-3477b432c309" points="40.99 72.14 44.84 72.14 44.84 68.75 47.46 66.13 47.39 66.24"/>
                                    <path class="uuid-02425809-570c-470e-9309-9c3ea96c232a" d="M41.03,73.08c-.52,0-.94-.42-.94-.94s.42-.94,.94-.94,.94,.42,.94,.94-.42,.94-.94,.94Z"/>
                                    <path class="uuid-02425809-570c-470e-9309-9c3ea96c232a" d="M46.64,65.66c-.3,.43-.19,1.01,.24,1.31,.43,.3,1.01,.19,1.31-.24,.3-.43,.19-1.01-.24-1.31s-1.01-.19-1.31,.24Z"/>
                                  </g>
                                  <g>
                                    <polyline class="uuid-e7c1d827-46ff-4e2c-a59c-3477b432c309" points="42.7 69.66 38.49 69.61 36.01 67.29 35.97 61.19"/>
                                    <path class="uuid-02425809-570c-470e-9309-9c3ea96c232a" d="M42.66,68.72c.52,0,.94,.43,.93,.95,0,.52-.43,.94-.95,.93-.52,0-.94-.43-.93-.95,0-.52,.43-.94,.95-.93Z"/>
                                    <path class="uuid-02425809-570c-470e-9309-9c3ea96c232a" d="M36.91,61.23c0-.52-.43-.94-.95-.93-.52,0-.94,.43-.93,.95,0,.52,.43,.94,.95,.93,.52,0,.94-.43,.93-.95Z"/>
                                  </g>
                                  <g>
                                    <polyline class="uuid-e7c1d827-46ff-4e2c-a59c-3477b432c309" points="41.17 49.41 38.49 49.41 36.73 47.54"/>
                                    <path class="uuid-02425809-570c-470e-9309-9c3ea96c232a" d="M41.13,48.47c.52,0,.94,.42,.94,.94s-.42,.94-.94,.94-.94-.42-.94-.94,.42-.94,.94-.94Z"/>
                                    <path class="uuid-02425809-570c-470e-9309-9c3ea96c232a" d="M37.45,46.93c-.36-.38-.95-.4-1.33-.04-.38,.36-.4,.95-.04,1.33,.36,.38,.95,.4,1.33,.04,.38-.36,.4-.95,.04-1.33Z"/>
                                  </g>
                                  <g>
                                    <polyline class="uuid-e7c1d827-46ff-4e2c-a59c-3477b432c309" points="41.97 25.93 45.66 25.9 46.24 26.71 46.28 29.19"/>
                                    <path class="uuid-02425809-570c-470e-9309-9c3ea96c232a" d="M42.03,26.87c-.52,0-.94-.41-.95-.93s.41-.94,.93-.95c.52,0,.94,.41,.95,.93s-.41,.94-.93,.95Z"/>
                                    <path class="uuid-02425809-570c-470e-9309-9c3ea96c232a" d="M45.34,29.16c0,.52,.44,.93,.95,.92,.52,0,.93-.44,.92-.95,0-.52-.44-.93-.95-.92-.52,0-.93,.44-.92,.95Z"/>
                                  </g>
                                  <g>
                                    <polyline class="uuid-e7c1d827-46ff-4e2c-a59c-3477b432c309" points="39.54 40.01 39.54 42.57 40.02 43.05"/>
                                    <path class="uuid-02425809-570c-470e-9309-9c3ea96c232a" d="M38.6,40.06c0-.52,.42-.94,.94-.94s.94,.42,.94,.94-.42,.94-.94,.94-.94-.42-.94-.94Z"/>
                                    <path class="uuid-02425809-570c-470e-9309-9c3ea96c232a" d="M39.32,43.68c.37,.37,.96,.37,1.33,0,.37-.37,.37-.96,0-1.33s-.96-.37-1.33,0-.37,.96,0,1.33Z"/>
                                  </g>
                                  <g>
                                    <polyline class="uuid-e7c1d827-46ff-4e2c-a59c-3477b432c309" points="44.02 59.05 42.31 59.05 42.31 62.22 45.52 62.22 45.52 62.07"/>
                                    <path class="uuid-02425809-570c-470e-9309-9c3ea96c232a" d="M43.46,58.26c.44-.28,1.02-.15,1.3,.29s.15,1.02-.29,1.3c-.44,.28-1.02,.15-1.3-.29-.28-.44-.15-1.02,.29-1.3Z"/>
                                    <path class="uuid-02425809-570c-470e-9309-9c3ea96c232a" d="M46.46,62.11c0-.52-.42-.94-.94-.94s-.94,.42-.94,.94,.42,.94,.94,.94,.94-.42,.94-.94Z"/>
                                  </g>
                                  <g>
                                    <polyline class="uuid-e7c1d827-46ff-4e2c-a59c-3477b432c309" points="38.37 64.71 40.83 67.34 40.83 67.54"/>
                                    <path class="uuid-02425809-570c-470e-9309-9c3ea96c232a" d="M37.72,65.38c-.35-.38-.34-.97,.04-1.33,.38-.35,.97-.34,1.33,.04,.35,.38,.34,.97-.04,1.33s-.97,.34-1.33-.04Z"/>
                                    <path class="uuid-02425809-570c-470e-9309-9c3ea96c232a" d="M39.97,67.86c.21,.48,.76,.7,1.24,.49,.48-.21,.7-.76,.49-1.24-.21-.48-.76-.7-1.24-.49-.48,.21-.7,.76-.49,1.24Z"/>
                                  </g>
                                  <g>
                                    <polyline class="uuid-e7c1d827-46ff-4e2c-a59c-3477b432c309" points="33.87 66.82 33.8 63.27 32.57 62.04 32.59 62.15"/>
                                    <path class="uuid-02425809-570c-470e-9309-9c3ea96c232a" d="M34.81,66.75c.01,.52-.4,.95-.92,.96-.52,.01-.95-.4-.96-.92-.01-.52,.4-.95,.92-.96,.52-.01,.95,.4,.96,.92Z"/>
                                    <path class="uuid-02425809-570c-470e-9309-9c3ea96c232a" d="M31.66,62.28c.1,.51,.6,.84,1.1,.74,.51-.1,.84-.6,.74-1.1-.1-.51-.6-.84-1.1-.74-.51,.1-.84,.6-.74,1.1Z"/>
                                  </g>
                                  <g>
                                    <polyline class="uuid-e7c1d827-46ff-4e2c-a59c-3477b432c309" points="32.75 55.92 31.22 54.4 31.22 49.65 33.13 48.22"/>
                                    <path class="uuid-02425809-570c-470e-9309-9c3ea96c232a" d="M33.38,55.22c.37,.37,.37,.96,0,1.33s-.96,.37-1.33,0-.37-.96,0-1.33,.96-.37,1.33,0Z"/>
                                    <path class="uuid-02425809-570c-470e-9309-9c3ea96c232a" d="M33.65,49c.41-.31,.5-.9,.19-1.32-.31-.41-.9-.5-1.32-.19-.41,.31-.5,.9-.19,1.32s.9,.5,1.32,.19Z"/>
                                  </g>
                                  <g id="uuid-b66a2173-2bb9-4ab7-b66e-5ccfdaf6084c" data-name="Brain with lock">
                                    <g>
                                      <path class="uuid-4e2d94d9-396c-45f4-bb06-b842a0e2d2ba" d="M49.32,59.4s-.01,0-.02,0c-2.22-1.04-3.96-2.52-5.19-4.4-3.24-4.98-1.77-11.22-1.76-11.28,0-.01,.02-.02,.03-.02,3.42,0,5.11-.72,5.93-1.31,.88-.65,.96-1.3,.96-1.31,0-.02,.02-.03,.03-.03s.03,.01,.03,.03c0,0,.08,.66,.97,1.31,.82,.6,2.51,1.31,5.93,1.31,.02,0,.03,0,.03,.02,.02,.06,1.49,6.29-1.76,11.28h0c-1.22,1.88-2.97,3.36-5.19,4.4,0,0-.01,0-.02,0Zm-6.9-15.65c-.1,.42-1.38,6.4,1.76,11.21,1.21,1.86,2.94,3.33,5.14,4.37,2.2-1.04,3.93-2.51,5.14-4.37h0c3.13-4.81,1.85-10.79,1.76-11.21-5.71,0-6.73-1.97-6.9-2.53-.07,.23-.29,.71-.94,1.2-.82,.61-2.52,1.33-5.95,1.33Z"/>
                                      <path class="uuid-431301ce-61da-48d4-bea8-aa2d84e70ce0" d="M49.57,59.37c0,.12-.11,.22-.25,.22s-.25-.1-.25-.22,.11-.22,.25-.22,.25,.1,.25,.22Z"/>
                                      <circle class="uuid-2ac4bff9-5caf-43f1-a75b-976e3111f4cd" cx="49.39" cy="48.41" r="11.47"/>
                                      <g>
                                        <path class="uuid-02425809-570c-470e-9309-9c3ea96c232a" d="M55.1,45l-.02-.12h-.14c-2.54-.1-4.4-.64-5.51-1.59l-.12-.1-.12,.1c-.07,.06-.16,.13-.24,.19-1.14,.84-2.91,1.31-5.27,1.39h-.14l-.02,.13c-.14,.91-.33,2.74,0,4.79,.59,3.72,2.5,6.45,5.7,8.12l.09,.04,.08-.04c3.18-1.66,5.1-4.38,5.69-8.07,.33-2.07,.14-3.92,0-4.84Zm-4.66,5.26v2.01c0,.49-.46,.9-1.03,.9s-1.03-.4-1.03-.9v-2.01c-.64-.31-1.08-.91-1.08-1.6,0-1.01,.94-1.83,2.11-1.83s2.11,.82,2.11,1.83c0,.69-.44,1.28-1.08,1.6Z"/>
                                        <path class="uuid-02425809-570c-470e-9309-9c3ea96c232a" d="M54.93,45.02c-3.09-.12-4.74-.87-5.62-1.63-.08,.07-.16,.13-.25,.2-1.17,.86-2.97,1.34-5.37,1.43-.14,.93-.32,2.73,0,4.75,.58,3.68,2.47,6.37,5.62,8.02,3.14-1.64,5.02-4.32,5.61-7.97,.33-2.04,.15-3.86,0-4.8Zm-4.49,5.24v2.01c0,.49-.46,.9-1.03,.9s-1.03-.4-1.03-.9v-2.01c-.64-.31-1.08-.91-1.08-1.6,0-1.01,.94-1.83,2.11-1.83s2.11,.82,2.11,1.83c0,.69-.44,1.28-1.08,1.6Z"/>
                                      </g>
                                    </g>
                                  </g>
                                  <circle class="uuid-e7c1d827-46ff-4e2c-a59c-3477b432c309" cx="49.5" cy="49.5" r="49"/>
                                </g>
                              </g>
                            </g>
                          </svg>