<svg xmlns="http://www.w3.org/2000/svg" width="184.222" height="162.187" viewBox="0 0 184.222 162.187">
  <g id="FPO_ICONS_-03" transform="translate(0.024 0.175)">
    <g id="Group_3132" data-name="Group 3132" transform="translate(0 0)">
      <line id="Line_151" data-name="Line 151" x2="122.867" y2="9.737" transform="translate(0 65.026)" fill="none" stroke="#707070" stroke-miterlimit="10" stroke-width="0.61" opacity="0.8"/>
      <line id="Line_152" data-name="Line 152" x1="54.822" y2="55.973" transform="translate(73.046 105.826)" fill="none" stroke="#707070" stroke-miterlimit="10" stroke-width="0.61" opacity="0.8"/>
      <line id="Line_153" data-name="Line 153" x1="35.531" y1="50.854" transform="translate(96.056)" fill="none" stroke="#707070" stroke-miterlimit="10" stroke-width="0.61" opacity="0.8"/>
    </g>
    <g id="Group_3136" data-name="Group 3136" transform="translate(122.316 48.149)">
      <g id="Group_3133" data-name="Group 3133" transform="translate(4.569 5.056)">
        <path id="Path_7228" data-name="Path 7228" d="M64.057,38.1A26.127,26.127,0,1,0,90.135,64.277h0A26.073,26.073,0,0,0,64.057,38.1Zm0,50.42A24.285,24.285,0,1,1,88.3,64.194h0A24.283,24.283,0,0,1,64.057,88.52Z" transform="translate(-37.88 -38.1)" fill="#fff"/>
        <path id="Path_7229" data-name="Path 7229" d="M75.8,56.748a.9.9,0,0,0-.917-.734H72.215a8.758,8.758,0,0,0-.65-1.467l1.851-1.934a.846.846,0,0,0,.1-1.1l-.55-.834h0a3710.345,3710.345,0,0,1-.2-.2,18.774,18.774,0,0,0-2.951-3.035l-.183-.1-.1-.1h0l-.834-.55a.817.817,0,0,0-1.1.1l-1.851,1.934c-.467-.183-1.017-.367-1.467-.55V45.411a.888.888,0,0,0-.734-.917,9.087,9.087,0,0,0-2.218-.283,11.155,11.155,0,0,0-2.584,0l-2.218.283a.9.9,0,0,0-.734.917v2.768a8.759,8.759,0,0,0-1.467.65L52.39,46.894a.837.837,0,0,0-1.1-.1,7.269,7.269,0,0,0-.917.65,17.817,17.817,0,0,0-3.218,3.218,5.855,5.855,0,0,0-.65.917.817.817,0,0,0,.1,1.1l1.934,1.851A6.877,6.877,0,0,0,47.888,56H45.221a.888.888,0,0,0-.917.734,9.086,9.086,0,0,0-.283,2.218c0,.467-.1.834-.1,1.284a5.561,5.561,0,0,0,.1,1.284c.1.734.183,1.467.283,2.218a.9.9,0,0,0,.917.734h2.668a8.759,8.759,0,0,0,.65,1.467L46.6,67.87a.846.846,0,0,0-.1,1.1l.55.834h0l.1.1.1.1a16.336,16.336,0,0,0,3.035,3.035l.1.1.183.1h0l.834.55a.817.817,0,0,0,1.1-.1l1.934-1.934a6.876,6.876,0,0,0,1.467.65v2.668a.888.888,0,0,0,.734.917,9.087,9.087,0,0,0,2.218.283c.467,0,.834.1,1.284.1a5.561,5.561,0,0,0,1.284-.1l2.218-.283a.9.9,0,0,0,.734-.917V72.4a8.758,8.758,0,0,0,1.467-.65L67.7,73.689a.846.846,0,0,0,1.1.1c.283-.183.65-.467.917-.65a17.817,17.817,0,0,0,3.218-3.218c.183-.283.467-.65.65-.917a.817.817,0,0,0-.1-1.1l-1.851-1.934c.183-.467.467-.917.65-1.467h2.668a.888.888,0,0,0,.917-.734,9.086,9.086,0,0,0,.283-2.218c0-.467.1-.834.1-1.284a5.561,5.561,0,0,0-.1-1.284c-.1-.734-.283-1.467-.367-2.218Zm-1.567,4.6a5.98,5.98,0,0,1-.183,1.2H71.465a.9.9,0,0,0-.917.65,12.879,12.879,0,0,1-.917,2.4.847.847,0,0,0,.183,1.1l1.851,1.851-.183.283a14,14,0,0,1-2.851,2.851l-.283.183L66.5,70.02a.964.964,0,0,0-1.1-.183,10.673,10.673,0,0,1-2.4.917.932.932,0,0,0-.65.917v2.584c-.367.1-.834.1-1.2.183a8.848,8.848,0,0,1-2.3,0,5.981,5.981,0,0,1-1.2-.183V71.671a.9.9,0,0,0-.65-.917,20.476,20.476,0,0,1-2.4-.917.847.847,0,0,0-1.1.183L51.64,71.871l-.1-.1-.1-.1-.1-.1h0A11.911,11.911,0,0,1,48.672,68.9v-.1l-.1-.1-.1-.183-.1-.1,1.851-1.851a.964.964,0,0,0,.183-1.1,19.59,19.59,0,0,1-1.017-2.4.932.932,0,0,0-.917-.65H45.887c-.1-.367-.1-.834-.183-1.2a4.918,4.918,0,0,1-.1-1.1,4.1,4.1,0,0,1,.1-1.1c.1-.367.1-.834.183-1.2h2.584a.9.9,0,0,0,.917-.65,11.291,11.291,0,0,1,1.017-2.4.847.847,0,0,0-.183-1.1l-1.851-1.851.183-.183a14,14,0,0,1,2.851-2.851l.283-.183,1.851,1.851a.964.964,0,0,0,1.1.183,10.94,10.94,0,0,1,2.4-1.017.932.932,0,0,0,.65-.917V46.111c.367-.1.834-.1,1.2-.183a8.848,8.848,0,0,1,2.3,0,5.981,5.981,0,0,1,1.2.183V48.7a.9.9,0,0,0,.65.917,11.291,11.291,0,0,1,2.4,1.017.959.959,0,0,0,1.1-.183L68.4,48.6l.1.1.183.1.1.1h.1a11.911,11.911,0,0,1,2.668,2.668h0l.1.1.1.183.1.1L70,53.8a.964.964,0,0,0-.183,1.1,12.03,12.03,0,0,1,.917,2.3.932.932,0,0,0,.917.65h2.584c.1.367.1.834.183,1.2h0c0,.367.1.734.1,1.1a5.226,5.226,0,0,1-.283,1.2Z" transform="translate(-33.849 -34.073)" fill="#fff"/>
        <path id="Path_7230" data-name="Path 7230" d="M56.126,49.93a6.359,6.359,0,1,0,6.353,6.353h0a6.416,6.416,0,0,0-6.353-6.353Zm0,10.871a4.513,4.513,0,1,1,4.5-4.5h0a4.533,4.533,0,0,1-4.519,4.518h0Z" transform="translate(-29.949 -30.205)" fill="#fff"/>
      </g>
      <g id="Group_3135" data-name="Group 3135">
        <path id="Path_7231" data-name="Path 7231" d="M74.9,64.99a24.3,24.3,0,0,1-30.062.867" transform="translate(-28.667 -15.099)" fill="none" stroke="#fff" stroke-miterlimit="10" stroke-width="0.89"/>
        <path id="Path_7232" data-name="Path 7232" d="M39.99,65.281A24.349,24.349,0,0,1,41.574,47.19" transform="translate(-32.604 -26.978)" fill="none" stroke="#fff" stroke-miterlimit="10" stroke-width="0.22"/>
        <path id="Path_7233" data-name="Path 7233" d="M51.313,79.085a31.669,31.669,0,0,1-7.6-5.586,30.978,30.978,0,0,1-8.57-16.14" transform="translate(-35.14 -20.191)" fill="none" stroke="#fff" stroke-miterlimit="10" stroke-width="0.22"/>
        <path id="Path_7234" data-name="Path 7234" d="M84.653,55.31A31.229,31.229,0,0,1,53.54,84" transform="translate(-22.861 -21.559)" fill="none" stroke="#fff" stroke-miterlimit="10" stroke-width="0.18"/>
        <path id="Path_7235" data-name="Path 7235" d="M36.86,62.227a27.3,27.3,0,0,1-.15-2.868A27.814,27.814,0,0,1,40.428,45.42" transform="translate(-34.092 -28.159)" fill="none" stroke="#59b935" stroke-miterlimit="10" stroke-width="0.33"/>
        <path id="Path_7236" data-name="Path 7236" d="M72.654,67.88A28.017,28.017,0,0,1,47.46,70.5" transform="translate(-26.918 -13.17)" fill="none" stroke="#59b935" stroke-miterlimit="10" stroke-width="0.33"/>
        <path id="Path_7237" data-name="Path 7237" d="M50.66,41.457a21.844,21.844,0,0,1,4.7-.517A21.446,21.446,0,0,1,64.5,42.974" transform="translate(-24.783 -31.149)" fill="none" stroke="#59b935" stroke-miterlimit="10" stroke-width="0.22"/>
        <path id="Path_7238" data-name="Path 7238" d="M47.093,73.12a21.409,21.409,0,0,1-3.952-25.36" transform="translate(-31.47 -26.597)" fill="none" stroke="#59b935" stroke-miterlimit="10" stroke-width="0.22"/>
        <g id="Group_3134" data-name="Group 3134" transform="translate(0.684)">
          <path id="Path_7239" data-name="Path 7239" d="M47.65,41.261A24.346,24.346,0,0,1,81.314,68.222" transform="translate(-27.475 -32.303)" fill="none" stroke="#fff" stroke-miterlimit="10" stroke-width="1.34"/>
          <path id="Path_7240" data-name="Path 7240" d="M35.55,57.514A31.255,31.255,0,0,1,87.621,44.209a31.277,31.277,0,0,1,5.969,8.337" transform="translate(-35.55 -35.067)" fill="none" stroke="#fff" stroke-miterlimit="10" stroke-width="0.22"/>
          <path id="Path_7241" data-name="Path 7241" d="M68.49,46.31a28,28,0,0,1,2.768,15.34" transform="translate(-13.568 -27.565)" fill="none" stroke="#59b935" stroke-miterlimit="10" stroke-width="0.33"/>
          <path id="Path_7242" data-name="Path 7242" d="M51.72,37.17a28.58,28.58,0,0,1,2.935-.15,27.881,27.881,0,0,1,19.091,7.536" transform="translate(-24.759 -33.765)" fill="none" stroke="#59b935" stroke-miterlimit="10" stroke-width="0.33"/>
          <path id="Path_7243" data-name="Path 7243" d="M73.839,47.13A21.405,21.405,0,0,1,50.43,79.01" transform="translate(-25.62 -27.018)" fill="none" stroke="#59b935" stroke-miterlimit="10" stroke-width="0.22"/>
        </g>
      </g>
    </g>
  </g>
</svg>
