<svg xmlns="http://www.w3.org/2000/svg" xmlns:xlink="http://www.w3.org/1999/xlink" width="270.742" height="73.91" viewBox="0 0 270.742 73.91">
  <defs>
    <clipPath id="clip-path">
      <rect id="Rectangle_7788" data-name="Rectangle 7788" width="270.742" height="73.91" fill="none"/>
    </clipPath>
  </defs>
  <g id="Group_3065" data-name="Group 3065" transform="translate(0 0)">
    <g id="Group_3063" data-name="Group 3063" transform="translate(0 0)" clip-path="url(#clip-path)">
      <path id="Path_6975" data-name="Path 6975" d="M153.116,66.466a28.531,28.531,0,1,1,28.53-28.639,28.564,28.564,0,0,1-28.53,28.639m0-59.339a30.7,30.7,0,1,0,30.7,30.7,30.672,30.672,0,0,0-30.7-30.7" transform="translate(-18.108 -1.055)" fill="#fff"/>
      <path id="Path_6976" data-name="Path 6976" d="M145.486,56.227l3.689-7.7h14.1l3.688,7.7ZM154.6,36.7a.653.653,0,0,0,.108-.434V23.682h2.82V36.267a.653.653,0,0,0,.108.434l4.556,9.546H150.15Zm5.1-.651V23.682h.108a1.085,1.085,0,1,0,0-2.169h-7.376a1.085,1.085,0,1,0,0,2.169h.107V35.941L142.773,56.77a1.283,1.283,0,0,0,.109,1.085,1.1,1.1,0,0,0,.868.542h24.732a.966.966,0,0,0,.868-.542,1.28,1.28,0,0,0,.108-1.085Z" transform="translate(-21.108 -3.183)" fill="#fff"/>
      <path id="Path_6977" data-name="Path 6977" d="M173.948,69.188a28.628,28.628,0,0,1-35.4,1" transform="translate(-20.494 -10.235)" fill="none" stroke="#fff" stroke-miterlimit="10" stroke-width="2.051"/>
      <path id="Path_6978" data-name="Path 6978" d="M126.217,49.489a28.73,28.73,0,0,1,1.859-21.3" transform="translate(-18.487 -4.17)" fill="none" stroke="#fff" stroke-miterlimit="10" stroke-width="0.513"/>
      <path id="Path_6979" data-name="Path 6979" d="M135.258,77.188a36.843,36.843,0,0,1-19.039-25.572" transform="translate(-17.191 -7.635)" fill="none" stroke="#fff" stroke-miterlimit="10" stroke-width="0.513"/>
      <path id="Path_6980" data-name="Path 6980" d="M195.21,46.9a36.762,36.762,0,0,1-36.638,33.773" transform="translate(-23.456 -6.938)" fill="none" stroke="#fff" stroke-miterlimit="10" stroke-width="0.41"/>
      <path id="Path_6981" data-name="Path 6981" d="M120.013,43.913a33.246,33.246,0,0,1-.171-3.376,32.752,32.752,0,0,1,4.377-16.409" transform="translate(-17.727 -3.569)" fill="none" stroke="#62ad41" stroke-miterlimit="10" stroke-width="0.769"/>
      <path id="Path_6982" data-name="Path 6982" d="M174.251,75.841a32.973,32.973,0,0,1-29.663,3.065" transform="translate(-21.387 -11.219)" fill="none" stroke="#62ad41" stroke-miterlimit="10" stroke-width="0.769"/>
      <path id="Path_6983" data-name="Path 6983" d="M151.962,14.419a25.312,25.312,0,0,1,16.29,1.791" transform="translate(-22.478 -2.043)" fill="none" stroke="#62ad41" stroke-miterlimit="10" stroke-width="0.513"/>
      <path id="Path_6984" data-name="Path 6984" d="M136.481,59.367a25.218,25.218,0,0,1-4.658-29.855" transform="translate(-19.064 -4.366)" fill="none" stroke="#62ad41" stroke-miterlimit="10" stroke-width="0.513"/>
      <path id="Path_6985" data-name="Path 6985" d="M145.025,12.227a28.646,28.646,0,0,1,39.633,31.729" transform="translate(-21.452 -1.451)" fill="none" stroke="#fff" stroke-miterlimit="10" stroke-width="3.077"/>
      <path id="Path_6986" data-name="Path 6986" d="M117.161,26.691a36.78,36.78,0,0,1,68.3-5.857" transform="translate(-17.33 -0.038)" fill="none" stroke="#fff" stroke-miterlimit="10" stroke-width="0.513"/>
      <path id="Path_6987" data-name="Path 6987" d="M193.044,26.177a32.776,32.776,0,0,1,3.44,14.663,33.338,33.338,0,0,1-.173,3.394" transform="translate(-28.555 -3.872)" fill="none" stroke="#62ad41" stroke-miterlimit="10" stroke-width="0.769"/>
      <path id="Path_6988" data-name="Path 6988" d="M154.406,4.946a33.309,33.309,0,0,1,3.455-.179,32.789,32.789,0,0,1,22.472,8.868" transform="translate(-22.84 -0.705)" fill="none" stroke="#62ad41" stroke-miterlimit="10" stroke-width="0.769"/>
      <path id="Path_6989" data-name="Path 6989" d="M178.978,28.061A25.218,25.218,0,0,1,151.409,65.6" transform="translate(-22.396 -4.151)" fill="none" stroke="#62ad41" stroke-miterlimit="10" stroke-width="0.513"/>
      <path id="Path_6990" data-name="Path 6990" d="M269.319,7.258a30.754,30.754,0,1,0,30.7,30.809,30.765,30.765,0,0,0-30.7-30.809m0,59.339a28.584,28.584,0,1,1,28.53-28.638A28.588,28.588,0,0,1,269.319,66.6" transform="translate(-35.28 -1.074)" fill="#fff"/>
      <path id="Path_6991" data-name="Path 6991" d="M289.921,36a1.056,1.056,0,0,0-1.085-.867h-3.146a12.037,12.037,0,0,0-.759-1.736L287.1,31.12a1,1,0,0,0,.108-1.3l-.65-.976a8785.737,8785.737,0,0,1-.217-.217,21.6,21.6,0,0,0-3.471-3.58l-.216-.108-.109-.109-.976-.651a.987.987,0,0,0-1.3.109L278.1,26.564c-.543-.216-1.194-.434-1.736-.651V22.659a1.056,1.056,0,0,0-.868-1.085,10.687,10.687,0,0,0-2.6-.325,14.234,14.234,0,0,0-3.037,0l-2.6.325a1.056,1.056,0,0,0-.867,1.085v3.254a12.047,12.047,0,0,0-1.736.76l-2.278-2.278a.988.988,0,0,0-1.3-.108,9.3,9.3,0,0,0-1.085.759,20.966,20.966,0,0,0-3.8,3.8,6.6,6.6,0,0,0-.759,1.085.989.989,0,0,0,.108,1.3l2.278,2.169a8.352,8.352,0,0,0-.759,1.736h-3.146a1.056,1.056,0,0,0-1.085.867,10.687,10.687,0,0,0-.325,2.6c0,.542-.109.976-.109,1.518a7.129,7.129,0,0,0,.109,1.519q.162,1.3.325,2.6a1.056,1.056,0,0,0,1.085.868h3.146a12.027,12.027,0,0,0,.759,1.736l-2.278,2.278a1,1,0,0,0-.108,1.3l.651.976.108.108.109.108a18.614,18.614,0,0,0,3.58,3.58l.108.108.217.108.977.651a.987.987,0,0,0,1.3-.108l2.278-2.278a8.352,8.352,0,0,0,1.736.759V57.59a1.057,1.057,0,0,0,.867,1.085,10.729,10.729,0,0,0,2.6.325c.542,0,.976.108,1.518.108A7.184,7.184,0,0,0,273,59l2.6-.325a1.057,1.057,0,0,0,.868-1.085V54.443a12.027,12.027,0,0,0,1.736-.759l2.169,2.278a1,1,0,0,0,1.3.108c.326-.216.759-.542,1.085-.759a20.966,20.966,0,0,0,3.8-3.8c.216-.325.542-.759.759-1.085a.989.989,0,0,0-.108-1.3l-2.17-2.278c.217-.543.543-1.086.759-1.736h3.147a1.057,1.057,0,0,0,1.085-.868,10.722,10.722,0,0,0,.326-2.6c0-.543.108-.976.108-1.519a7.176,7.176,0,0,0-.108-1.518c-.109-.868-.326-1.736-.435-2.6m-1.844,5.424a6.315,6.315,0,0,1-.217,1.41h-3.037a1.077,1.077,0,0,0-1.085.759,15.023,15.023,0,0,1-1.086,2.82,1,1,0,0,0,.217,1.3l2.169,2.169-.216.325a16.467,16.467,0,0,1-3.363,3.363l-.325.217-2.169-2.17a1.153,1.153,0,0,0-1.3-.216,12.682,12.682,0,0,1-2.82,1.085,1.077,1.077,0,0,0-.759,1.085v3.038c-.434.108-.977.108-1.41.216a11.272,11.272,0,0,1-2.712,0,6.363,6.363,0,0,1-1.41-.216V53.576a1.077,1.077,0,0,0-.759-1.085,21.737,21.737,0,0,1-2.82-1.085,1,1,0,0,0-1.3.216l-2.169,2.17-.109-.109-.108-.108-.108-.108a14.419,14.419,0,0,1-3.146-3.146v-.109l-.109-.108-.108-.217-.108-.108,2.169-2.169a1.155,1.155,0,0,0,.217-1.3,21.889,21.889,0,0,1-1.194-2.82,1.077,1.077,0,0,0-1.085-.759h-3.038c-.108-.435-.108-.976-.216-1.41a5.3,5.3,0,0,1-.108-1.3,5.3,5.3,0,0,1,.108-1.3c.108-.434.108-.976.216-1.41h3.038a1.077,1.077,0,0,0,1.085-.759,12.932,12.932,0,0,1,1.194-2.82,1,1,0,0,0-.217-1.3L257.7,30.253l.216-.217a16.468,16.468,0,0,1,3.363-3.363l.326-.216,2.169,2.169a1.155,1.155,0,0,0,1.3.217,12.95,12.95,0,0,1,2.82-1.194,1.077,1.077,0,0,0,.759-1.085V23.527c.435-.108.976-.108,1.41-.216a11.272,11.272,0,0,1,2.712,0,6.363,6.363,0,0,1,1.41.216v3.038a1.077,1.077,0,0,0,.759,1.085,12.933,12.933,0,0,1,2.82,1.194,1.155,1.155,0,0,0,1.3-.217l2.169-2.169.109.108.216.108.109.109h.108a14.419,14.419,0,0,1,3.146,3.146l.108.108.108.217.109.108-2.169,2.169a1.154,1.154,0,0,0-.217,1.3,14.131,14.131,0,0,1,1.085,2.712,1.078,1.078,0,0,0,1.085.759h3.038c.108.434.108.976.217,1.41,0,.434.108.868.108,1.3a6.64,6.64,0,0,1-.326,1.41" transform="translate(-37.333 -3.131)" fill="#fff"/>
      <path id="Path_6992" data-name="Path 6992" d="M273.368,34.5a7.487,7.487,0,1,0,7.486,7.486,7.5,7.5,0,0,0-7.486-7.486m0,12.8a5.317,5.317,0,1,1,5.315-5.315,5.327,5.327,0,0,1-5.315,5.315" transform="translate(-39.329 -5.104)" fill="#fff"/>
      <path id="Path_6993" data-name="Path 6993" d="M289.916,69.188a28.628,28.628,0,0,1-35.4,1" transform="translate(-37.647 -10.235)" fill="none" stroke="#fff" stroke-miterlimit="10" stroke-width="2.051"/>
      <path id="Path_6994" data-name="Path 6994" d="M242.184,49.489a28.73,28.73,0,0,1,1.859-21.3" transform="translate(-35.641 -4.17)" fill="none" stroke="#fff" stroke-miterlimit="10" stroke-width="0.513"/>
      <path id="Path_6995" data-name="Path 6995" d="M251.225,77.188a36.846,36.846,0,0,1-19.038-25.572" transform="translate(-34.345 -7.635)" fill="none" stroke="#fff" stroke-miterlimit="10" stroke-width="0.513"/>
      <path id="Path_6996" data-name="Path 6996" d="M311.178,46.9A36.762,36.762,0,0,1,274.54,80.673" transform="translate(-40.61 -6.938)" fill="none" stroke="#fff" stroke-miterlimit="10" stroke-width="0.41"/>
      <path id="Path_6997" data-name="Path 6997" d="M235.981,43.913a33.246,33.246,0,0,1-.171-3.376,32.752,32.752,0,0,1,4.377-16.409" transform="translate(-34.881 -3.569)" fill="none" stroke="#62ad41" stroke-miterlimit="10" stroke-width="0.769"/>
      <path id="Path_6998" data-name="Path 6998" d="M290.219,75.841a32.973,32.973,0,0,1-29.664,3.065" transform="translate(-38.541 -11.219)" fill="none" stroke="#62ad41" stroke-miterlimit="10" stroke-width="0.769"/>
      <path id="Path_6999" data-name="Path 6999" d="M267.929,14.419a25.312,25.312,0,0,1,16.29,1.791" transform="translate(-39.632 -2.043)" fill="none" stroke="#62ad41" stroke-miterlimit="10" stroke-width="0.513"/>
      <path id="Path_7000" data-name="Path 7000" d="M252.449,59.367a25.218,25.218,0,0,1-4.658-29.855" transform="translate(-36.218 -4.366)" fill="none" stroke="#62ad41" stroke-miterlimit="10" stroke-width="0.513"/>
      <path id="Path_7001" data-name="Path 7001" d="M260.992,12.227a28.646,28.646,0,0,1,39.633,31.729" transform="translate(-38.606 -1.451)" fill="none" stroke="#fff" stroke-miterlimit="10" stroke-width="3.077"/>
      <path id="Path_7002" data-name="Path 7002" d="M233.128,26.691a36.78,36.78,0,0,1,68.3-5.857" transform="translate(-34.484 -0.038)" fill="none" stroke="#fff" stroke-miterlimit="10" stroke-width="0.513"/>
      <path id="Path_7003" data-name="Path 7003" d="M309.012,26.177a32.775,32.775,0,0,1,3.439,14.663,33.587,33.587,0,0,1-.172,3.394" transform="translate(-45.709 -3.872)" fill="none" stroke="#62ad41" stroke-miterlimit="10" stroke-width="0.769"/>
      <path id="Path_7004" data-name="Path 7004" d="M270.374,4.946a33.309,33.309,0,0,1,3.455-.179A32.789,32.789,0,0,1,296.3,13.635" transform="translate(-39.993 -0.705)" fill="none" stroke="#62ad41" stroke-miterlimit="10" stroke-width="0.769"/>
      <path id="Path_7005" data-name="Path 7005" d="M294.945,28.061A25.218,25.218,0,0,1,267.376,65.6" transform="translate(-39.55 -4.151)" fill="none" stroke="#62ad41" stroke-miterlimit="10" stroke-width="0.513"/>
      <path id="Path_7006" data-name="Path 7006" d="M37.276,66.686a28.533,28.533,0,1,1,28.53-28.53,28.565,28.565,0,0,1-28.53,28.53m0-59.339a30.7,30.7,0,1,0,30.7,30.7,30.672,30.672,0,0,0-30.7-30.7" transform="translate(-0.973 -1.087)" fill="#fff"/>
      <path id="Path_7007" data-name="Path 7007" d="M54.974,44.608a.977.977,0,0,0-.651.651,1.057,1.057,0,0,0,.108.976,5.191,5.191,0,0,1,.543,1.844c0,1.085-.434,2.169-2.712,3.689a7.156,7.156,0,0,0-2.82,4.339h-6.4V48.731a1.154,1.154,0,0,0-.976-1.085,3.807,3.807,0,0,1-3.038-2.495.945.945,0,0,0-.868-.651.875.875,0,0,0-.976.434,3.989,3.989,0,0,1-2.929,1.41A3.686,3.686,0,0,1,31,44.5a1.067,1.067,0,0,0-1.519-.325,6.071,6.071,0,0,1-2.929.867,5.977,5.977,0,0,1-2.278-11.5,1.105,1.105,0,0,0,.651-1.3,2.053,2.053,0,0,1-.095-.492,3.915,3.915,0,0,1,3.77-4.282,3,3,0,0,1,1.424.325.874.874,0,0,0,1.194-.325,3.709,3.709,0,0,1,4.339-1.085.873.873,0,0,0,1.193-.325,3.989,3.989,0,0,1,2.929-1.41,3.816,3.816,0,0,1,3.254,1.844,1.384,1.384,0,0,0,.759.543.845.845,0,0,0,.868-.217,4.039,4.039,0,0,1,2.169-.759,3.851,3.851,0,0,1,3.8,3.362,1.1,1.1,0,0,0,.434.76,1.172,1.172,0,0,0,.868.216c.216,0,.434-.108.651-.108a3.844,3.844,0,0,1,3.8,3.8,3.315,3.315,0,0,1-.76,2.169,1.172,1.172,0,0,0-.216.868,1.254,1.254,0,0,0,.542.759,4.075,4.075,0,0,1,1.845,3.254,4.1,4.1,0,0,1-2.712,3.471m2.82-8.027a5.111,5.111,0,0,0,.543-2.6,5.927,5.927,0,0,0-5.858-5.966,5.924,5.924,0,0,0-5.642-4.231,7.458,7.458,0,0,0-2.6.543,5.682,5.682,0,0,0-4.448-1.953A5.571,5.571,0,0,0,35.773,24a6.009,6.009,0,0,0-5.641,1.41,5.344,5.344,0,0,0-2.389-.132,6.328,6.328,0,0,0-5.1,6.261v.271a8.15,8.15,0,0,0,3.905,15.3,7.786,7.786,0,0,0,3.146-.651,5.838,5.838,0,0,0,4.556,2.061,5.6,5.6,0,0,0,3.471-1.193A6.1,6.1,0,0,0,40.871,49.6v7.594a1.085,1.085,0,0,0,1.085,1.085h8.462A1.087,1.087,0,0,0,51.5,57.192s.108-2.495,1.844-3.58c1.844-1.193,3.8-2.82,3.689-5.533a4.492,4.492,0,0,0-.325-1.736,6.168,6.168,0,0,0,3.146-5.207,6.638,6.638,0,0,0-2.061-4.556" transform="translate(-2.724 -3.309)" fill="#fff"/>
      <path id="Path_7008" data-name="Path 7008" d="M29.687,32.4a1.1,1.1,0,0,0-.434,1.518,11.572,11.572,0,0,1,1.085,3.58c-2.061,0-4.34,1.627-4.99,2.061a1.165,1.165,0,0,0-.217,1.518.987.987,0,0,0,.868.434,1.541,1.541,0,0,0,.65-.216c1.3-.976,3.58-2.061,4.231-1.519a.987.987,0,0,0,1.193.109.952.952,0,0,0,.543-1.086A22.05,22.05,0,0,0,31.1,32.726a1.008,1.008,0,0,0-1.41-.325" transform="translate(-3.689 -4.77)" fill="#fff"/>
      <path id="Path_7009" data-name="Path 7009" d="M39.081,35.613a1.112,1.112,0,0,0,1.085-1.085c.434-.217,1.3-.543,2.061-.868a1,1,0,0,0,.759-1.193.972.972,0,0,0-.976-.976c-.216,0-.325,0-.434-.108a1.292,1.292,0,0,0-.388-.642,1.1,1.1,0,0,0-1.5.1,1.352,1.352,0,0,0-.281,1.518c-1.3.651-1.519,1.3-1.519,1.518a1.185,1.185,0,0,0,.435,1.3.938.938,0,0,0,.759.434" transform="translate(-5.598 -4.511)" fill="#fff"/>
      <path id="Path_7010" data-name="Path 7010" d="M45.4,37.36a1.165,1.165,0,0,0-1.518.217A5.282,5.282,0,0,0,42.8,40.832a8.6,8.6,0,0,0-4.122.543,1.076,1.076,0,0,0-.543,1.41,1.043,1.043,0,0,0,.976.65.653.653,0,0,0,.434-.108,6.925,6.925,0,0,1,4.773,0A1.085,1.085,0,0,0,45.4,41.483c-.217-.217-1.085-1.085.108-2.712a.868.868,0,0,0-.108-1.41" transform="translate(-5.629 -5.499)" fill="#fff"/>
      <path id="Path_7011" data-name="Path 7011" d="M52.111,36c.108,0,.868.434,2.061,2.278a1.109,1.109,0,0,0,.868.542c.216,0,.434,0,.542-.217a1.066,1.066,0,0,0,.325-1.518c-1.844-2.929-3.254-3.254-3.689-3.254a1.087,1.087,0,0,0-1.085,1.085A1.16,1.16,0,0,0,52.111,36" transform="translate(-7.564 -5.004)" fill="#fff"/>
      <path id="Path_7012" data-name="Path 7012" d="M57.951,42.1a5.072,5.072,0,0,0-3.8,1.41,6.416,6.416,0,0,0-1.085-1.193,1.085,1.085,0,0,0-1.3,1.736c.434.325,1.085,1.193.976,1.627a27.821,27.821,0,0,1-1.3,2.6,2.378,2.378,0,0,0-.325,2.061,4.31,4.31,0,0,0,2.17,2.278.649.649,0,0,0,.434.109,1.044,1.044,0,0,0,.976-.651,1.076,1.076,0,0,0-.543-1.41,1.731,1.731,0,0,1-.976-.976.838.838,0,0,1,.109-.325c.759-1.193,1.41-2.82,1.518-2.929a3.146,3.146,0,0,1,3.038-2.061h.108A1.087,1.087,0,0,0,59.035,43.3,1.188,1.188,0,0,0,57.951,42.1" transform="translate(-7.545 -6.227)" fill="#fff"/>
      <path id="Path_7013" data-name="Path 7013" d="M57.981,69.188a28.628,28.628,0,0,1-35.4,1" transform="translate(-3.34 -10.235)" fill="none" stroke="#fff" stroke-miterlimit="10" stroke-width="2.051"/>
      <path id="Path_7014" data-name="Path 7014" d="M10.249,49.489a28.73,28.73,0,0,1,1.859-21.3" transform="translate(-1.333 -4.17)" fill="none" stroke="#fff" stroke-miterlimit="10" stroke-width="0.513"/>
      <path id="Path_7015" data-name="Path 7015" d="M19.29,77.188A36.846,36.846,0,0,1,.252,51.616" transform="translate(-0.037 -7.635)" fill="none" stroke="#fff" stroke-miterlimit="10" stroke-width="0.513"/>
      <path id="Path_7016" data-name="Path 7016" d="M79.243,46.9A36.762,36.762,0,0,1,42.6,80.673" transform="translate(-6.302 -6.938)" fill="none" stroke="#fff" stroke-miterlimit="10" stroke-width="0.41"/>
      <path id="Path_7017" data-name="Path 7017" d="M4.046,43.913a33.242,33.242,0,0,1-.171-3.376A32.752,32.752,0,0,1,8.252,24.128" transform="translate(-0.573 -3.569)" fill="none" stroke="#62ad41" stroke-miterlimit="10" stroke-width="0.769"/>
      <path id="Path_7018" data-name="Path 7018" d="M58.284,75.841A32.973,32.973,0,0,1,28.62,78.906" transform="translate(-4.233 -11.219)" fill="none" stroke="#62ad41" stroke-miterlimit="10" stroke-width="0.769"/>
      <path id="Path_7019" data-name="Path 7019" d="M35.994,14.419a25.312,25.312,0,0,1,16.29,1.791" transform="translate(-5.324 -2.043)" fill="none" stroke="#62ad41" stroke-miterlimit="10" stroke-width="0.513"/>
      <path id="Path_7020" data-name="Path 7020" d="M20.514,59.367a25.218,25.218,0,0,1-4.658-29.855" transform="translate(-1.911 -4.366)" fill="none" stroke="#62ad41" stroke-miterlimit="10" stroke-width="0.513"/>
      <path id="Path_7021" data-name="Path 7021" d="M29.057,12.227A28.646,28.646,0,0,1,68.69,43.956" transform="translate(-4.298 -1.451)" fill="none" stroke="#fff" stroke-miterlimit="10" stroke-width="3.077"/>
      <path id="Path_7022" data-name="Path 7022" d="M1.194,26.691a36.78,36.78,0,0,1,68.3-5.857" transform="translate(-0.177 -0.038)" fill="none" stroke="#fff" stroke-miterlimit="10" stroke-width="0.513"/>
      <path id="Path_7023" data-name="Path 7023" d="M77.077,26.177a32.776,32.776,0,0,1,3.44,14.663,33.336,33.336,0,0,1-.173,3.394" transform="translate(-11.401 -3.872)" fill="none" stroke="#62ad41" stroke-miterlimit="10" stroke-width="0.769"/>
      <path id="Path_7024" data-name="Path 7024" d="M38.439,4.946a33.309,33.309,0,0,1,3.455-.179,32.789,32.789,0,0,1,22.472,8.868" transform="translate(-5.686 -0.705)" fill="none" stroke="#62ad41" stroke-miterlimit="10" stroke-width="0.769"/>
      <path id="Path_7025" data-name="Path 7025" d="M63.011,28.061A25.218,25.218,0,0,1,35.442,65.6" transform="translate(-5.243 -4.151)" fill="none" stroke="#62ad41" stroke-miterlimit="10" stroke-width="0.513"/>
    </g>
  </g>
</svg>
